<?xml version="1.0" encoding="UTF-8"?>
<svg id="Layer_2" data-name="Layer 2" xmlns="http://www.w3.org/2000/svg" viewBox="0 0 348.21 372.12">
  <g id="Layer_1-2" data-name="Layer 1">
    <g>
      <path d="M233.49,189.58c0,17.91,14.57,32.47,32.47,32.47s32.47-14.57,32.47-32.47-14.57-32.47-32.47-32.47-32.47,14.57-32.47,32.47Z" style="fill: #26245d;"/>
      <path d="M341.67,185.31c-4.17-3.17-9.52-4.16-14.68-2.73-6.99,1.94-11.89,8.52-11.91,16.01-.05,16.42-13.45,29.79-29.87,29.79h-36.65c-16.47,0-29.87-13.4-29.87-29.87,0-4.52-1.79-8.74-5.03-11.89-3.24-3.15-7.52-4.81-12.04-4.67-8.92.27-16.12,7.88-16.06,16.98.17,25.24,15.34,47.88,38.65,57.68,1.91.81,3.15,2.62,3.15,4.62v61.35c0,2.76,2.24,5,5,5h70.1c2.76,0,5-2.24,5-5v-61.8c0-1.97,1.13-3.74,2.88-4.5,23.01-10.04,37.88-32.71,37.88-57.77,0-5.22-2.38-10.03-6.54-13.19Z" style="fill: #26245d;"/>
      <path d="M215.14,104.99h.15v29.2c0,2.76,2.24,5,5,5h85.84c15.27,0,27.7-12.43,27.7-27.7V27.7c0-15.27-12.43-27.7-27.7-27.7h-85.84c-2.76,0-5,2.24-5,5v29.2h-.15c-9.46,0-18.35,3.68-25.02,10.37-6.69,6.68-10.37,15.57-10.37,25.03,0,19.52,15.88,35.39,35.39,35.39Z" style="fill: #26245d;"/>
      <path d="M47.94,234.13c0,17.91,14.57,32.47,32.47,32.47s32.47-14.57,32.47-32.47-14.57-32.47-32.47-32.47-32.47,14.57-32.47,32.47Z" style="fill: #26245d;"/>
      <path d="M156.12,229.86c-4.17-3.17-9.52-4.16-14.68-2.73-6.99,1.94-11.89,8.52-11.91,16.01-.05,16.42-13.45,29.79-29.87,29.79h-36.66c-16.47,0-29.87-13.4-29.87-29.87,0-4.52-1.79-8.74-5.03-11.89-3.24-3.15-7.5-4.81-12.04-4.67C7.14,226.76-.06,234.38,0,243.48c.17,25.24,15.34,47.88,38.65,57.68,1.92.81,3.15,2.62,3.15,4.62v61.35c0,2.76,2.24,5,5,5h70.1c2.76,0,5-2.24,5-5v-61.8c0-1.97,1.13-3.74,2.88-4.5,23.01-10.04,37.88-32.71,37.88-57.77,0-5.22-2.38-10.03-6.54-13.19Z" style="fill: #26245d;"/>
      <path d="M31.51,181.89h103.61c2.76,0,5-2.24,5-5v-34.2c0-2.76-2.24-5-5-5h-5.15c-14,0-25.39-11.39-25.39-25.39s11.39-25.39,25.39-25.39h5.15c2.76,0,5-2.24,5-5v-34.2c0-2.76-2.24-5-5-5H31.51c-15.27,0-27.7,12.43-27.7,27.7v83.79c0,15.27,12.43,27.7,27.7,27.7Z" style="fill: #26245d;"/>
    </g>
  </g>
</svg>