<?xml version="1.0" encoding="UTF-8"?>
<svg id="Layer_2" data-name="Layer 2" xmlns="http://www.w3.org/2000/svg" viewBox="0 0 455.52 455.43">
  <g id="Layer_1-2" data-name="Layer 1">
    <path d="M296.09,404.2c0,9.43-7.65,17.08-17.08,17.08h-17.08c0,18.86-15.29,34.16-34.16,34.16s-34.17-15.29-34.17-34.16h-17.08c-9.44,0-17.08-7.65-17.08-17.08s7.65-17.08,17.08-17.08c-9.44,0-17.08-7.65-17.08-17.08s7.65-17.08,17.08-17.08h102.49c9.43,0,17.08,7.65,17.08,17.08s-7.65,17.08-17.08,17.08c9.43,0,17.08,7.65,17.08,17.08ZM227.76,132.08c-15.09,0-27.33,12.23-27.33,27.32s12.24,27.33,27.33,27.33,27.33-12.23,27.33-27.33-12.23-27.32-27.33-27.32ZM387.19,159.4c0,62.4-35.89,116.36-88.13,142.52-11.71,5.86-20.34,16.14-23.92,28.27h-94.73c-3.49-12.02-11.86-22.27-23.42-28-57.97-28.76-95.96-91.69-87.47-162.49C78.18,67.39,136.99,9.12,209.37,1.03c96.28-10.77,177.82,64.28,177.82,158.37ZM291.37,159.47v-.14c0-3.46,1.84-6.66,4.84-8.39l14.76-8.52c4.36-2.52,5.85-8.09,3.33-12.44l-17.79-30.81c-2.52-4.35-8.09-5.85-12.45-3.33l-15.12,8.73c-2.83,1.64-6.26,1.44-9.08-.2l-.09-.06c-2.82-1.62-4.69-4.49-4.69-7.74v-19.15c0-5.03-4.08-9.11-9.11-9.11h-36.44c-5.03,0-9.11,4.08-9.11,9.11v19.15c0,3.25-1.86,6.11-4.68,7.74l-.09.06c-2.82,1.64-6.26,1.83-9.08.2l-15.13-8.73c-4.35-2.52-9.93-1.02-12.44,3.33l-17.79,30.81c-2.52,4.35-1.03,9.93,3.33,12.44l14.92,8.61c2.95,1.7,4.54,4.91,4.53,8.31v.11c0,3.4-1.58,6.6-4.53,8.31l-14.92,8.61c-4.36,2.52-5.85,8.08-3.33,12.44l17.79,30.81c2.52,4.35,8.09,5.85,12.44,3.33l15.13-8.73c2.82-1.64,6.26-1.44,9.08.2l.09.06c2.82,1.62,4.68,4.49,4.68,7.74v19.15c0,5.03,4.08,9.11,9.11,9.11h36.44c5.03,0,9.11-4.08,9.11-9.11v-19.15c0-3.26,1.87-6.12,4.69-7.74l.09-.06c2.82-1.64,6.25-1.83,9.08-.2l15.12,8.73c4.36,2.52,9.93,1.02,12.45-3.33l17.79-30.81c2.52-4.35,1.03-9.93-3.33-12.44l-14.76-8.52c-3-1.73-4.84-4.93-4.84-8.39h0ZM450.96,313.01l-14.77-8.52c-2.99-1.73-4.84-4.93-4.84-8.39v-.14c0-3.46,1.84-6.66,4.84-8.39l14.77-8.52c4.35-2.52,5.85-8.09,3.33-12.44l-17.79-30.81c-2.52-4.35-8.09-5.85-12.44-3.33l-15.12,8.73c-2.83,1.64-6.26,1.44-9.08-.2l-.09-.06c-2.82-1.62-4.69-4.49-4.69-7.74v-1.48c-5.77,13.37-13.16,25.94-21.94,37.53,12.52,2.5,21.94,13.54,21.94,26.78,0,15.09-12.23,27.33-27.33,27.33-13.04,0-23.9-9.14-26.63-21.35-9.77,7.71-20.41,14.54-31.86,20.27-5.44,2.73-9.52,7.34-11.6,12.76,8.68,4.64,15.4,12.31,18.75,21.68l10.16-5.86c2.83-1.64,6.26-1.44,9.08.2l.09.06c2.82,1.62,4.68,4.49,4.68,7.74v19.15c0,5.03,4.08,9.11,9.11,9.11h36.44c5.03,0,9.11-4.08,9.11-9.11v-19.15c0-3.25,1.86-6.12,4.68-7.74l.09-.06c2.82-1.64,6.25-1.83,9.08-.2l15.12,8.73c4.36,2.52,9.93,1.02,12.45-3.33l17.79-30.81c2.52-4.35,1.02-9.93-3.33-12.44ZM157.91,335.01c-2-5.36-5.9-9.88-11.06-12.44-11.68-5.8-22.46-12.83-32.4-20.76-2.66,12.31-13.58,21.54-26.69,21.54-15.09,0-27.33-12.23-27.33-27.32,0-13.33,9.55-24.39,22.18-26.81-8.94-11.85-16.34-24.79-22.18-38.43v2.41c0,3.26-1.86,6.12-4.68,7.74l-.09.06c-2.82,1.64-6.25,1.83-9.08.2l-15.12-8.73c-4.36-2.52-9.93-1.02-12.45,3.33l-17.79,30.81c-2.52,4.35-1.02,9.93,3.33,12.44l14.92,8.61c2.95,1.7,4.53,4.91,4.53,8.31v.11c0,3.4-1.58,6.6-4.53,8.31l-14.92,8.61c-4.35,2.52-5.85,8.08-3.33,12.44l17.79,30.8c2.52,4.36,8.09,5.85,12.45,3.34l15.12-8.73c2.83-1.63,6.26-1.43,9.08.2l.09.05c2.82,1.62,4.68,4.49,4.68,7.74v19.15c0,5.03,4.08,9.11,9.11,9.11h36.44c5.03,0,9.11-4.08,9.11-9.11v-19.15c0-3.25,1.86-6.12,4.68-7.74l.09-.05c2.82-1.64,6.25-1.83,9.08-.2l10.16,5.86c3.36-9.39,10.1-17.07,18.8-21.71h0Z" style="fill: #26245d;"/>
  </g>
</svg>