<?xml version="1.0" encoding="UTF-8"?>
<svg id="Layer_2" data-name="Layer 2" xmlns="http://www.w3.org/2000/svg" viewBox="0 0 407.31 470.78">
  <g id="Layer_1-2" data-name="Layer 1">
    <path d="M238.16,132.56h21.06v-28.16c0-4.29,3.47-7.75,7.75-7.75,8.42,0,16.04-3.41,21.55-8.92,5.51-5.52,8.92-13.13,8.92-21.55s-3.41-16.04-8.92-21.55c-5.52-5.51-13.13-8.92-21.55-8.92-4.28,0-7.75-3.47-7.75-7.75V0c-35.72,1.94-67.89,17.22-91.61,40.95-23.72,23.72-39,55.89-40.95,91.61h20.85c1.62-9.58,6.22-18.17,12.81-24.75,8.32-8.32,19.82-13.47,32.52-13.47s24.19,5.15,32.52,13.47c6.59,6.59,11.19,15.17,12.81,24.75Z" style="fill: #26245d; fill-rule: evenodd;"/>
    <path d="M274.72,148.07v28.16c0,4.29-3.47,7.75-7.75,7.75-8.42,0-16.04,3.41-21.55,8.92-5.51,5.52-8.92,13.13-8.92,21.55s3.41,16.04,8.92,21.55c5.52,5.51,13.13,8.92,21.55,8.92,4.29,0,7.75,3.47,7.75,7.75v27.95c35.72-1.94,67.89-17.22,91.61-40.95,23.72-23.72,39-55.89,40.95-91.61h-20.84c-1.63,9.58-6.23,18.17-12.82,24.75-8.32,8.32-19.82,13.47-32.51,13.47s-24.2-5.15-32.52-13.47c-6.59-6.59-11.19-15.17-12.82-24.75h-21.06Z" style="fill: #26245d; fill-rule: evenodd;"/>
    <path d="M274.72,0v20.85c9.59,1.63,18.17,6.23,24.76,12.82,8.32,8.32,13.47,19.82,13.47,32.51s-5.15,24.2-13.47,32.52c-6.59,6.59-15.17,11.19-24.76,12.82v21.05h28.16c4.28,0,7.76,3.48,7.76,7.76,0,8.41,3.41,16.04,8.92,21.55,5.51,5.52,13.13,8.93,21.55,8.93s16.04-3.41,21.55-8.93c5.52-5.51,8.92-13.13,8.92-21.55,0-4.29,3.48-7.76,7.76-7.76h27.98c-1.95-35.7-17.24-67.87-40.98-91.61C342.62,17.23,310.44,1.95,274.72,0Z" style="fill: #26245d; fill-rule: evenodd;"/>
    <path d="M204.35,206.33v35.91c-21.11,0-38.23,17.12-38.23,38.23s17.12,38.23,38.23,38.23v35.91c-46.3,0-91.67-23.02-119.1-59.94.68-2.48,1.55-4.77,2.86-7.07,8.53-15.06,10.12-36.23-6.25-46.76-7.23-4.65-15.01-5.31-22.56-3.6-2.11-9.97-3.23-20.3-3.23-30.9h35.91c0-21.11,17.12-38.23,38.23-38.23s38.23,17.12,38.23,38.23h35.91Z" style="fill: #26245d; fill-rule: evenodd;"/>
    <path d="M102.49,334.08c-14.84,20.34-41.9-2-32.81-41.05,1.29-5.58,2.89-9.46,4.94-13.08,13.23-23.37-5.48-41.12-32.42-15.14C6.46,299.25-8.21,338.82,4.51,388.79l11.32,38.3h104.87c-.92-3.44-1.89-6.84-2.7-10.05-1.68-6.69-.84-13.03,2.55-19.04,4.79-8.52,15.95-24.48,24.79-37.92-16.14-6.16-30.17-14.98-42.85-25.99h0Z" style="fill: #26245d; fill-rule: evenodd;"/>
    <path d="M5.67,442.59h133.68c.36,0,.7.07,1.03.21.33.14.62.33.88.58.25.25.45.54.58.88.14.33.21.68.21,1.03v22.79c0,.36-.07.7-.21,1.03-.14.33-.33.62-.58.87-.26.25-.55.45-.88.59-.33.14-.68.21-1.03.21H5.67c-.36,0-.7-.07-1.03-.21-.33-.14-.62-.33-.87-.59-.26-.25-.45-.54-.59-.87-.14-.33-.21-.68-.21-1.03v-22.79c0-.36.07-.71.21-1.03.14-.33.33-.62.59-.88.25-.25.54-.45.87-.58.33-.14.68-.21,1.03-.21Z" style="fill: #26245d;"/>
  </g>
</svg>