<?xml version="1.0" encoding="UTF-8"?>
<svg id="Layer_2" data-name="Layer 2" xmlns="http://www.w3.org/2000/svg" viewBox="0 0 436.28 381.28">
  <g id="Layer_1-2" data-name="Layer 1">
    <g>
      <rect x="174.83" y="295.02" width="86.64" height="65.17" style="fill: #26245d;"/>
      <path d="M307.4,369.02h-178.5c-3.39,0-6.13,2.75-6.13,6.13s2.75,6.13,6.13,6.13h178.5c3.39,0,6.13-2.75,6.13-6.13s-2.75-6.13-6.13-6.13Z" style="fill: #26245d;"/>
      <path d="M404.79,0H31.51C14.13,0,0,14.13,0,31.51v223.42c0,17.37,14.13,31.51,31.51,31.51h373.28c17.37,0,31.5-14.14,31.5-31.51V31.51c0-17.38-14.13-31.51-31.5-31.51ZM269.94,102.4c4.08-13.33,15.34-23.68,29.46-28.13-4.46-4.17-7.25-10.11-7.25-16.69,0-12.61,10.25-22.87,22.87-22.87s22.87,10.27,22.87,22.87c0,6.57-2.78,12.51-7.25,16.69,14.12,4.45,25.36,14.8,29.45,28.13,1.17,3.79.49,7.9-1.8,11-1.97,2.67-4.89,4.19-8.03,4.19h-70.48c-3.13,0-6.05-1.52-8.02-4.19-2.29-3.1-2.97-7.21-1.82-11ZM76.19,102.4c4.08-13.33,15.34-23.68,29.46-28.13-4.46-4.17-7.25-10.11-7.25-16.69,0-12.61,10.25-22.87,22.87-22.87s22.87,10.27,22.87,22.87c0,6.57-2.78,12.51-7.25,16.69,14.12,4.45,25.36,14.8,29.45,28.13,1.17,3.79.49,7.9-1.8,11-1.97,2.67-4.91,4.19-8.03,4.19h-70.48c-3.13,0-6.05-1.52-8.02-4.19-2.29-3.1-2.97-7.21-1.82-11ZM164.54,247.53c-1.97,2.67-4.91,4.19-8.03,4.19h-70.48c-3.13,0-6.05-1.52-8.02-4.19-2.29-3.1-2.97-7.21-1.82-11,4.08-13.33,15.34-23.68,29.46-28.13-4.46-4.17-7.25-10.11-7.25-16.69,0-12.61,10.25-22.87,22.87-22.87s22.87,10.27,22.87,22.87c0,6.57-2.78,12.51-7.25,16.69,14.12,4.45,25.36,14.8,29.45,28.13,1.17,3.79.49,7.9-1.8,11ZM358.29,247.53c-1.97,2.67-4.89,4.19-8.03,4.19h-70.48c-3.13,0-6.05-1.52-8.02-4.19-2.29-3.1-2.97-7.21-1.82-11,4.08-13.33,15.34-23.68,29.46-28.13-4.46-4.17-7.25-10.11-7.25-16.69,0-12.61,10.25-22.87,22.87-22.87s22.87,10.27,22.87,22.87c0,6.57-2.78,12.51-7.25,16.69,14.12,4.45,25.36,14.8,29.45,28.13,1.17,3.79.49,7.9-1.8,11ZM395.86,147.5h-173.42v105.76c0,2.37-1.93,4.29-4.29,4.29s-4.29-1.93-4.29-4.29v-105.76H40.44c-2.37,0-4.29-1.91-4.29-4.29s1.93-4.29,4.29-4.29h173.42V33.18c0-2.38,1.93-4.29,4.29-4.29s4.29,1.91,4.29,4.29v105.74h173.42c2.37,0,4.29,1.93,4.29,4.29s-1.93,4.29-4.29,4.29Z" style="fill: #26245d;"/>
      <path d="M279.78,109.01h70.48c.53,0,.93-.44,1.13-.71.5-.69.93-1.97.5-3.38-4.39-14.31-19.38-24.33-36.52-24.47h-.69c-17.15.14-32.15,10.16-36.52,24.47-.44,1.41,0,2.7.5,3.38.2.27.6.71,1.12.71Z" style="fill: #26245d;"/>
      <path d="M314.79,71.86c.07.01.16.01.23.01s.16,0,.23-.01c7.76-.11,14.06-6.48,14.06-14.29s-6.41-14.29-14.29-14.29-14.29,6.41-14.29,14.29,6.28,14.18,14.05,14.29Z" style="fill: #26245d;"/>
      <path d="M86.02,109.01h70.48c.51,0,.93-.44,1.13-.71.5-.69.93-1.97.5-3.38-4.39-14.31-19.38-24.33-36.52-24.47h-.69c-17.16.14-32.15,10.16-36.52,24.47-.44,1.41,0,2.7.5,3.38.2.27.6.71,1.12.71Z" style="fill: #26245d;"/>
      <path d="M121.04,71.86c.07.01.16.01.23.01s.16,0,.23-.01c7.76-.11,14.06-6.48,14.06-14.29s-6.41-14.29-14.29-14.29-14.29,6.41-14.29,14.29,6.28,14.18,14.05,14.29Z" style="fill: #26245d;"/>
      <path d="M315.37,214.58h-.69c-17.15.13-32.15,10.17-36.52,24.47-.44,1.41,0,2.71.5,3.38.2.27.6.71,1.12.71h70.48c.53,0,.93-.44,1.13-.71.5-.67.93-1.97.5-3.38-4.39-14.3-19.38-24.33-36.52-24.47Z" style="fill: #26245d;"/>
      <path d="M314.79,205.99c.07.01.16.01.23.01s.16,0,.23-.01c7.76-.11,14.06-6.48,14.06-14.29s-6.41-14.29-14.29-14.29-14.29,6.41-14.29,14.29,6.28,14.18,14.05,14.29Z" style="fill: #26245d;"/>
      <path d="M121.61,214.58h-.69c-17.16.13-32.15,10.17-36.52,24.47-.44,1.41,0,2.71.5,3.38.2.27.6.71,1.12.71h70.48c.51,0,.93-.44,1.13-.71.5-.67.93-1.97.5-3.38-4.39-14.3-19.38-24.33-36.52-24.47Z" style="fill: #26245d;"/>
      <path d="M121.04,205.99c.07.01.16.01.23.01s.16,0,.23-.01c7.76-.11,14.06-6.48,14.06-14.29s-6.41-14.29-14.29-14.29-14.29,6.41-14.29,14.29,6.28,14.18,14.05,14.29Z" style="fill: #26245d;"/>
    </g>
  </g>
</svg>