<?xml version="1.0" encoding="UTF-8"?>
<svg id="Layer_2" data-name="Layer 2" xmlns="http://www.w3.org/2000/svg" viewBox="0 0 1469.04 652.28">
  <g id="Capa_1" data-name="Capa 1">
    <g>
      <path d="M783.9,202.37h-16.54v-79.14h56.33v14h-39.79v17.86h34.83v14h-34.83v33.29Z" style="fill: #26225d;"/>
      <path d="M849.37,202.37h-15.43v-79.14h15.43v79.14Z" style="fill: #26225d;"/>
      <path d="M890.71,203.92c-15.76,0-29.98-9.7-29.98-30.86s14.22-30.86,29.98-30.86,29.98,9.7,29.98,30.86-14.22,30.86-29.98,30.86ZM890.71,155.19c-11.91,0-14.11,10.36-14.11,17.86s2.2,17.86,14.11,17.86,14.11-10.36,14.11-17.86-2.21-17.86-14.11-17.86Z" style="fill: #26225d;"/>
      <path d="M931.38,143.73h14.77v10.14h.22c3.2-5.95,6.72-11.68,16.09-11.68.99,0,1.98.11,2.98.22v15.65c-1.32-.22-2.98-.22-4.41-.22-12.01,0-14.22,7.5-14.22,14v30.53h-15.43v-58.64Z" style="fill: #26225d;"/>
      <path d="M990.23,136.79h-15.43v-14.33h15.43v14.33ZM990.23,143.73v58.64h-15.43v-58.64h15.43Z" style="fill: #26225d;"/>
      <path d="M1058.57,202.37h-15.1v-7.38h-.22c-3.75,6.61-10.58,8.93-16.98,8.93-17.42,0-24.69-15.43-24.69-31.53,0-20.28,11.46-30.2,24.36-30.2,9.92,0,14.55,5.4,16.98,9.15h.22v-28.11h15.43v79.14ZM1030.14,191.24c9.81,0,13.67-8.16,13.67-16.87,0-9.37-2.65-18.85-13.23-18.85-9.81,0-13.12,8.71-13.12,17.97,0,6.94,2.76,17.75,12.68,17.75Z" style="fill: #26225d;"/>
      <path d="M1119.86,190.91c0,6.94,1.54,8.49,3.42,9.15v2.31h-16.64c-.88-2.76-1.1-3.64-1.43-6.94-3.53,3.64-8.49,8.49-18.96,8.49-8.82,0-17.86-4.96-17.86-17.09,0-11.46,7.28-17.31,17.09-18.74l13.89-2.09c2.42-.33,5.4-1.32,5.4-4.63,0-6.5-6.17-6.83-10.14-6.83-7.72,0-9.04,4.74-9.48,8.16h-14.88c1.76-17.97,14.22-20.5,26.23-20.5,8.27,0,23.37,2.54,23.37,16.98v31.75ZM1104.76,173.82c-1.54,1.21-4.08,2.2-10.47,3.2-5.73.99-10.47,2.42-10.47,8.82,0,5.4,4.19,7.05,7.17,7.05,6.83,0,13.78-4.41,13.78-11.57v-7.5Z" style="fill: #26225d;"/>
      <path d="M767.37,231.58h38.47c19.4,0,24.36,12.12,24.36,20.28,0,11.35-6.39,14.55-9.7,16.2,9.7,3.64,12.24,11.35,12.24,19.18,0,6.28-2.65,12.24-6.83,16.31-4.52,4.41-8.82,7.17-25.02,7.17h-33.51v-79.14ZM783.24,262.55h19.4c6.5,0,11.68-2.54,11.68-8.82s-4.63-8.49-12.12-8.49h-18.96v17.31ZM783.24,297.05h20.28c8.05,0,12.68-3.53,12.68-11.57,0-6.94-5.95-9.59-11.9-9.59h-21.05v21.16Z" style="fill: #26225d;"/>
      <path d="M898.64,310.72h-14.77v-8.27h-.22c-3.53,6.28-9.7,9.81-17.86,9.81-11.57,0-19.95-6.61-19.95-21.6v-38.58h15.43v36.38c0,9.04,5.29,10.8,10.03,10.8,5.07,0,11.91-2.87,11.91-13.34v-33.84h15.43v58.64Z" style="fill: #26225d;"/>
      <path d="M946.26,269.94c-.66-3.75-1.98-7.72-10.36-7.72s-9.48,3.2-9.48,5.73c0,9.26,36.71,2.54,36.71,24.14,0,17.09-16.53,20.17-25.68,20.17-13.34,0-27.78-4.63-28.22-20.28h15.87c0,4.96,3.09,8.6,12.79,8.6,7.94,0,9.81-3.86,9.81-6.06,0-9.81-36.38-2.42-36.38-24.36,0-8.6,5.4-19.62,23.7-19.62,11.46,0,25.13,2.87,26.34,19.4h-15.1Z" style="fill: #26225d;"/>
      <path d="M990.23,245.14h-15.43v-14.33h15.43v14.33ZM990.23,252.08v58.64h-15.43v-58.64h15.43Z" style="fill: #26225d;"/>
      <path d="M1058.02,310.72h-15.43v-35.6c0-4.3-.22-11.57-10.03-11.57-6.83,0-12.13,4.63-12.13,13.56v33.62h-15.43v-58.64h14.77v8.6h.22c2.09-3.53,6.5-10.14,17.64-10.14s20.39,6.72,20.39,19.62v40.56Z" style="fill: #26225d;"/>
      <path d="M1122.72,293.53c-4.08,14.11-15.76,18.74-25.79,18.74-16.53,0-29.21-7.94-29.21-32.08,0-7.05,2.42-29.65,28.11-29.65,11.57,0,27.56,5.51,27.56,32.3v2.76h-40.23c.44,4.41,1.32,14.33,13.78,14.33,4.3,0,8.71-2.2,9.92-6.39h15.87ZM1107.51,275.56c-.88-9.48-6.94-12.35-11.9-12.35-7.28,0-11.13,4.63-12.02,12.35h23.92Z" style="fill: #26225d;"/>
      <path d="M1166.81,269.94c-.66-3.75-1.98-7.72-10.36-7.72s-9.48,3.2-9.48,5.73c0,9.26,36.71,2.54,36.71,24.14,0,17.09-16.53,20.17-25.68,20.17-13.34,0-27.78-4.63-28.22-20.28h15.87c0,4.96,3.09,8.6,12.79,8.6,7.94,0,9.81-3.86,9.81-6.06,0-9.81-36.38-2.42-36.38-24.36,0-8.6,5.4-19.62,23.7-19.62,11.46,0,25.13,2.87,26.34,19.4h-15.1Z" style="fill: #26225d;"/>
      <path d="M1228.09,269.94c-.66-3.75-1.98-7.72-10.36-7.72s-9.48,3.2-9.48,5.73c0,9.26,36.71,2.54,36.71,24.14,0,17.09-16.53,20.17-25.68,20.17-13.34,0-27.78-4.63-28.22-20.28h15.87c0,4.96,3.09,8.6,12.79,8.6,7.94,0,9.81-3.86,9.81-6.06,0-9.81-36.38-2.42-36.38-24.36,0-8.6,5.4-19.62,23.7-19.62,11.46,0,25.13,2.87,26.34,19.4h-15.1Z" style="fill: #26225d;"/>
      <path d="M1334.35,299.26c0,6.94,1.54,8.49,3.42,9.15v2.31h-16.64c-.88-2.76-1.1-3.64-1.43-6.94-3.53,3.64-8.49,8.49-18.96,8.49-8.82,0-17.86-4.96-17.86-17.08,0-11.46,7.28-17.31,17.09-18.74l13.89-2.09c2.43-.33,5.4-1.32,5.4-4.63,0-6.5-6.17-6.83-10.14-6.83-7.72,0-9.04,4.74-9.48,8.16h-14.88c1.76-17.97,14.22-20.5,26.24-20.5,8.27,0,23.37,2.54,23.37,16.98v31.75ZM1319.25,282.17c-1.54,1.21-4.08,2.21-10.47,3.2-5.73.99-10.47,2.42-10.47,8.82,0,5.4,4.19,7.05,7.17,7.05,6.83,0,13.78-4.41,13.78-11.57v-7.5Z" style="fill: #26225d;"/>
      <path d="M1401.14,310.72h-15.43v-35.6c0-4.3-.22-11.57-10.03-11.57-6.83,0-12.13,4.63-12.13,13.56v33.62h-15.43v-58.64h14.77v8.6h.22c2.09-3.53,6.5-10.14,17.64-10.14s20.39,6.72,20.39,19.62v40.56Z" style="fill: #26225d;"/>
      <path d="M1469.04,310.72h-15.1v-7.39h-.22c-3.75,6.61-10.58,8.93-16.98,8.93-17.42,0-24.69-15.43-24.69-31.53,0-20.28,11.46-30.2,24.36-30.2,9.92,0,14.55,5.4,16.98,9.15h.22v-28.11h15.43v79.14ZM1440.6,299.59c9.81,0,13.67-8.16,13.67-16.87,0-9.37-2.65-18.85-13.23-18.85-9.81,0-13.12,8.71-13.12,17.97,0,6.94,2.76,17.75,12.68,17.75Z" style="fill: #26225d;"/>
      <path d="M800.99,419.07h-16.54v-65.15h-23.92v-14h64.37v14h-23.92v65.15Z" style="fill: #26225d;"/>
      <path d="M883.87,401.88c-4.08,14.11-15.76,18.74-25.79,18.74-16.53,0-29.21-7.94-29.21-32.08,0-7.05,2.42-29.65,28.11-29.65,11.57,0,27.56,5.51,27.56,32.3v2.75h-40.23c.44,4.41,1.32,14.33,13.78,14.33,4.3,0,8.71-2.2,9.92-6.39h15.87ZM868.66,383.91c-.88-9.48-6.94-12.35-11.91-12.35-7.27,0-11.13,4.63-12.01,12.35h23.92Z" style="fill: #26225d;"/>
      <path d="M945.27,397.69c-.55,6.06-5.29,22.93-26.79,22.93s-27.12-16.87-27.12-29.21c0-18.96,8.27-32.52,28.11-32.52,9.26,0,24.47,4.19,25.9,22.49h-15.65c-.66-3.75-2.87-9.48-9.48-9.48h-.77c-9.7,0-12.24,9.7-12.24,16.97,0,6.39.22,19.07,11.9,19.07,7.83,0,10.47-7.5,10.47-10.25h15.65Z" style="fill: #26225d;"/>
      <path d="M1009.09,419.07h-15.43v-35.6c0-4.3-.22-11.57-10.03-11.57-6.83,0-12.13,4.63-12.13,13.56v33.62h-15.43v-79.14h15.43v28.11h.22c1.98-4.85,8.6-9.15,16.98-9.15,11.46,0,20.39,6.72,20.39,19.62v40.56Z" style="fill: #26225d;"/>
      <path d="M1076.43,419.07h-15.43v-35.6c0-4.3-.22-11.57-10.03-11.57-6.83,0-12.13,4.63-12.13,13.56v33.62h-15.43v-58.64h14.77v8.6h.22c2.09-3.53,6.5-10.14,17.64-10.14s20.39,6.72,20.39,19.62v40.56Z" style="fill: #26225d;"/>
      <path d="M1117.32,420.62c-15.76,0-29.98-9.7-29.98-30.86s14.22-30.86,29.98-30.86,29.98,9.7,29.98,30.86-14.22,30.86-29.98,30.86ZM1117.32,371.9c-11.91,0-14.11,10.36-14.11,17.86s2.2,17.86,14.11,17.86,14.11-10.36,14.11-17.86-2.21-17.86-14.11-17.86Z" style="fill: #26225d;"/>
      <path d="M1173.97,419.07h-15.43v-79.14h15.43v79.14Z" style="fill: #26225d;"/>
      <path d="M1215.31,420.62c-15.76,0-29.98-9.7-29.98-30.86s14.22-30.86,29.98-30.86,29.98,9.7,29.98,30.86-14.22,30.86-29.98,30.86ZM1215.31,371.9c-11.91,0-14.11,10.36-14.11,17.86s2.2,17.86,14.11,17.86,14.11-10.36,14.11-17.86-2.21-17.86-14.11-17.86Z" style="fill: #26225d;"/>
      <path d="M1309.88,360.43v55.56c0,10.14-.77,27.01-29.65,27.01-12.13,0-24.91-5.18-25.57-17.64h16.76c.66,2.98,1.87,5.95,10.8,5.95,8.27,0,12.24-3.97,12.24-13.45v-7.05l-.22-.22c-2.54,4.52-6.39,8.82-15.65,8.82-14.11,0-25.24-9.81-25.24-30.31s11.46-30.2,24.36-30.2c10.91,0,15.32,6.39,17.2,10.25h.22v-8.71h14.77ZM1281.44,406.4c10.47,0,13.12-8.93,13.12-16.97,0-9.48-4.63-17.2-13.23-17.2-5.73,0-12.12,4.19-12.12,17.86,0,7.5,3.09,16.31,12.24,16.31Z" style="fill: #26225d;"/>
      <path d="M1355.51,418.08c-7.28,21.71-9.26,24.58-22.71,24.58-2.09,0-4.74-.11-6.94-.22v-12.35c.66.11,1.65.22,2.98.22,5.62,0,8.71-.77,10.14-8.82l-21.6-61.07h17.2l12.57,43.21h.22l12.01-43.21h16.31l-20.17,57.65Z" style="fill: #26225d;"/>
    </g>
    <g>
      <g>
        <path d="M830.75,502.83c0,20.83-12.57,29.76-32.52,29.76-7.28,0-18.08-1.76-25.13-9.59-4.3-4.85-5.95-11.24-6.17-19.18v-52.47h16.87v51.37c0,11.02,6.39,15.87,14.11,15.87,11.35,0,15.98-5.51,15.98-15.1v-52.14h16.87v51.48Z" style="fill: #26225d;"/>
        <path d="M898.75,530.5h-15.43v-35.6c0-4.3-.22-11.57-10.03-11.57-6.83,0-12.12,4.63-12.12,13.56v33.62h-15.43v-58.64h14.77v8.6h.22c2.09-3.53,6.5-10.14,17.64-10.14s20.39,6.72,20.39,19.62v40.56Z" style="fill: #26225d;"/>
        <path d="M928.95,464.91h-15.43v-14.33h15.43v14.33ZM928.95,471.86v58.64h-15.43v-58.64h15.43Z" style="fill: #26225d;"/>
        <path d="M975.25,530.5h-16.2l-21.05-58.64h17.2l12.12,43.21h.22l12.46-43.21h16.42l-21.16,58.64Z" style="fill: #26225d;"/>
        <path d="M1055.38,513.3c-4.08,14.11-15.76,18.74-25.79,18.74-16.53,0-29.21-7.94-29.21-32.08,0-7.05,2.42-29.65,28.11-29.65,11.57,0,27.56,5.51,27.56,32.3v2.76h-40.23c.44,4.41,1.32,14.33,13.78,14.33,4.3,0,8.71-2.2,9.92-6.39h15.87ZM1040.17,495.34c-.88-9.48-6.94-12.35-11.91-12.35-7.27,0-11.13,4.63-12.01,12.35h23.92Z" style="fill: #26225d;"/>
        <path d="M1066.18,471.86h14.77v10.14h.22c3.2-5.95,6.72-11.68,16.09-11.68.99,0,1.98.11,2.98.22v15.65c-1.32-.22-2.98-.22-4.41-.22-12.01,0-14.22,7.5-14.22,14v30.53h-15.43v-58.64Z" style="fill: #26225d;"/>
        <path d="M1142.34,489.71c-.66-3.75-1.98-7.72-10.36-7.72s-9.48,3.2-9.48,5.73c0,9.26,36.71,2.54,36.71,24.14,0,17.09-16.53,20.17-25.68,20.17-13.34,0-27.78-4.63-28.22-20.28h15.87c0,4.96,3.09,8.6,12.79,8.6,7.94,0,9.81-3.86,9.81-6.06,0-9.81-36.38-2.42-36.38-24.36,0-8.6,5.4-19.62,23.7-19.62,11.46,0,25.13,2.87,26.34,19.4h-15.1Z" style="fill: #26225d;"/>
        <path d="M1186.32,464.91h-15.43v-14.33h15.43v14.33ZM1186.32,471.86v58.64h-15.43v-58.64h15.43Z" style="fill: #26225d;"/>
        <path d="M1218.39,471.86h9.59v11.02h-9.59v31.86c0,3.42.11,4.74,6.39,4.74.99,0,2.09-.11,3.2-.22v11.68c-2.42.11-4.85.22-7.27.22h-1.98c-13.34,0-15.76-5.07-15.76-12.68v-35.6h-7.94v-11.02h7.94v-15.87h15.43v15.87Z" style="fill: #26225d;"/>
        <path d="M1269.87,529.51c-7.27,21.72-9.26,24.58-22.71,24.58-2.09,0-4.74-.11-6.94-.22v-12.35c.66.11,1.65.22,2.98.22,5.62,0,8.71-.77,10.14-8.82l-21.6-61.07h17.2l12.57,43.21h.22l12.01-43.21h16.31l-20.17,57.65Z" style="fill: #26225d;"/>
      </g>
      <g>
        <path d="M830.75,502.83c0,20.83-12.57,29.76-32.52,29.76-7.28,0-18.08-1.76-25.13-9.59-4.3-4.85-5.95-11.24-6.17-19.18v-52.47h16.87v51.37c0,11.02,6.39,15.87,14.11,15.87,11.35,0,15.98-5.51,15.98-15.1v-52.14h16.87v51.48Z" style="fill: #c02026;"/>
        <path d="M898.75,530.5h-15.43v-35.6c0-4.3-.22-11.57-10.03-11.57-6.83,0-12.12,4.63-12.12,13.56v33.62h-15.43v-58.64h14.77v8.6h.22c2.09-3.53,6.5-10.14,17.64-10.14s20.39,6.72,20.39,19.62v40.56Z" style="fill: #c02026;"/>
        <path d="M928.95,464.91h-15.43v-14.33h15.43v14.33ZM928.95,471.86v58.64h-15.43v-58.64h15.43Z" style="fill: #c02026;"/>
        <path d="M975.25,530.5h-16.2l-21.05-58.64h17.2l12.12,43.21h.22l12.46-43.21h16.42l-21.16,58.64Z" style="fill: #c02026;"/>
        <path d="M1055.38,513.3c-4.08,14.11-15.76,18.74-25.79,18.74-16.53,0-29.21-7.94-29.21-32.08,0-7.05,2.42-29.65,28.11-29.65,11.57,0,27.56,5.51,27.56,32.3v2.76h-40.23c.44,4.41,1.32,14.33,13.78,14.33,4.3,0,8.71-2.2,9.92-6.39h15.87ZM1040.17,495.34c-.88-9.48-6.94-12.35-11.91-12.35-7.27,0-11.13,4.63-12.01,12.35h23.92Z" style="fill: #c02026;"/>
        <path d="M1066.18,471.86h14.77v10.14h.22c3.2-5.95,6.72-11.68,16.09-11.68.99,0,1.98.11,2.98.22v15.65c-1.32-.22-2.98-.22-4.41-.22-12.01,0-14.22,7.5-14.22,14v30.53h-15.43v-58.64Z" style="fill: #c02026;"/>
        <path d="M1142.34,489.71c-.66-3.75-1.98-7.72-10.36-7.72s-9.48,3.2-9.48,5.73c0,9.26,36.71,2.54,36.71,24.14,0,17.09-16.53,20.17-25.68,20.17-13.34,0-27.78-4.63-28.22-20.28h15.87c0,4.96,3.09,8.6,12.79,8.6,7.94,0,9.81-3.86,9.81-6.06,0-9.81-36.38-2.42-36.38-24.36,0-8.6,5.4-19.62,23.7-19.62,11.46,0,25.13,2.87,26.34,19.4h-15.1Z" style="fill: #c02026;"/>
        <path d="M1186.32,464.91h-15.43v-14.33h15.43v14.33ZM1186.32,471.86v58.64h-15.43v-58.64h15.43Z" style="fill: #c02026;"/>
        <path d="M1218.39,471.86h9.59v11.02h-9.59v31.86c0,3.42.11,4.74,6.39,4.74.99,0,2.09-.11,3.2-.22v11.68c-2.42.11-4.85.22-7.27.22h-1.98c-13.34,0-15.76-5.07-15.76-12.68v-35.6h-7.94v-11.02h7.94v-15.87h15.43v15.87Z" style="fill: #c02026;"/>
        <path d="M1269.87,529.51c-7.27,21.72-9.26,24.58-22.71,24.58-2.09,0-4.74-.11-6.94-.22v-12.35c.66.11,1.65.22,2.98.22,5.62,0,8.71-.77,10.14-8.82l-21.6-61.07h17.2l12.57,43.21h.22l12.01-43.21h16.31l-20.17,57.65Z" style="fill: #c02026;"/>
      </g>
    </g>
    <rect x="703.3" y="111.43" width="7.95" height="428.01" style="fill: #26225d;"/>
    <path d="M326.14,0C146.02,0,0,146.02,0,326.14s146.02,326.14,326.14,326.14,326.14-146.02,326.14-326.14S506.26,0,326.14,0M326.14,648.86C147.91,648.86,3.42,504.37,3.42,326.14S147.91,3.42,326.14,3.42s322.72,144.48,322.72,322.72-144.48,322.72-322.72,322.72" style="fill: #26225d;"/>
    <path d="M189.72,546.66c2.3,1.29,4.3,2.41,6.63,3.72v21.27l.77.21c2.95-5.24,5.9-10.48,8.99-15.98,2.06,1.14,3.95,2.19,6.04,3.35-5.21,9.31-10.28,18.39-15.31,27.37-.46-.03-.67.02-.81-.07-1.76-1-4.13-1.62-5.09-3.13-.94-1.49-.52-3.88-.55-5.88-.08-4.45-.06-8.89-.1-13.34,0-.91-.1-1.83-.15-2.74-.2-.06-.41-.12-.61-.18-3.05,5.41-6.09,10.82-9.28,16.5-1.98-1.11-3.8-2.12-6-3.35,5.05-9.27,10.21-18.27,15.45-27.75" style="fill: #26225d;"/>
    <path d="M352.94,616.54c-2.46.26-4.62.48-7.19.74-1.09-10.5-2.15-20.73-3.25-31.27,1.06-.2,2.06-.46,3.07-.58,3.74-.42,7.49-.8,11.23-1.16.86-.08,1.74-.07,2.6-.1,3.88-.16,6.76,1.51,8.44,4.97,1.71,3.52,1.38,6.92-1.13,10.03-.18.22-.33.47-.6.86,2.67,2.06,3.11,5.05,3.48,8.16.24,2.03,1.01,3.99,1.62,6.29-2.31.5-4.78.92-7.72.81-.43-2.11-.87-4.15-1.27-6.21-.18-.94-.26-1.91-.46-2.85-.33-1.56-1.42-2.31-2.93-2.24-2.19.1-4.38.36-6.9.59.34,4.02.64,7.74,1,11.96M350.48,591.55c.27,2.4.52,4.56.8,6.99,2.85-.36,5.44-.55,7.97-1.06,1.84-.37,2.45-1.55,2.3-3.46-.15-1.92-.98-3.19-2.66-3.27-2.76-.14-5.53.1-8.42.81" style="fill: #26225d;"/>
    <path d="M413.01,582.57c-2.29.66-4.32,1.24-6.29,1.8-.25-.14-.46-.19-.57-.33-2.39-3.21-5.73-3.71-9.03-1.33-1.1.79-1.81,1.76-1.49,3.19.35,1.56,1.59,1.82,2.9,1.82,2.61-.01,5.22-.08,7.83-.12.87-.01,1.75-.03,2.61.01,6.82.3,10.71,6.9,7.73,13.11-3.17,6.61-15.09,9.72-21.05,5.48-1.97-1.4-3.21-3.29-3.8-6.05,2.17-.63,4.33-1.25,6.4-1.85,3.07,3.87,5.76,4.42,9.92,2.19,1.82-.98,2.6-2.16,2.37-3.59-.24-1.51-1.22-2.25-3.5-2.34-1.63-.07-3.28.18-4.92.17-2.41-.03-4.82-.06-7.21-.31-1.91-.2-3.37-1.35-4.49-2.92-2.9-4.09-2.29-9.96,1.58-13.11,3.88-3.15,8.43-4.29,13.35-3.35,3.94.76,6.44,3.26,7.66,7.53" style="fill: #26225d;"/>
    <path d="M299.17,584.6c7.97.52,15.47,1.01,23.13,1.52.39,2.23.19,4.25-.36,6.42-5.28-.33-10.37-.65-15.8-.99-.17,1.74-.33,3.3-.53,5.29,4.96.4,9.71.78,14.49,1.16v6.18c-5.01-.29-9.77-.56-14.81-.85-.16,2.3-.31,4.37-.48,6.75,5.66.43,11.09.84,16.51,1.24v6.38c-8.11-.3-15.93-1.03-24.21-1.51.69-10.55,1.36-20.89,2.06-31.6" style="fill: #26225d;"/>
    <path d="M173.24,535.55c-4.75,5.76-9.08,11.33-13.76,16.59-4.42,4.97-9.54,5.46-15,1.67-1.88-1.3-3.63-2.92-5.06-4.7-2.72-3.4-3.05-7.21-.92-11.09.6-1.09,1.27-2.18,2.05-3.15,3.81-4.74,7.67-9.44,11.5-14.17.36-.45.56-1.03.89-1.66,2.35,1.9,4.13,3.34,6.07,4.91-.58.81-1.02,1.51-1.55,2.16-3.22,3.98-6.47,7.94-9.7,11.9-.61.75-1.23,1.5-1.77,2.29-2.37,3.52-1.08,7.14,2.98,8.41,1.4.44,2.72.24,3.81-.72,1.01-.89,1.95-1.87,2.81-2.91,3.87-4.68,7.7-9.4,11.74-14.34,1.95,1.59,3.78,3.08,5.9,4.81" style="fill: #26225d;"/>
    <path d="M263.79,610.54c-2.34-.54-4.4-1.01-6.63-1.52-1.03-10.99-2.06-21.83-3.11-32.96,2.71-.04,4.92.89,7.6,1.45.38,7.13.76,14.3,1.14,21.47.2.06.4.13.61.19,3.49-6.16,6.98-12.33,10.6-18.7,2.4.54,4.72,1.07,7.54,1.71-5.91,9.62-11.82,18.84-17.75,28.37" style="fill: #26225d;"/>
    <path d="M504.98,533.04c-1.26-4.57-2.4-8.72-3.6-13.11,1.95-1.65,3.91-3.32,6.12-5.2.33.89.62,1.45.75,2.05,1.32,5.94,2.56,11.89,3.94,17.81.27,1.16.87,2.35,1.61,3.29,1.96,2.5,4.08,4.88,6.35,7.56-1.82,1.59-3.52,3.08-5.49,4.8-.84-.93-1.71-1.67-2.32-2.59-3.22-4.9-7.75-7.78-13.35-9.43-4.33-1.28-8.5-3.14-13.08-4.88,1.87-2.11,3.93-3.65,5.95-5.18.42-.32,1.47-.06,2.11.21,2.85,1.19,5.65,2.5,8.48,3.74.67.3,1.38.51,2.54.93" style="fill: #26225d;"/>
    <path d="M462.58,555.95c-2.8,1.65-5.19,3.06-7.84,4.63-1.14-1.83-2.18-3.5-3.38-5.43,7.4-4.47,14.63-8.83,22.11-13.35,1.15,1.88,2.18,3.58,3.34,5.47-2.65,1.63-5.09,3.13-7.84,4.83,4.35,7.23,8.59,14.3,13,21.64-2.13,1.3-4.05,2.47-6.26,3.82-4.42-7.29-8.7-14.33-13.12-21.61" style="fill: #26225d;"/>
    <path d="M435.2,562.75c4.3,9.87,8.46,19.4,12.7,29.15-2.29,1.01-4.38,1.93-6.79,2.99-4.24-9.72-8.39-19.25-12.68-29.07,2.23-1.01,4.3-1.95,6.77-3.07" style="fill: #26225d;"/>
    <path d="M230.3,567.05c2.42.95,4.46,1.74,6.88,2.68-3.82,9.88-7.57,19.61-11.41,29.56-2.39-.91-4.51-1.72-6.9-2.63,3.83-9.91,7.56-19.58,11.44-29.6" style="fill: #26225d;"/>
    <path d="M122.73,139.64c5.56-.92,9.81,1.66,11.07,6.91.57,2.34.36,4.68-1,6.69-1.4,2.07-2.99,4.03-4.58,5.96-2.24,2.72-4.57,5.37-6.86,8.05-.06.07-.16.11-.42.29-7.94-6.78-15.92-13.6-24-20.5,3.05-3.57,5.99-7.07,9.01-10.51,1.14-1.3,2.33-2.61,3.71-3.63,4.11-3.02,9.64-1.73,12.01,2.79.6,1.15.7,2.55,1.06,3.95M115.27,153.49c1.99,1.7,3.78,3.22,5.69,4.85,1.89-2.28,3.78-4.4,5.47-6.66,1.3-1.74.9-3.55-.8-4.97-1.54-1.28-3.06-1.29-4.62.31-1.97,2.03-3.77,4.23-5.75,6.47M110.85,149.72c1.92-2.43,3.86-4.69,5.56-7.12.92-1.33.5-2.53-.77-3.54-1.21-.97-2.35-1.09-3.5.05-2.07,2.06-3.98,4.29-6.04,6.54,1.65,1.42,3.1,2.66,4.75,4.09" style="fill: #26225d;"/>
    <path d="M603.31,361.21c.18-2.45.35-4.7.52-6.92,4.02-1.33,5.62-3.34,5.72-7.09.08-3.16-2-6.11-5.37-7.35-3.29-1.21-6.71-1.5-10.12-.63-3.41.86-5.58,4.16-5.49,7.95.08,3.28,2.12,5.88,5.4,6.69.19-2.22.38-4.41.59-6.85,1.92.13,3.81.25,5.85.39-.16,2.32-.3,4.56-.46,6.8-.17,2.21-.36,4.41-.55,6.8-5.8-.43-11.46-.86-17.22-1.29.07-1.27.18-2.46.17-3.65,0-1.13.49-1.56,1.58-1.49.5.03,1.02-.1,1.6-.16-.09-.28-.1-.43-.17-.53-6.38-8.47-1.83-20.15,8.65-22.15,3.92-.74,7.81-.44,11.58.88,7.06,2.47,10.91,9,9.9,16.43-.62,4.55-2.39,8.33-6.5,10.72-1.69.99-3.52,1.51-5.68,1.44" style="fill: #26225d;"/>
    <path d="M214.79,57.73c2.1-.93,4.07-1.8,6.22-2.75,4.25,9.68,8.47,19.29,12.78,29.08-2.05.9-4.03,1.84-6.08,2.62-.38.14-1.07-.27-1.5-.59-5.43-4.02-10.85-8.07-16.27-12.12-.38-.28-.78-.55-1.46-.66,2.64,6.05,5.29,12.09,8.02,18.32-2.04.91-4.04,1.8-6.21,2.76-4.26-9.69-8.48-19.3-12.78-29.07,2.15-.95,4.23-1.93,6.37-2.77.34-.13.98.24,1.37.53,5.3,3.95,10.59,7.94,15.88,11.91.4.3.81.58,1.49.64-2.6-5.93-5.19-11.86-7.83-17.9" style="fill: #26225d;"/>
    <path d="M563.1,222.84c-1.01-2.03-2-3.9-2.85-5.84-.17-.38.11-1.09.39-1.5,3.79-5.72,7.62-11.41,11.44-17.11.29-.44.57-.89.68-1.6-6.01,2.97-12.02,5.95-18.14,8.99-1-2.01-1.97-3.94-3.02-6.06,9.49-4.72,18.89-9.39,28.49-14.16,1.06,2.13,2.12,4.17,3.06,6.26.15.32-.21.97-.47,1.37-3.71,5.54-7.44,11.06-11.17,16.59-.29.43-.56.88-.65,1.6,5.84-2.89,11.69-5.78,17.7-8.76,1,2,1.97,3.96,3.02,6.06-9.48,4.71-18.88,9.39-28.47,14.15" style="fill: #26225d;"/>
    <path d="M393.47,43.49c2.27.64,4.41,1.2,6.51,1.89.37.12.69.75.8,1.2,1.62,6.51,3.2,13.03,4.79,19.54.13.55.28,1.09.77,1.68,1.81-6.3,3.63-12.59,5.49-19.05,2.18.62,4.29,1.23,6.47,1.85-2.92,10.21-5.81,20.3-8.75,30.54-2.13-.6-4.19-1.11-6.18-1.8-.42-.15-.76-.92-.9-1.46-1.72-6.83-3.39-13.67-5.08-20.51-.09-.35-.22-.69-.46-1.45-1.97,6.84-3.83,13.31-5.74,19.95-2.16-.61-4.22-1.19-6.48-1.83,2.92-10.2,5.82-20.32,8.75-30.55" style="fill: #26225d;"/>
    <path d="M38.6,282.69c.83-4.33,1.62-8.54,2.47-12.73.35-1.74.71-3.51,1.31-5.18,1.32-3.66,4.24-5.33,7.93-5.52,3.74-.19,7.48,2.12,8.33,4.91.05.17.21.31.39.54,2.04-2.36,4.68-2.04,7.29-1.69,1.53.2,3.04.58,4.56.74.62.06,1.29-.24,1.93-.38.54-.11,1.08-.23,1.89-.4-.51,2.68-.91,5.01-1.43,7.3-.07.3-.82.66-1.23.63-2.02-.14-4.03-.39-6.04-.62-.24-.03-.47-.12-.71-.15-3.38-.51-4.33.15-5.02,3.51-.37,1.8-.69,3.6-1.04,5.4,0,.04.01.1.05.33,3.84.76,7.75,1.52,11.81,2.32-.45,2.35-.89,4.6-1.34,6.98-10.41-2.01-20.71-4-31.14-6.02M53.43,278.3c.48-2.9,1.05-5.63,1.34-8.4.19-1.8-.9-2.83-2.84-3.22-2.13-.43-3.67.1-4.17,1.85-.77,2.66-1.25,5.41-1.89,8.28,2.57.51,4.92.97,7.56,1.49" style="fill: #26225d;"/>
    <path d="M584.71,254.76c-8.54.02-13.83-4.64-15.45-12.66-1.21-5.97.91-11.36,6.02-14.68,4.8-3.11,10.04-4.76,15.81-3.65,3.77.72,6.79,2.74,8.75,6.12,1.93,3.33,3.06,6.9,2.72,10.78-.36,4.13-2.41,7.4-5.76,9.79-3.91,2.79-8.34,4.15-12.08,4.32M584.32,247.59c3.07-.34,6.65-1.33,9.51-4.07,2.04-1.96,2.76-4.37,1.99-7.13-.77-2.81-2.45-4.83-5.38-5.47-4.34-.95-8.22.42-11.71,2.89-3.1,2.2-4.01,5.42-2.81,8.8,1.16,3.28,3.91,5.08,8.4,4.99" style="fill: #26225d;"/>
    <path d="M81.8,240.43c-9.96-4.05-19.64-7.99-29.41-11.96.13-.43.2-.79.34-1.13,1.52-3.75,3.02-7.52,4.58-11.25,2.96-7.15,7.93-9.73,15.49-8.02,4.93,1.12,9.23,3.37,12.49,7.34,2.46,3,3.44,6.51,2.23,10.17-1.64,4.97-3.74,9.79-5.71,14.86M78.64,231.52c.7-1.69,1.36-3.23,1.97-4.79,1.28-3.25.72-5.64-1.96-7.88-2.86-2.39-6.22-3.64-9.88-4.11-1.65-.21-3.4.08-4.28,1.54-1.49,2.48-2.65,5.15-4,7.85,6.24,2.54,12.08,4.92,18.15,7.39" style="fill: #26225d;"/>
    <path d="M68.52,310.42c.23,10.75-7.49,15.31-15.2,15.43-3.22.05-6.39-.19-9.38-1.44-5.43-2.28-8.57-6.25-8.86-12.27-.26-5.55.96-10.46,5.79-13.9,6.37-4.53,18.35-3.51,23.87,2.01,2.87,2.87,3.89,6.35,3.78,10.17M52.47,319.02c1.89-.49,3.9-.71,5.65-1.51,4.99-2.28,5.75-8.98,1.55-12.5-3.51-2.95-11.59-3.28-15.34-.64-3.73,2.63-4.19,8.2-.91,11.4,2.5,2.44,5.7,2.83,9.06,3.25" style="fill: #26225d;"/>
    <path d="M616,308.06c.07,7-3.7,12.1-10.44,14.06-3.92,1.14-7.9,1.31-11.89.47-6.05-1.28-9.88-5.51-10.97-11.98-1.39-8.33,2.82-15.09,10.75-17.18,3.35-.88,6.77-1.09,10.2-.57,2.62.4,5.03,1.33,7.11,3.04,3.63,2.98,5.18,6.56,5.24,12.17M599.02,316.17c1.85-.49,4.32-.85,6.53-1.79,2.98-1.27,4.41-3.82,4.2-7.11-.21-3.32-1.92-5.64-5.06-6.73-3.97-1.38-7.92-1.03-11.69.71-2.95,1.36-4.54,4.29-4.26,7.28.33,3.51,2.19,5.87,5.53,6.82,1.33.38,2.74.49,4.74.83" style="fill: #26225d;"/>
    <path d="M430.39,54.87c5.02,2.29,10.03,4.32,14.8,6.83,4.59,2.41,6.12,6.73,5.53,11.67-.62,5.28-2.85,9.91-6.69,13.65-3.84,3.75-8.36,4.69-13.33,2.7-4.16-1.66-8.23-3.56-12.34-5.35-.21-.1-.4-.25-.7-.44,4.22-9.65,8.44-19.27,12.72-29.05M426.56,81.17c1.67.74,3.24,1.45,4.82,2.13,3.22,1.38,5.7.84,8.04-1.81,2.26-2.56,3.55-5.61,4.16-8.93.38-2.07.28-4.22-1.74-5.43-2.36-1.42-4.9-2.54-7.46-3.84-2.68,6.12-5.22,11.93-7.83,17.88" style="fill: #26225d;"/>
    <path d="M509.1,109.15c-1.33,1.52-2.53,2.89-3.83,4.38,3.79,3.32,7.52,6.57,11.31,9.88-1.4,1.6-2.69,3.08-4.06,4.65-3.79-3.29-7.49-6.51-11.32-9.85-1.56,1.79-3.06,3.52-4.65,5.33,4.35,3.8,8.59,7.5,12.89,11.26-1.42,1.62-2.78,3.18-4.19,4.8-6.11-5.32-12.15-10.58-18.29-15.94,6.99-8.02,13.89-15.94,20.88-23.96,5.92,5.15,11.74,10.22,17.72,15.43-1.37,1.59-2.71,3.13-4.1,4.75-4.13-3.59-8.17-7.1-12.35-10.74" style="fill: #26225d;"/>
    <path d="M256.13,44.11c.61,2.07,1.16,3.96,1.75,5.96-5.23,1.54-10.39,3.06-15.68,4.61.54,1.85,1.04,3.6,1.61,5.53,4.79-1.39,9.5-2.76,14.4-4.18.58,1.93,1.14,3.84,1.75,5.87-4.8,1.41-9.51,2.8-14.4,4.23.67,2.3,1.3,4.5,1.98,6.85,5.48-1.6,10.84-3.16,16.4-4.78.6,1.97,1.18,3.93,1.84,6.09-7.76,2.27-15.45,4.52-23.3,6.82-2.98-10.21-5.91-20.23-8.89-30.41,7.52-2.2,14.95-4.38,22.55-6.6" style="fill: #26225d;"/>
    <path d="M177.1,88.35c-.33.27-.54.47-.77.63-1.59,1.09-3.18,2.18-4.75,3.25-3.48-2.8-8.08-1.77-10.14,2.22-.59,1.14-.58,2.22.22,3.25.76.98,1.8,1.11,2.87.73,2.82-1,5.57-2.19,8.43-3.05,2.04-.61,4.26-1.29,6.32-1.1,4.82.45,8.19,5.9,7.14,10.95-1.42,6.86-11,12.99-17.8,11.39-2.37-.56-4.56-2.25-5.8-4.52,1.81-1.25,3.64-2.51,5.3-3.66,1.23.68,2.27,1.59,3.46,1.85,2.73.59,7.56-2.68,8.34-5.4.63-2.2-1.09-4.11-3.31-3.49-2.18.6-4.27,1.52-6.4,2.28-1.59.57-3.16,1.23-4.79,1.63-5.19,1.28-9.83-1.85-10.78-7.14-.45-2.49-.12-4.88,1.32-6.93,3.23-4.59,7.5-7.46,13.33-7.4,3.37.03,5.82,1.73,7.81,4.52" style="fill: #26225d;"/>
    <path d="M303,58.02c1.41-.07,2.76-.16,4.1-.21.81-.03,1.63,0,2.5,0,.08.21.16.38.2.55.76,2.91,1.78,3.97,4.8,4.1,1.87.08,3.81-.29,5.65-.75,1.31-.33,1.98-1.52,1.97-2.91-.01-1.43-.95-2.22-2.21-2.52-2.95-.71-5.93-1.32-8.89-1.97-.52-.11-1.03-.24-1.55-.37-3.44-.91-5.91-2.83-6.53-6.54-.64-3.83.35-7.1,3.43-9.58,4.44-3.57,13.45-3.4,17.8.3,2.23,1.91,3.26,4.37,3.35,7.52-2.11.08-4.21.18-6.3.19-.24,0-.61-.53-.68-.87-.4-1.75-1.49-2.78-3.18-3.21-1.97-.51-3.92-.48-5.81.32-1.31.56-2.16,1.51-2.08,3,.08,1.43,1.1,2.1,2.36,2.38,3.06.69,6.13,1.29,9.19,1.98,3.21.72,6.1,1.92,7.42,5.31,1.84,4.74-.21,10.12-4.99,12.32-4.88,2.24-9.95,2.28-14.9.22-3.84-1.6-6.02-5.3-5.66-9.25" style="fill: #26225d;"/>
    <path d="M292.98,47.64c-2.27.38-4.44.73-6.6,1.09-2.03-3.95-5.7-5.02-9.61-2.84-1.42.79-2.08,1.97-1.87,3.28.26,1.61,1.45,2.09,2.81,2.23,3.26.33,6.54.58,9.81.87,4.28.38,6.97,2.32,8.04,5.76,1.23,3.98.17,8.18-3.12,10.57-5.11,3.72-10.84,4.49-16.77,2.36-3.56-1.28-5.39-4.17-5.88-8.06,2.28-.37,4.45-.72,6.69-1.09.2.46.33.86.54,1.23.3.54.58,1.14,1,1.58,2.12,2.26,9.2,1.35,10.76-1.36.96-1.68.24-3.72-1.71-4.05-2.75-.47-5.56-.6-8.34-.88-1.1-.11-2.21-.2-3.31-.38-3.52-.57-5.92-2.42-6.84-5.99-1.02-3.97-.14-7.4,2.98-10.09,4.2-3.62,12.01-4.28,16.81-1.52,2.46,1.42,3.98,3.75,4.61,7.28" style="fill: #26225d;"/>
    <path d="M559.43,175.25c3.28-2.21,6.44-4.33,9.77-6.58,1.34,1.96,2.66,3.89,4.05,5.92-8.75,5.91-17.47,11.79-26.27,17.74-1.34-1.98-2.63-3.89-4.01-5.94,3.81-2.59,7.54-5.12,11.36-7.71-2.12-3.15-4.17-6.18-6.29-9.32-3.84,2.58-7.58,5.1-11.4,7.66-1.35-1.99-2.64-3.9-4.02-5.94,8.77-5.92,17.47-11.79,26.25-17.72,1.38,2.04,2.67,3.94,4.02,5.94-3.27,2.22-6.46,4.38-9.77,6.62,2.12,3.14,4.18,6.2,6.3,9.34" style="fill: #26225d;"/>
    <path d="M122.69,118.47c1.8-1.62,3.55-3.19,5.6-5.05.33.48.58.96.93,1.34,3.89,4.36,7.8,8.7,11.71,13.05.32.36.65.71,1,1.05,3.37,3.32,7.44,2.58,9.5-1.72.72-1.51.45-2.97-.49-4.24-1.18-1.58-2.46-3.1-3.77-4.58-3.56-4.01-7.15-7.98-10.84-12.09,1.82-1.64,3.6-3.23,5.44-4.9,3.22,3.58,6.4,7.09,9.54,10.62,1.67,1.87,3.4,3.7,4.93,5.69,3.99,5.19,3.67,10.44-1,15.06-1.56,1.55-3.32,2.98-5.22,4.07-3.98,2.26-7.95,1.87-11.43-1.11-2.01-1.72-3.77-3.73-5.56-5.68-3.45-3.78-6.84-7.6-10.33-11.5" style="fill: #26225d;"/>
    <path d="M378.52,72.6c-2.4-.34-4.73-.63-7.04-1.04-.28-.05-.58-.69-.66-1.11-.31-1.51-.48-3.05-.83-4.55-.1-.43-.61-1.02-1-1.09-2.95-.5-5.93-.85-8.88-1.33-.81-.13-1.12.21-1.42.84-.68,1.44-1.4,2.86-2.14,4.27-.16.29-.53.71-.76.68-2.34-.29-4.66-.67-7.16-1.04,1.76-3.33,3.42-6.47,5.09-9.62,3.37-6.35,6.76-12.7,10.1-19.06.42-.8.85-1.12,1.79-.94,1.94.36,3.92.56,5.86.92.35.06.85.5.92.84,2.09,10.5,4.14,21.01,6.18,31.53.03.17-.02.36-.04.72M368.83,58.56c-.6-3.61-1.17-6.97-1.74-10.32-.12,0-.23,0-.35-.01-1.52,3.04-3.03,6.08-4.66,9.33,2.3.34,4.37.65,6.74,1" style="fill: #26225d;"/>
    <path d="M109.05,184.64c-1.16,2.03-2.25,4.03-3.45,5.94-.21.34-.95.55-1.4.49-1.47-.22-2.93-.57-4.38-.93-.77-.19-1.23-.05-1.64.7-1.41,2.58-2.93,5.11-4.33,7.7-.2.36-.11,1.12.15,1.45,1.02,1.28,2.2,2.44,3.25,3.7.23.28.35.91.19,1.21-1.04,1.95-2.17,3.86-3.35,5.94-.41-.44-.74-.76-1.05-1.11-6.7-7.81-13.39-15.63-20.13-23.42-.64-.73-.8-1.26-.25-2.12,1.01-1.58,1.85-3.28,2.86-4.87.24-.37.92-.74,1.32-.67,10.5,1.87,20.99,3.79,31.48,5.71.22.04.43.17.73.29M82.13,186.39c-.05.1-.1.19-.15.29,2.3,2.55,4.61,5.11,7.04,7.82,1.15-2.02,2.21-3.87,3.38-5.92-3.56-.76-6.92-1.47-10.27-2.19" style="fill: #26225d;"/>
    <path d="M536.54,157.11c-4.94,4.16-12.78,3.54-17.34-1.25-5.42-5.69-5.87-12.72-1-18.88,3.53-4.46,7.83-7.97,13.79-8.46,1.82-.15,3.8.1,5.53.67,8,2.64,12.01,12.3,8.11,19.31-.5.9-1.22,1.68-1.94,2.65-1.58-1.77-3.05-3.3-4.36-4.96-.25-.32,0-1.22.26-1.73,1.95-3.88-.53-8.62-4.87-9.1-.93-.1-1.97-.01-2.85.3-4.16,1.48-7.4,4.16-9.44,8.1-1.41,2.71-.91,5.38,1.11,7.48,1.95,2.03,4.22,2.41,7.15,1.06.85-.39,1.34-.36,1.94.39,1.22,1.49,2.55,2.9,3.9,4.41" style="fill: #26225d;"/>
    <path d="M44.8,366.76c.92,4.84,1.85,9.47,2.67,14.12.17.99.55,1.18,1.43.99,1.6-.35,3.2-.64,4.98-.99-.83-4.47-1.65-8.86-2.5-13.4,1.97-.37,3.88-.73,5.95-1.13.86,4.47,1.69,8.81,2.57,13.37,4.26-.79,8.44-1.56,12.75-2.36.45,2.36.88,4.58,1.36,7.03-10.32,1.96-20.57,3.91-31.07,5.91-1.41-7.43-2.81-14.79-4.25-22.35,2.03-.4,4-.79,6.12-1.2" style="fill: #26225d;"/>
    <path d="M606.5,399.98c-3.93-3.3-7.95-6.16-11.32-9.63-4.22-4.34-9.39-5.94-15.04-6.78-.8-.12-1.59-.34-2.5-.54.5-2.35.97-4.6,1.48-7.03,2.68.55,5.3.94,7.83,1.65,2.56.72,4.93.57,7.46-.28,5.58-1.86,11.24-3.48,16.87-5.19.31-.1.64-.16,1.15-.28-.54,2.62-1.01,5.11-1.62,7.56-.1.39-.77.79-1.24.91-4.1,1.04-8.23,2.02-12.69,3.1.63.51,1.04.86,1.47,1.18,2.99,2.21,6.01,4.38,8.97,6.64.4.3.77,1.04.69,1.5-.4,2.32-.95,4.61-1.5,7.18" style="fill: #26225d;"/>
    <path d="M474.72,83.95c1.19-1.74,2.3-3.37,3.51-5.15,7.13,4.85,14.17,9.65,21.32,14.52-1.18,1.73-2.31,3.39-3.5,5.15-2.57-1.74-5.04-3.41-7.69-5.21-4.78,7-9.51,13.95-14.33,21.01-1.99-1.35-3.89-2.64-5.95-4.04,4.77-7.02,9.51-13.98,14.31-21.04-2.56-1.75-5.02-3.43-7.67-5.24" style="fill: #26225d;"/>
    <path d="M587.59,287c-2.11.41-3.99.78-6.1,1.2-1.46-7.43-2.9-14.79-4.38-22.3,10.38-2.03,20.68-4.05,31.14-6.09.47,2.36.92,4.61,1.4,7.06-8.32,1.64-16.53,3.25-24.99,4.91.97,5.05,1.93,10.04,2.93,15.22" style="fill: #26225d;"/>
    <path d="M62,348.45c-.37-5.21-.73-10.25-1.1-15.47,2.1-.16,4.09-.32,6.26-.48.55,7.56,1.1,15,1.66,22.66-10.58.78-21.01,1.54-31.62,2.32-.18-2.22-.39-4.37-.5-6.52-.01-.22.52-.66.82-.68,6.74-.52,13.49-1,20.23-1.49,1.34-.1,2.68-.21,4.25-.34" style="fill: #26225d;"/>
    <path d="M79.16,248.74c-.71,2.36-1.37,4.57-2.07,6.91-10.17-3.02-20.23-6.01-30.46-9.05.68-2.33,1.34-4.56,2.04-6.92,10.19,3.02,20.26,6.01,30.49,9.05" style="fill: #26225d;"/>
    <path d="M180.93,74.42c2.09-1.17,4.09-2.3,6.27-3.52,5.2,9.26,10.35,18.45,15.57,27.73-2.1,1.18-4.11,2.32-6.27,3.53-5.18-9.23-10.34-18.42-15.57-27.74" style="fill: #26225d;"/>
    <path d="M326.36,640.06c-172.28.34-313.84-139.79-313.77-314C12.64,152.98,153.69,10.55,329.99,12.46c172.63,1.86,311.5,142.89,310.28,316.08-1.23,173.54-142.7,311.95-313.91,311.52M631.56,326.36c.2-167.76-135.4-303.16-301.23-305.24C161.49,19,21.54,155.14,21.26,325.78c-.28,167.77,134.71,303.86,301.71,305.66,171.45,1.85,308.83-136.91,308.59-305.08" style="fill: #26225d;"/>
    <path d="M326.52,570.33c-136.1.01-245.45-111.08-244.12-246.51,1.32-133.87,110.76-242.23,245.26-241.58,134,.64,242.99,109.74,242.8,244.32-.19,134.61-109.32,243.76-243.95,243.76M561.72,326.29c-.19-130.3-105.39-234.47-233.77-235.27-129.27-.81-235.6,102.98-236.77,233.09-1.18,131,104.34,237.18,234.73,237.42,130.3.24,235.81-105.21,235.8-235.24" style="fill: #26225d;"/>
    <path d="M88.04,475.87c-4.57,3.68-9.12,7.34-13.74,11.05.04-.16.04-.26.06-.35,1.14-3.85,2.29-7.68,3.43-11.55.57-1.84,1.11-3.71,1.68-5.54.11-.32.04-.53-.25-.73-2.12-1.69-4.23-3.4-6.32-5.1-2.1-1.69-4.2-3.39-6.31-5.08-.16-.14-.34-.29-.57-.48h16.48c1.84-5.75,3.66-11.5,5.52-17.33.14.43.25.73.35,1.05.9,2.83,1.81,5.66,2.69,8.47.77,2.45,1.58,4.93,2.36,7.43.1.31.24.37.53.37h16.09c-.57.46-1.08.89-1.57,1.28-1.82,1.49-3.63,2.94-5.43,4.42-2.08,1.7-4.17,3.36-6.26,5.06-.25.19-.29.35-.2.66.75,2.47,1.5,4.94,2.23,7.43.86,2.88,1.72,5.76,2.59,8.65.12.42.24.84.31,1.32-4.54-3.67-9.09-7.31-13.67-11.02" style="fill: #c02026; fill-rule: evenodd;"/>
    <path d="M561.95,475.87c-4.57,3.68-9.12,7.34-13.74,11.05.04-.16.04-.26.06-.35,1.14-3.85,2.29-7.68,3.43-11.55.57-1.84,1.11-3.71,1.68-5.54.11-.32.04-.53-.25-.73-2.12-1.69-4.23-3.4-6.32-5.1-2.1-1.69-4.2-3.39-6.31-5.08-.16-.14-.34-.29-.57-.48h16.48c1.84-5.75,3.66-11.5,5.52-17.33.14.43.25.73.34,1.05.9,2.83,1.81,5.66,2.69,8.47.77,2.45,1.59,4.93,2.36,7.43.1.31.23.37.53.37h16.09c-.57.46-1.08.89-1.57,1.28-1.82,1.49-3.63,2.94-5.43,4.42-2.08,1.7-4.17,3.36-6.26,5.06-.25.19-.29.35-.2.66.75,2.47,1.5,4.94,2.23,7.43.86,2.88,1.72,5.76,2.59,8.65.12.42.24.84.31,1.32-4.54-3.67-9.09-7.31-13.66-11.02" style="fill: #c02026; fill-rule: evenodd;"/>
    <g>
      <rect x="245.65" y="430.14" width="157.7" height="9.6" transform="translate(759.44 110.44) rotate(90)" style="fill: #26245d;"/>
      <g>
        <path d="M433.53,272.38v-22.03s-218.05,0-218.05,0v55.77c0,5.74,0,2.47,0,8.21h218.04c0-16.98,0-24.96,0-41.95Z" style="fill: none;"/>
        <path d="M212.34,349.9h227.08c0-7.8,0-20.59,0-28.39h-227.07c0,7.8,0,20.59,0,28.39Z" style="fill: none;"/>
        <path d="M215.49,306.12v-55.77s218.04,0,218.04,0v22.03c0,16.98,0,24.96,0,41.95h9.78c0-16.98,0-24.96,0-41.94v-31.81s-237.6,0-237.6,0v65.55c0,5.73,0,2.47,0,8.2h9.78c0-5.74,0-2.47,0-8.21Z" style="fill: #26245d;"/>
        <path d="M433.53,426.71c0,9.87-4.19,18.57-12.81,26.63-5.94,5.54-13.27,9.68-21.04,14.07-1.27.72-2.54,1.43-3.8,2.16-11.56,6.61-23.11,13.25-34.66,19.88-8.31,4.77-16.63,9.54-24.94,14.31-3.13,1.79-6.29,3.56-9.47,5.34l-2.03,1.14-5.4-3.05c-5.81-3.28-11.58-6.54-17.33-9.84l-14.89-8.53c-15.64-8.96-31.82-18.21-47.62-27.44-16.22-9.47-24.09-22.06-24.07-38.5.02-18.59.01-48.18.01-66.77h-9.78c0,18.58,0,48.17-.01,66.75-.02,19.94,9.71,35.74,28.92,46.96,15.83,9.24,32.03,18.51,47.69,27.48l14.89,8.53c5.76,3.31,11.56,6.58,17.38,9.87l10.18,5.76,6.82-3.82c3.22-1.8,6.41-3.58,9.57-5.39,8.32-4.77,16.63-9.54,24.95-14.31,11.55-6.63,23.09-13.26,34.65-19.87,1.25-.71,2.5-1.42,3.75-2.13,7.93-4.47,16.12-9.1,22.91-15.44,10.56-9.87,15.91-21.23,15.91-33.78,0-19.87,0-50.75,0-70.62h-9.78c0,19.87,0,50.75,0,70.62Z" style="fill: #26245d;"/>
      </g>
      <g>
        <path d="M260.36,170.39v15.91h-17.34v-2.78h-12.55v11.51h8.45v-1.39h12.09v15.91h-12.09v-1.39h-8.45v11.5h4.41v13.14h-27.28v-13.14h4.42v-36.14h-3.61v-13.13h51.94Z" style="fill: #26245d;"/>
        <path d="M319.74,179.11v15.91l-6.06,6.57,6.06,6.57v15.91l-12.12,8.72h-42.63v-13.14h3.6v-36.14h-3.6v-13.13h42.63l12.11,8.72ZM302.4,192.71v-7.38l-2.51-1.81h-12.85v11.51h13.22l2.13-2.31ZM287.05,208.16v11.5h12.85l2.51-1.81v-7.38l-2.13-2.32h-13.22Z" style="fill: #26245d;"/>
        <path d="M381.13,170.48v15.91h-15.59v-2.78h-3.57v36.14h4.41v13.14h-27.28v-13.14h4.41v-36.14h-3.58v2.78h-15.59v-15.91h56.79Z" style="fill: #26245d;"/>
        <path d="M408.6,218.82l1.4,1.01h11.34l1.33-1.02v-35.12h-4.95v-13.13h27.28v13.13h-4.97c0,13.52.02,27.03,0,40.55l-11.41,8.73h-26.34l-12.12-8.73v-40.55h-4.41v-13.13h27.28v13.13h-4.42v35.13Z" style="fill: #26245d;"/>
      </g>
      <g>
        <path d="M364.41,429.03l17.54,6.21c.3.11.47.41.37.67l-.05.14c-.18.47-.62.82-1.17.92l-.87.16c-.11.02-.22.01-.33-.03l-15.37-5.44c-.15-.05-.28-.16-.34-.29l-.37-.7c-.23-.44-.27-.92-.11-1.36h0c.09-.26.42-.39.72-.28Z" style="fill: #26245d;"/>
        <path d="M364.99,432.35l-.11.31c-.19.52-.16,1.1.08,1.63l.63,1.39,11.17,3.96,1.21-.47c.57-.22,1-.63,1.23-1.14l.24-.55-14.45-5.12Z" style="fill: #26245d;"/>
        <path d="M365.96,436.32l-4.28,18.67c.24.42,5.12,2.15,5.58,1.97l8.37-17.22-9.67-3.42Z" style="fill: #26245d;"/>
        <path d="M365.18,438.09l9.83,3.48c.22.08.35.31.27.51l-.4,1.1c-.07.2-.31.3-.54.22l-9.83-3.48c-.22-.08-.35-.31-.27-.51l.4-1.1c.07-.2.31-.3.54-.22Z" style="fill: #26245d;"/>
        <g>
          <path d="M364.04,416.22c-.37-.66-.55-1.48-.64-2.19-.52-4.41,3.1-7.27,7.01-8.98,5.36-2.34,11.39-4.08,16.83-6.31,3.93-1.6,8.62-2.93,10.63-6.6.71,1.27,1.13,2.75.88,4.1-.38,2.09-2.14,3.64-4.14,4.57-3.19,1.48-7.07,2.76-10.42,4.04-2.61,1-5.21,2.01-7.83,2.99-2.03.76-4.04,1.34-5.96,2.32-2.67,1.35-5.48,3.29-6.36,6.06Z" style="fill: #26245d;"/>
          <path d="M399.57,400.22c.06,1.82-.1,3.47-1.09,5.03-.96,1.5-2.56,2.47-4.27,3.23-5.85,2.59-12.47,4.4-18.33,7.01-4.74,2.11-8.22,5.26-8.65,10.27,0,.09-.03.21-.15.11-.1-.08-.65-1.02-.74-1.2-2.9-5.71,2.05-11.07,7.27-13.31,3.85-1.65,8.15-3.02,12.1-4.53,1.65-.63,3.3-1.28,4.94-1.93,2.75-1.08,6.98-2.45,8.72-4.65.07-.08,0-.13.18-.04Z" style="fill: #26245d;"/>
          <path d="M405.74,405.5c.07,1.75-.05,3.4-.98,4.91-1.01,1.64-2.82,2.58-4.67,3.35-5.4,2.26-11.18,3.95-16.59,6.22-2.83,1.19-6.28,3.07-7.99,5.43-.66.92-1.05,1.89-1.34,2.97-.27-.56-.52-1.17-.69-1.76-1.51-5.28,1.47-8.12,6.28-10.12,5.62-2.34,11.52-4.26,17.22-6.46,2.97-1.15,6.34-2.43,8.57-4.5.07-.06,0-.13.19-.04Z" style="fill: #26245d;"/>
          <path d="M402,415.41c-.27,2.89-1.58,5.2-4.32,6.64-2.92,1.54-6.62,2.47-9.72,3.83-2.64,1.16-5.23,2.77-6.71,5.08-1.87-3.92,1.53-7.73,5.05-9.37,4.13-1.92,9.09-3.08,13.31-4.89.92-.4,1.39-.74,2.18-1.26.07-.05.03-.12.2-.02Z" style="fill: #26245d;"/>
        </g>
      </g>
      <g>
        <path d="M268.35,454.7c-17.04,0-30.91-13.72-30.91-30.59s13.86-30.59,30.91-30.59,30.91,13.72,30.91,30.59-13.86,30.59-30.91,30.59ZM268.35,397.37c-14.9,0-27.02,12-27.02,26.74s12.12,26.74,27.02,26.74,27.02-12,27.02-26.74-12.12-26.74-27.02-26.74Z" style="fill: #26245d;"/>
        <path d="M254.16,424.11c0-13.59,10.31-24.84,23.59-26.52-1.91-.48-3.74-1.28-4.83-2.95-13.04,3.59-22.65,15.44-22.65,29.47s8.67,24.7,20.73,28.88c1.06-.14,2.11-.33,3.15-.63,1.55-.45,3.25-.97,4.9-1.6-13.9-1.08-24.89-12.62-24.89-26.65Z" style="fill: #26245d;"/>
        <path d="M263.75,394.52s-.04.04-.07.05c-2.05,1.44-4.6,1.78-6.93,2.56-.23.08-.45.16-.67.24,14.82.09,26.86,12.05,26.86,26.74s-11.42,26.03-25.71,26.71c3.06.71,6.11,1.43,9.18,2.06,11.89-4.26,20.41-15.54,20.41-28.77,0-14.19-9.81-26.15-23.07-29.59Z" style="fill: #26245d;"/>
        <path d="M249.41,446.24c4.88-4.76,11.57-7.7,18.94-7.7s14.33,3.06,19.23,7.98c.26-.21.54-.42.82-.62.89-.63,1.42-1.22,2.01-2.02-5.61-5.67-13.43-9.19-22.06-9.19s-16.39,3.5-21.99,9.13c1.12.68,2.13,1.51,3.05,2.42Z" style="fill: #26245d;"/>
        <path d="M287.24,400.88c-4.87,4.72-11.54,7.64-18.88,7.64s-13.57-2.73-18.39-7.18c-.47,1.04-1.18,2.02-1.81,2.86-.11.15-.24.27-.36.38,5.47,4.84,12.67,7.79,20.57,7.79,8.28,0,15.81-3.24,21.36-8.51-.99-.88-1.92-1.82-2.48-2.98Z" style="fill: #26245d;"/>
        <rect x="266.21" y="397.37" width="3.89" height="56.18" style="fill: #26245d;"/>
        <rect x="266.23" y="395.15" width="3.85" height="56.76" transform="translate(691.69 155.37) rotate(90)" style="fill: #26245d;"/>
      </g>
      <path d="M206.06,321.51v28.39h237.25v-28.39h-237.25ZM239.7,332.81c-2,1.42-4,2.84-6.02,4.25-.2.14-.23.25-.15.46.77,2.28,1.53,4.56,2.29,6.85.02.06.04.13.02.22-2.11-1.51-4.23-3.02-6.35-4.54-2.12,1.51-4.23,3.02-6.4,4.57.05-.16.07-.26.1-.37.76-2.26,1.51-4.53,2.28-6.79.06-.16.04-.26-.12-.37-2.01-1.41-4.01-2.83-6.01-4.25-.07-.05-.13-.1-.26-.19h.29c2.48,0,4.96,0,7.44.01.18,0,.26-.04.31-.21.76-2.32,1.53-4.63,2.29-6.95.01-.05.04-.1.07-.19.17.52.33.99.48,1.46.63,1.9,1.25,3.8,1.87,5.7.05.15.12.19.28.19,2.48,0,4.97,0,7.44-.01h.3c-.09.07-.14.11-.19.15ZM272.22,332.81c-2.01,1.42-4,2.84-6.01,4.25-.2.14-.23.25-.16.46.77,2.28,1.53,4.56,2.29,6.85.02.06.03.13.02.22-2.11-1.51-4.23-3.02-6.35-4.54-2.12,1.51-4.23,3.02-6.4,4.57.05-.16.07-.26.1-.37.76-2.26,1.51-4.53,2.27-6.79.06-.16.04-.26-.12-.37-2.01-1.41-4.01-2.83-6.02-4.25-.06-.05-.13-.1-.25-.19h.29c2.48,0,4.96,0,7.45.01.18,0,.26-.04.31-.21.76-2.32,1.53-4.63,2.3-6.95.01-.05.03-.1.07-.19.17.52.33.99.48,1.46.62,1.9,1.25,3.8,1.87,5.7.05.15.12.19.28.19,2.48,0,4.97,0,7.44-.01h.3c-.09.07-.13.11-.18.15ZM303.26,332.8c-2,1.42-4,2.84-6.01,4.25-.2.14-.23.25-.16.46.77,2.27,1.53,4.56,2.29,6.84.02.06.03.13.02.22-2.11-1.51-4.22-3.01-6.34-4.53-2.11,1.51-4.23,3.02-6.39,4.56.05-.16.07-.26.1-.37.76-2.26,1.51-4.52,2.27-6.78.06-.16.04-.26-.12-.37-2.01-1.41-4-2.83-6.01-4.24-.07-.05-.13-.1-.25-.19h.29c2.48,0,4.95,0,7.43.01.18,0,.26-.04.31-.21.76-2.32,1.53-4.63,2.29-6.95.01-.05.03-.1.07-.19.17.52.33.99.48,1.46.62,1.9,1.25,3.79,1.87,5.69.05.15.12.19.28.19,2.48,0,4.96,0,7.43-.01h.3c-.09.07-.14.11-.18.15ZM335.18,332.8c-2,1.42-4,2.84-6.01,4.25-.2.14-.23.25-.16.46.77,2.27,1.53,4.56,2.29,6.84.02.06.03.13.02.22-2.11-1.51-4.22-3.01-6.34-4.53-2.12,1.51-4.23,3.02-6.39,4.56.05-.16.07-.26.1-.37.76-2.26,1.51-4.52,2.27-6.78.06-.16.04-.26-.12-.37-2.01-1.41-4-2.83-6.01-4.24-.06-.05-.13-.1-.25-.19h.29c2.48,0,4.95,0,7.44.01.18,0,.26-.04.31-.21.76-2.32,1.53-4.63,2.29-6.95.01-.05.03-.1.07-.19.17.52.33.99.48,1.46.62,1.9,1.25,3.79,1.87,5.69.04.15.12.19.28.19,2.48,0,4.96,0,7.43-.01h.3c-.08.07-.13.11-.18.15ZM367.1,332.8c-2,1.42-4,2.84-6.01,4.25-.2.14-.23.25-.16.46.77,2.27,1.53,4.56,2.29,6.84.02.06.03.13.02.22-2.11-1.51-4.22-3.01-6.35-4.53-2.11,1.51-4.22,3.02-6.39,4.56.04-.16.07-.26.1-.37.76-2.26,1.51-4.52,2.27-6.78.06-.16.04-.26-.12-.37-2.01-1.41-4-2.83-6.01-4.24-.06-.05-.13-.1-.25-.19h.29c2.48,0,4.95,0,7.43.01.18,0,.26-.04.31-.21.76-2.32,1.53-4.63,2.29-6.95.01-.05.03-.1.07-.19.17.52.32.99.48,1.46.62,1.9,1.25,3.79,1.87,5.69.04.15.12.19.28.19,2.48,0,4.96,0,7.44-.01h.3c-.08.07-.13.11-.18.15ZM396.46,332.81c-1.97,1.42-3.94,2.84-5.91,4.25-.19.14-.22.25-.15.46.76,2.28,1.5,4.56,2.25,6.85.02.06.04.13.02.22-2.08-1.51-4.15-3.02-6.24-4.54-2.08,1.51-4.16,3.02-6.29,4.57.05-.16.07-.26.1-.37.74-2.26,1.48-4.53,2.24-6.79.05-.16.04-.26-.12-.37-1.97-1.41-3.94-2.83-5.91-4.25-.07-.05-.13-.1-.25-.19h.29c2.44,0,4.88,0,7.32.01.18,0,.25-.04.31-.21.75-2.32,1.5-4.63,2.25-6.95.01-.05.04-.1.07-.19.17.52.32.99.48,1.46.62,1.9,1.23,3.8,1.84,5.7.05.15.12.19.28.19,2.44,0,4.88,0,7.32-.01h.3c-.09.07-.14.11-.18.15ZM428.43,332.81c-1.97,1.42-3.93,2.84-5.91,4.25-.19.14-.23.25-.16.46.76,2.28,1.51,4.56,2.26,6.85.02.06.03.13.02.22-2.08-1.51-4.15-3.02-6.25-4.54-2.08,1.51-4.16,3.02-6.29,4.57.05-.16.07-.26.1-.37.74-2.26,1.49-4.53,2.23-6.79.06-.16.04-.26-.11-.37-1.98-1.41-3.94-2.83-5.91-4.25-.06-.05-.13-.1-.25-.19h.28c2.44,0,4.88,0,7.32.01.18,0,.25-.04.31-.21.75-2.32,1.5-4.63,2.26-6.95.01-.05.03-.1.07-.19.17.52.32.99.48,1.46.61,1.9,1.23,3.8,1.84,5.7.05.15.12.19.28.19,2.44,0,4.88,0,7.32-.01h.29c-.09.07-.13.11-.18.15Z" style="fill: #be2227;"/>
      <g>
        <path d="M349.39,258.09c.14.55-.13,39.14-.13,39.14-1.15,2.63-16.61,1.68-20.54,1.7-1.84,0-4.73,1.15-5.05-1.15-.16-1.13,0-8.07-.03-9.28-.19-9.44.37-18.41,1-27.74.28-4.09,16.26-1.77,21.84-2.88.75-.15,2.7-.53,2.89.23Z" style="fill: none; stroke: #26245d; stroke-miterlimit: 10; stroke-width: 1.59px;"/>
        <path d="M368.94,295.77c-1.54.43-3.21.41-4.89.4-1.36,0-2.52.69-2.7,1.61l-1.2,6.06c-.15.76-.96,1.38-2.03,1.56-1.49.25-3.4.52-3.65.52l-24.11.05c-.27,0-.48-.16-.45-.35l.08-.54c.05-.31.41-.54.86-.55,3.48-.08,6.96-.17,10.45-.24,3.71-.08,7.42-.16,11.13-.24.43,0,.86-.09,1.24-.23l2.67-1.03c.73-.28,1.19-.81,1.2-1.39l.33-42.91s.03-.06.07-.06c3.7-.54,2.87,3.9,3.16,6.65.1.96,1.28,1.71,2.68,1.71,2.34,0,5.38.08,5.87,1.25.81,1.93-2.82,1.97-5.48,2.15-1.42.1-2.48.93-2.42,1.91.33,5.17-2.72,18.45.78,20.36,1.59.83,4.02.2,5.86.39,1.67.17,2.53,1.53,1.48,2.44-.24.2-.54.37-.91.47Z" style="fill: none; stroke: #26245d; stroke-miterlimit: 10; stroke-width: 1.59px;"/>
        <path d="M277.49,267.39c1.39-.32,2.96-.19,4.52-.3,1.7-.12,3.07-1.02,3.36-2.18.15-.6.33-1.27.55-1.99,1.05-3.46,1.47-3.85,2.03-3.91.28-.03.83.19,1.11.38.2.15.31.37.28.57-.35,1.99-.73,4.21-.86,6.15-.64,9.02-.61,20.34,0,29.37.07.97.5,4.59,1.01,6.63.19.76.95,1.35,1.91,1.75,1,.41,3.05.22,3.22.22h23c.43,0,.86.12,1.11.36.03.02.05.05.07.08.08.1.33.42.15.72-.14.24-.75.75-3.18.86-8.38.37-18.25.6-26.28-.13-4.76-.43-3.71-4.44-3.64-7.31.02-.86-.92-1.58-2.15-1.67l-4.38-.34c-.75-.06-1.41-.35-1.8-.79-.88-1-.03-2.31,1.64-2.51,1.95-.23,4.14.23,5.75-.63.53-.29.8-.75.81-1.22l.51-18.5c0-.09-.01-.18-.04-.26-1.48-3.9-6.67-.09-10.16-2.85-.24-.19-.36-.44-.36-.69h0c0-.81.73-1.56,1.85-1.82Z" style="fill: none; stroke: #26245d; stroke-miterlimit: 10; stroke-width: 1.59px;"/>
        <path d="M297.73,258.03c1.94-.44,4.54.76,6.66.88,4.42.26,15.46-1.5,16.95,1.84,1.57,12.58-.96,25.29.71,37.98,0,0,.31.75-1.06.92-.58.02-18.11,1.14-24.26-2.42l-.15-38.07c.03-.55.35-.95,1.15-1.13Z" style="fill: none; stroke: #26245d; stroke-miterlimit: 10; stroke-width: 1.59px;"/>
        <path d="M351.21,258.44c3.61.19,4.49,1.71,4.67,3.58.6,6.54-.14,17.74-.43,24.58-.18,4.26.19,8.56.02,12.82-.98.76-4.06-2.63-4.06-3.02l-.2-37.95Z" style="fill: none; stroke: #26245d; stroke-miterlimit: 10; stroke-width: 1.59px;"/>
        <path d="M292.64,259.84c.86-.35,1.94.08,1.94.76v38.12c0,.4-.99,1.31-2.1,1.82-.84.39-1.97-.03-1.99-.72-.55-20.93-.58-36.25.03-37.87.42-1.12,1.43-1.75,1.43-1.75.22-.14.46-.26.69-.35Z" style="fill: none; stroke: #26245d; stroke-miterlimit: 10; stroke-width: 1.59px;"/>
        <path d="M327.29,302.3h0c-.35-.41-.2-.93.37-1.2l1.06-.52c.23-.11.49-.17.77-.17,4.72.02,9.74.27,14.42,0,2.38-.14,5.69-1.17,7.47-1.19,2.47-.04,3.97,3.53,2.01,3.53h-24.97c-.46,0-.89-.17-1.13-.44Z" style="fill: none; stroke: #26245d; stroke-miterlimit: 10; stroke-width: 1.59px;"/>
        <path d="M320.26,301.3c.72.16-.08,1.65-1.03,1.78-7.23-1.3-16.55.47-23.62-.42-3.19-.4-1.36-3.39,1.35-3.22,1.04.06,1.72.8,2.74.88,3.66.29,14.89-.27,20.57.98Z" style="fill: none; stroke: #26245d; stroke-miterlimit: 10; stroke-width: 1.59px;"/>
        <path d="M321.93,301.73c.22-.08.43-.11.75-.14,1.1-.12,2.18.07,2.7.25,1.97.72,1.41,3.53-.22,3.84-1.12.21-2.9-.74-3.57-1.66-.54-.74-.67-1.9.34-2.29Z" style="fill: none; stroke: #26245d; stroke-miterlimit: 10; stroke-width: 1.59px;"/>
      </g>
      <g>
        <path d="M306.05,285.9h-6.62c-.15,0-.23-.08-.23-.23v-.42c0-.14.11-.28.32-.45.19-.15.28-.38.28-.7v-11.45c0-.33-.12-.59-.36-.75-.16-.11-.24-.24-.24-.39v-.46c0-.12.08-.18.23-.18h4.97c.09,0,.26,0,.51-.03.23-.02.37-.03.42-.03.21,0,.32.06.32.17v2.84c0,.15-.01.24-.04.27-.03.03-.11.04-.25.04h-.36c-.16,0-.24-.09-.26-.27-.07-.5-.2-.93-.38-1.29-.18-.36-.55-.54-1.11-.54h-1.22v5.47h.45c.28,0,.47-.05.57-.16.1-.11.23-.44.39-1,.05-.18.09-.28.11-.3.02-.02.08-.03.17-.03h.43c.17,0,.25.08.25.24v3.65c0,.15-.08.23-.23.23h-.44c-.1,0-.16-.02-.2-.07-.04-.05-.09-.2-.15-.45-.12-.46-.24-.74-.38-.84-.13-.1-.32-.15-.56-.15h-.39v6.12h1.31c.48,0,.82-.11,1-.34.19-.23.42-.86.7-1.88.06-.23.18-.35.35-.35h.42c.16,0,.24.08.24.24v3.48Z" style="fill: #26245d;"/>
        <path d="M307.47,277.81c.16-.36.37-.68.63-.94s.58-.47.94-.63c.36-.16.75-.24,1.16-.24s.79.08,1.16.24c.36.16.68.37.94.63s.48.58.63.94c.16.36.24.75.24,1.16s-.08.79-.24,1.16-.37.68-.63.94c-.26.26-.58.47-.94.63-.36.16-.75.24-1.16.24s-.79-.08-1.16-.24c-.36-.16-.68-.37-.94-.63-.26-.26-.48-.58-.63-.94s-.24-.75-.24-1.16.08-.8.24-1.16Z" style="fill: #26245d;"/>
        <path d="M317.33,284.1c0,.33.12.59.37.75.17.11.25.24.25.39v.43c0,.15-.08.22-.25.22h-3.02c-.14,0-.21-.07-.21-.2v-.45c0-.14.08-.27.25-.39.25-.17.37-.43.37-.75v-11.45c0-.33-.12-.58-.37-.75-.17-.11-.25-.24-.25-.4v-.42c0-.15.08-.22.25-.22h3.02c.14,0,.21.07.21.2v.44c0,.15-.08.28-.25.4-.24.17-.37.42-.37.75v11.45Z" style="fill: #26245d;"/>
      </g>
      <g>
        <path d="M330.33,284.1c0,.33.12.59.37.75.17.11.25.24.25.39v.43c0,.15-.08.22-.25.22h-3.02c-.14,0-.21-.07-.21-.2v-.45c0-.14.08-.27.25-.39.25-.17.37-.43.37-.75v-11.45c0-.33-.12-.58-.37-.75-.17-.11-.25-.24-.25-.4v-.42c0-.15.08-.22.25-.22h3.02c.14,0,.21.07.21.2v.44c0,.15-.08.28-.25.4-.24.17-.37.42-.37.75v11.45Z" style="fill: #26245d;"/>
        <path d="M332.5,277.81c.16-.36.37-.68.63-.94s.58-.47.94-.63c.36-.16.75-.24,1.16-.24s.79.08,1.16.24c.36.16.68.37.94.63s.48.58.63.94c.16.36.24.75.24,1.16s-.08.79-.24,1.16-.37.68-.63.94c-.26.26-.58.47-.94.63-.36.16-.75.24-1.16.24s-.79-.08-1.16-.24c-.36-.16-.68-.37-.94-.63-.26-.26-.48-.58-.63-.94s-.24-.75-.24-1.16.08-.8.24-1.16Z" style="fill: #26245d;"/>
        <path d="M344.08,279.62h2.44c.16,0,.26.02.3.05.04.04.06.11.06.23,0,.05,0,.16-.03.34-.03.42-.05.77-.05,1.04v2.71c0,.18.05.32.15.41.08.07.12.15.12.26v.35c0,.14-.08.26-.24.37-.16.11-.49.26-1,.44-.5.18-1.06.27-1.68.27-2.92,0-4.38-2.38-4.38-7.14,0-1.36.14-2.66.43-3.9.28-1.24.77-2.28,1.46-3.13.69-.84,1.43-1.27,2.22-1.27.39,0,.82.11,1.29.33.14.06.24.1.32.1.04,0,.11-.03.22-.08.08-.04.15-.06.21-.06h.38c.18,0,.27.09.27.26v3.19c0,.19-.08.28-.24.28h-.41c-.13,0-.21-.01-.23-.04s-.08-.23-.16-.61c-.32-1.5-.89-2.25-1.69-2.25-.39,0-.71.18-.96.53-.25.35-.43,1.17-.54,2.46-.11,1.29-.16,2.56-.16,3.84,0,1.34.05,2.44.15,3.31.1.87.23,1.52.37,1.96.14.44.31.74.51.9.2.16.43.24.69.24.57,0,.85-.41.85-1.22v-2.09c0-.36-.05-.62-.14-.78-.09-.16-.28-.3-.57-.42-.14-.06-.21-.15-.21-.26v-.41c0-.15.08-.22.24-.22Z" style="fill: #26245d;"/>
      </g>
    </g>
  </g>
</svg>