<?xml version="1.0" encoding="UTF-8"?>
<svg id="Layer_2" data-name="Layer 2" xmlns="http://www.w3.org/2000/svg" viewBox="0 0 487.56 273.31">
  <g id="Capa_1" data-name="Capa 1">
    <g>
      <path d="M62.75,254.45c3,2.14,4.75,4.12,6.82,6.55-6.98,8.15-16.67,12.06-27.23,12.25-20.6.36-36.24-15.81-36.09-36.24.15-20.72,16.25-36.64,37.13-35.83,9.53.37,18.3,4.05,24.16,11.41l-6.61,6.21c-7.44-8.67-18.42-10.97-28.99-6.97-9.43,3.56-15.76,12.88-16.31,23.71-.61,11.88,5.43,22.38,15.45,26.65,11.26,4.8,23.38,2.03,31.66-7.74Z" style="fill: #5e6367;"/>
      <path d="M61.21,155.71c2.95,1.14,4.53,3.57,7.17,5.97-6.34,8.23-16.42,12.33-27.01,12.58-20.39.47-35.93-15.1-36.34-35.22-.43-21.24,15.95-37.74,37.36-36.82,9.39.41,18.15,3.97,23.78,11.43l-6.35,6.25c-7.33-8.59-18.2-11.1-28.85-7.12-9.61,3.59-16.2,13.03-16.57,24.25s5.61,22.08,15.51,26.23c10.99,4.61,23.06,2.18,31.31-7.54Z" style="fill: #5e6367;"/>
      <path d="M434.92,256.61l8.51,3.58c-5.36,10.93-17.46,15.12-28.76,12.08s-17.63-13.93-16.92-26.03c.56-9.49,5.92-18.3,14.03-21.51,9.55-3.78,20.56-1.9,26.8,5.8,4.53,5.59,5.65,12.32,5.45,19.23l-36.93.02c.11,7.25,4.5,12.62,10.66,14.43s13.54-.39,17.17-7.59ZM434.46,242.02c-1.47-7.9-7.5-10.89-13.67-10.8-6.09.08-11.59,4.19-12.91,10.98l26.58-.18Z" style="fill: #5e6367;"/>
      <path d="M243.06,157.69c3.53.53,6.13,2.24,8.48,3.93-4.06,7.69-11.05,11.72-19.16,12.52-15.19,1.5-26.63-10.13-26.44-25.19.12-9.86,4.81-18.95,13.28-22.85,8.84-4.07,19.97-2.79,26.6,4.2,5.18,5.46,6.61,12.25,6.48,20.34l-36.96.16c.16,7.07,4.62,12.53,10.46,14.35,6.64,2.07,13.54-.22,17.26-7.45ZM242.68,142.97c-1.5-7.9-7.64-10.89-13.81-10.76s-11.33,4.17-12.74,11.01l26.55-.25Z" style="fill: #5e6367;"/>
      <path d="M191.97,157.73c3.35.56,5.67,1.86,8.43,3.68-4.55,9.38-14.65,13.91-25.16,12.58-12.65-1.6-20.47-12.58-20.4-24.98.06-9.87,4.86-19.19,13.36-22.95,9.44-4.18,21-2.49,27.49,5.37,4.59,5.56,5.69,12.41,5.32,19.32l-36.76.03c.11,7.1,4.64,12.57,10.52,14.39,6.59,2.04,13.55-.28,17.2-7.45ZM191.62,142.99c-1.52-7.94-7.64-10.86-13.76-10.78s-11.35,4.19-12.81,11.01l26.57-.23Z" style="fill: #5e6367;"/>
      <path d="M111.07,256.69c3.34.49,5.5,2,8.44,3.73-4.33,9.05-14.06,13.66-24.28,12.7-13-1.23-21.41-12.25-21.3-25.12.09-9.93,4.81-18.97,13.29-22.88,8.82-4.07,19.96-2.8,26.58,4.22,5.14,5.44,6.59,12.28,6.5,20.32l-36.98.16c.15,7.11,4.59,12.52,10.48,14.35,6.58,2.05,13.57-.27,17.28-7.46ZM110.68,241.98c-1.53-7.91-7.64-10.89-13.81-10.77s-11.31,4.18-12.76,11.01l26.57-.24Z" style="fill: #5e6367;"/>
      <path d="M351.75,265.67c-4.67,7.1-13.32,9.2-21.58,6.37-6.65-2.28-10.98-8.1-11.13-14.56-.16-6.86,3.76-12.75,10.75-15.07s15.22-1.93,22.47,1.02c.46-6.55-4-10.62-8.98-11.97-5.37-1.46-10.85.69-14.33,5.54-3.04-.82-5.74-2.68-8.21-4.98,4.69-7.25,12.52-9.25,20.57-9.13,11.21.17,19.72,7.79,19.73,19.17l.04,29.64-8.75.05-.59-6.08ZM333.77,264.18c8.94,3.27,18.24-3.71,18.51-12.76-6.14-3.79-13.53-4.36-19.51-1.05-2.79,1.55-4.37,4.33-4.24,7.06.12,2.48,1.85,5.51,5.25,6.75Z" style="fill: #5e6367;"/>
      <path d="M106.67,166.77c-5.24,7.05-13.78,9.23-22.27,6.07-6.39-2.38-10.48-8.07-10.65-14.46-.19-6.86,3.95-12.8,10.97-15.04,7.36-2.34,15.15-1.78,22.34,1.03.22-6.57-4.01-10.55-8.95-11.88-5.6-1.52-11.13.79-14.78,5.74l-8.1-4.69c4.2-7.26,11.83-9.73,20.17-9.67,9.18.07,19.61,5.22,19.74,15.16l.45,33.65-8.28.07-.64-5.98ZM89.43,165.53c8.88,2.31,17.29-4.42,17.57-13.15-5.93-3.68-13.31-4.32-19.3-1.09-3.23,1.74-4.92,4.76-4.38,8.1.39,2.41,2.46,5.19,6.11,6.14Z" style="fill: #5e6367;"/>
      <path d="M481.39,269.6c-10.38,7.28-28.31,3.77-33.08-9.82,2.29-1.65,4.93-2.77,8.22-3.34,3.33,7.78,11.76,11.01,18.92,6.75,1.79-1.06,2.87-2.88,2.76-4.66s-1.65-4.04-3.88-4.71l-15.93-4.81c-4.86-1.47-8.12-5.53-8.72-9.86-.73-5.26,1.38-9.91,5.88-12.93,9.3-6.22,26.64-4.08,31.29,7.78-2.96,1.36-5.31,2.61-8.22,3.09-3.88-6.1-11.45-7.83-17.27-4.12-1.7,1.09-2.56,2.73-2.33,4.48.18,1.33,1.4,3.1,3.26,3.65l16.15,4.73c4.94,1.45,8.17,5.83,8.87,9.82,1,5.75-1.01,10.52-5.93,13.96Z" style="fill: #5e6367;"/>
      <path d="M282.18,259.52c3.49,4.39,8.28,5.8,13.11,5.19s8.76-3.59,11.03-8.65l8.04,3.32c-2.66,8.28-10.33,13.11-18.98,13.81-15.19,1.23-26.36-10.21-26.36-25.21,0-14.06,9.97-25.22,24.3-25.11,9.33.07,17.65,4.85,20.96,14.14l-8.37,3.18c-2.07-5.13-5.92-8.07-10.65-8.78-5.13-.77-9.91,1.08-13.25,5.4-5.01,6.49-5.21,15.95.18,22.72Z" style="fill: #5e6367;"/>
      <path d="M231.1,232.84l-.03,38.87h-8.95s-.04-38.73-.04-38.73l-8.72-.18-.06-8.33,8.94-.4c-.35-5.66-.69-11.19,2.49-15.69,4.89-6.92,14.17-7.9,21.45-4.76l-2.53,8.21c-3.91-1.98-8.56-1.85-10.91,1.62-2.06,3.03-1.99,6.98-1.41,10.86l11.95.11v8.36s-12.17.06-12.17.06Z" style="fill: #5e6367;"/>
      <path d="M188.36,262.87l2.96,8.42c-3.14.8-6.25,1.4-9.56,1.16-7.24-.53-12.28-6.16-12.27-13.4l.05-26.1-8.2-.14v-8.42s8.1-.09,8.1-.09l.08-14.24,8.99.04.03,14.09,11.48.25.02,8.35-11.53.16.17,24.54c.01,2.14.97,4.24,2.44,5.26,1.69,1.18,3.93,1.64,7.23.13Z" style="fill: #5e6367;"/>
      <path d="M392.68,262.94c1.46,2.5,2.06,4.96,2.97,8.37-3.28.86-6.36,1.34-9.71,1.09-6.76-.5-11.83-5.46-11.84-12.38v-27.05s-8.3-.2-8.3-.2l.02-8.28,8.05-.08.26-14.33,8.95-.03.09,14.27,11.14.06.17,8.18-11.41.31.09,25.11c0,2.22,1.33,4.17,2.72,4.98,1.7.98,3.54,1.45,6.79-.03Z" style="fill: #5e6367;"/>
      <path d="M268.62,172.11c-2.69,1.27-5.92.63-9.08.55v-47.19s8.77-.04,8.77-.04l.36,6.86c3.9-6.84,11.9-10.07,20.05-7.19l-2.49,8.86c-4.44-.91-8.73-.92-12.24,1.87-2.38,1.89-5.21,5.56-5.23,9.72l-.13,26.56Z" style="fill: #5e6367;"/>
      <path d="M134.1,172.62l-8.98.07-.07-47.07,8.3-.19c.41,2.06-.01,4.07.37,6.91,4.46-6.75,11.71-10.03,20.3-7.35-.2,2.86-1.27,5.95-2.49,9.03-4.75-1.03-8.71-.98-12.37,2.08-2.37,1.98-5.04,5.55-5.04,9.87l-.02,26.64Z" style="fill: #5e6367;"/>
      <path d="M137.02,271.61l-8.9.08-.08-47.07,8.29-.2c.44,2.09-.03,4.01.42,6.91,3.98-6.56,11.27-9.27,18.42-7.85l-.19,9.47c-8.05-2.15-17.62,2.33-17.7,11.03l-.27,27.62Z" style="fill: #5e6367;"/>
      <rect x="197.8" y="224.46" width="9.02" height="47.3" style="fill: #5e6367;"/>
      <rect x="252.55" y="224.46" width="9" height="47.3" style="fill: #5e6367;"/>
      <circle cx="257.13" cy="208.37" r="6.44" style="fill: #5e6367;"/>
      <circle cx="202.41" cy="208.38" r="6.44" style="fill: #5e6367;"/>
      <path d="M220.79,97.77c-11.3.84-20.58-4.71-24.93-14.95l9.85-4.17c3.11,7.18,10.09,10.26,16.41,8.58,7.7-2.05,10.62-9.98,8.82-16.83-5.24,4.56-10.68,5.57-16.73,4.56-12.1-2.03-20.13-12.75-20.25-24.45-.12-11.91,8.08-22.91,20.39-25.17,6.31-1.16,12.25.59,16.68,4.81l.81-3.74,10.33.07-.38,50.12c-.09,11.79-9.15,20.29-20.99,21.17ZM232.2,49.55c-.42-8.86-7.07-15.68-15.5-14.1-7.38,1.38-11.57,8.19-11.45,15.04s4.11,12.99,11.22,14.43c9.02,1.84,16.17-5.87,15.73-15.37Z" style="fill: #4585f2;"/>
      <path d="M188.62,50.21c0,13.87-11.24,25.11-25.11,25.11s-25.11-11.24-25.11-25.11,11.24-25.11,25.11-25.11,25.11,11.24,25.11,25.11ZM177.1,52.33c1.05-9.04-4.93-17.28-13.79-17.05-9.13.23-14.76,9-13.28,17.73,1.22,7.2,6.77,12.34,13.76,12.18,6.44-.15,12.42-5.23,13.31-12.85Z" style="fill: #fbbe03;"/>
      <path d="M304.05,58.45c3.57,1.5,5.9,3.31,8.97,5.75-6.57,10.21-19.2,13.71-30.51,9.33-10.8-4.18-16.58-16.04-14.66-28.16,1.83-11.54,10.79-19.81,22.02-20.36s21.21,8.11,23.52,19.28l-33,13.56c2.4,4.9,6.6,7.31,11.41,7.39,4.5.07,8.95-1.67,12.25-6.78ZM300.26,39.79c-4.49-6.6-12.01-5.7-16.84-1.7-3.29,2.87-5.31,6.31-4.98,11.16l21.81-9.45Z" style="fill: #e94436;"/>
      <path d="M133.38,50.18c0,13.86-11.24,25.1-25.1,25.1s-25.1-11.24-25.1-25.1,11.24-25.1,25.1-25.1,25.1,11.24,25.1,25.1ZM121.61,53.64c1.13-5.39-.33-10.4-3.5-13.94-2.82-3.15-7.51-5.22-12.31-4.22-8.73,1.81-12.97,11.02-10.54,19.4,1.82,6.29,7.3,10.55,13.53,10.32,6.02-.23,11.39-4.71,12.82-11.56Z" style="fill: #e94436;"/>
      <rect x="250.07" width="11.24" height="73.91" style="fill: #35a853;"/>
      <path d="M1.65,29.58C8.12,6.74,29.88,2.49,30.49,1.84c0,0,3.9-.88,9.57-.88s9.92,1.14,9.92,1.14c5.91,1.79,11.51,4.48,16.37,9.61l-7.35,7.86c-7.25-6.41-16.02-9.35-26.16-6.8-7.57,1.9-15.17,7.76-18.67,16.46-4.94,12.3-.88,26.23,9.65,33.66,10.7,7.56,25.85,6.92,35.43-2.65,3.44-3.43,4.88-7.91,5.68-13.09l-25.28-.06-.03-10.88,36.13.03c1.03,8.74.39,17.22-3.69,24.82-6.6,12.3-19.46,18.36-33.45,17.9C9.01,77.98,1.43,49.87,1.01,49.54c0,0-1.01-8.59-1.01-11.3,0-2.33,1.65-8.67,1.65-8.67Z" style="fill: #4585f2;"/>
    </g>
  </g>
</svg>