<?xml version="1.0" encoding="UTF-8"?>
<svg id="Layer_2" data-name="Layer 2" xmlns="http://www.w3.org/2000/svg" viewBox="0 0 671.59 720.29">
  <g id="Capa_1" data-name="Capa 1">
    <g>
      <path d="M454.35,380.82l-11.44-13.18c-14.86-18.59-28.41-37.85-40.76-58.4l-66.17-110.05-21.65,38.22-40.53,70.37c-14.59,24.36-30.36,47.45-48.93,68.81-20.15,23.18-44.72,41.36-75.83,44.69-16.01,1.72-31.63.71-47.23-3.22-56.41-14.19-79.88-68.8-83.71-123.11-4.42-62.79,12.16-132.65,40.27-188.75,11.84-23.62,26.64-45.08,45.66-63.23C145.71,3.2,199.75-12.4,254.1,10.89c19.17,8.15,35.61,20.25,50.89,34.48,14.39,13.2,26.74,27.62,39.48,43.35C374.44,47.48,417.63,1.04,471.74.11c65.11-1.13,116.45,50.47,143.27,106.02,24.11,49.93,37.6,104.85,39.16,160.29,1.06,37.9-5.47,80.11-25.79,111.99-14.85,23.3-38.56,38.28-65.88,42.33-12.29,1.82-24.06,1.74-36.44.28-16.58-1.95-31.82-7.71-45.51-17.18-9.66-6.68-18.36-13.98-26.21-23.02ZM547.18,352.67c25.68-1.93,38.03-20.53,43.09-44.07,3.11-14.45,3.33-28.53,2.76-43.48-2.01-51.93-13.23-106.72-39.83-151.65-15.24-25.74-36.88-47.22-66.95-53-20.16-3.88-39.98,0-57.05,11.3-22.62,14.6-38.89,37.79-53.46,60.16l37.28,58.98,47.27,77.41,32.01,47.93c6.27,9.39,13.5,17.58,21.71,25.06,9.33,8.5,20.3,12.31,33.18,11.35ZM164.02,344.74c8.15-5.38,15.32-11.62,21.27-19.37l20.68-26.94,41.68-63.03,55.67-86.22c-17.04-23.98-35.6-48.79-59.52-66.07-16.18-10.98-35.42-16.32-54.79-12.4-14.4,2.91-26.45,10.84-37.03,20.87-23,21.8-39.3,55.06-49.07,85.35-11.3,35.04-16.66,71.31-15.93,108.15.39,19.71,4.53,41.11,17.99,55.36,14.67,15.53,41.39,15.96,59.05,4.3Z" style="fill: #0180fa;"/>
      <g>
        <polygon points="183.56 716.58 183.4 561.56 123.67 668.73 92.8 668.71 33.03 561.6 32.89 716.58 0 716.6 0 513.28 40.44 513.28 108.67 636.65 176.9 513.29 216.44 513.27 216.43 716.57 183.56 716.58" style="fill: #020202;"/>
        <g>
          <path d="M640.62,716.62l-.59-20.33c-11.28,15.54-27.92,23.09-46.3,23.92-20.12.91-38.55-6.3-51.93-21.44-9.75-11.03-15.98-24.43-18.54-39.13-5.01-28.74.74-59.76,22.11-80.21,13.24-12.67,30.14-18.34,48.33-18.01,18.24.34,34.98,7.46,46.51,22.47l.21-18.72,31.17-.06v151.44s-30.97.06-30.97.06ZM597.53,691.35c18.72-.27,35.01-10.35,42.11-27.52l.06-45.58c-6.75-18.43-24.52-28.91-43.95-27.92-15.1.76-27.89,8.19-35.1,21.59-8.29,15.39-8.48,38.49-1.76,54.55,6.61,15.82,21.04,25.13,38.64,24.88Z" style="fill: #020202;"/>
          <path d="M313.5,691.56c20.15,3.45,39.86-2.09,55-16.69l17.56,21.44c-20.49,19.4-49,26.73-77.01,23.03s-51.3-23.16-59.64-50.71c-5.93-19.61-5.38-41.11,1.61-60.25,10.31-28.24,35.79-46.32,65.68-46.9,11.84-.23,23,1.19,33.68,6.41,13.68,6.68,23.86,17.81,30.3,31.61,5.55,11.9,8.53,24.44,8.61,37.57l.09,15.79h-111.09c2.81,19.64,16.04,35.43,35.22,38.71ZM357.65,628.63c-.43-7.26-1.88-12.73-4.38-18.19-5.7-13.25-18.11-20.82-32.44-21.26-24.07-.73-39.32,16.74-42.57,39.54l79.39-.09Z" style="fill: #020202;"/>
          <path d="M506.67,689.55l.05,26.84c-14.17,3.78-28.65,4.79-42.85,1.86-25.51-6.04-34.12-26.32-34.84-51.37l-.02-74.87h-30.09s-.11-26.8-.11-26.8l30.2-.15v-44.35s31.86-.02,31.86-.02v44.42s45.87.02,45.87.02l-.09,26.88h-45.78s.07,71.28.07,71.28c0,5.01.85,9.61,2.26,14.24,2.18,7.41,8.09,12.05,15.76,13.3,9.08,1.35,17.94.36,27.73-1.29Z" style="fill: #020202;"/>
        </g>
      </g>
    </g>
  </g>
</svg>