<?xml version="1.0" encoding="UTF-8"?>
<svg id="Layer_2" data-name="Layer 2" xmlns="http://www.w3.org/2000/svg" viewBox="0 0 592.98 235.37">
  <g id="Layer_1-2" data-name="Layer 1">
    <path d="M587.48,1.2c-1.9-.9-19.8-1.2-69.8-1.2-60.6,0-67.5.2-69.6,1.6-5.1,3.6-5.1,3.5-5.1,73.5s-.1,70.2,5.6,72.8c3.3,1.5,136.6,1.6,139.5.1,4.9-2.7,4.9-2.1,4.9-73.5s.1-70.8-5.5-73.3ZM487.78,91.7l-.3,35.8h-22l-.3-35.8-.2-35.7h23l-.2,35.7ZM488.68,37.3c-3.7,8.8-13.4,11.5-20.1,5.6-7.7-6.7-6.2-17.5,2.9-21.5,3.7-1.6,5.6-1.7,9.2-.3,6.9,2.6,10.5,10,8,16.2ZM570.48,127.5h-22l-.5-23.5c-.5-24.3-.9-26.8-5-29-2.7-1.5-9.6-1.2-12.9.4-5,2.6-5.5,5.2-6.1,29.6l-.5,22.5h-22l-.3-35.8-.2-35.7h22v4.7l.1,4.8,2-2.7c2.2-3,7.5-6.6,11.7-7.8,4.4-1.3,12.5-1.1,17.7.4,6.3,1.9,12,7.5,14.2,14,1.6,4.4,1.8,8.8,1.8,31.6v26.5Z" style="fill: #0a66c2;"/>
    <path d="M81.18,22.6c-5.3,3.7-6.9,13-3.1,17.8,5.7,7.3,15.1,7.3,20.8,0,3.8-4.8,2.2-14.1-3.1-17.8-1.3-1-4.3-1.6-7.3-1.6s-6,.6-7.3,1.6Z" style="fill: #0a66c2;"/>
    <polygon points=".98 74.5 .98 127 66.98 127 66.98 106 23.98 106 23.98 22 .98 22 .98 74.5" style="fill: #0a66c2;"/>
    <path d="M192.98,74.5v52.5h22l.2-17.2.3-17.1,11.4,17.1,11.4,17.2h14c11,0,13.7-.3,13-1.3-.6-.6-6.9-9.2-14.1-19l-13.2-17.8,14.6-16.4,14.5-16.5-13.8.1h-13.8l-12,14.1-12,14.1-.3-31.2-.2-31.1h-22v52.5Z" style="fill: #0a66c2;"/>
    <path d="M398.98,22v20.7h0v20.7l-2.7-2.6c-5.6-5.2-9-6.3-19.8-6.3-8.9,0-10.6.3-15.1,2.7-6.4,3.4-10.8,8.4-14.8,16.8-2.9,6.1-3.1,7.2-3.1,18s.3,12.1,2.6,17c3.7,8,8.1,12.5,15.7,16.2,6,3,7.6,3.3,15.2,3.3,7.2,0,9.2-.4,13.5-2.7,2.8-1.4,5.9-3.5,6.9-4.7,2.8-3,3.6-2.6,3.6,1.9v4h20V22h-22ZM379.28,109.5c-5.1-.7-10.9-5.3-12.9-10.2-2.1-4.9-1.7-12.2.9-17.3,3.8-7.8,13.8-11.1,22.5-7.5,5.5,2.4,8.1,5.3,9.8,11.3,4.1,13.9-6.2,25.8-20.3,23.7Z" style="fill: #0a66c2;"/>
    <polygon points="0 182.9 0 217.2 35.93 217.2 35.93 211.97 5.88 211.97 5.88 148.6 0 148.6 0 182.9" style="fill: #0a66c2;"/>
    <path d="M219.64,161.4c-1.11,1.24-1.5,5.1-.59,6.4.72,1.05,3.14,2.22,4.7,2.22,1.83,0,4.57-2.81,4.57-4.77,0-.85-.59-2.35-1.37-3.33-1.63-2.09-5.62-2.42-7.32-.52Z" style="fill: #0a66c2;"/>
    <path d="M148.48,54.9c-4.5,1.2-7.6,3-11.7,6.9l-3.8,3.6v-9.4h-21v71h21.9l.3-22.3c.3-24.2.6-25.6,6.4-29.4,3.5-2.3,10.8-2.2,13.5.3,4.4,3.9,4.9,7.1,4.9,29.9v21.5h22v-24.3c0-26.5-.9-32.9-5.3-39.6-1.5-2.2-4.4-4.7-6.9-5.9-4.7-2.3-15.6-3.5-20.3-2.3h0Z" style="fill: #0a66c2;"/>
    <path d="M317.78,104l-4,3.4c-6.9,6-15.8,6.6-22.9,1.5-2.5-1.8-5.9-7.4-5.9-9.8,0-.8,7.7-1.1,25.6-1.1h25.7l-.6-9.3c-.6-10.9-2.4-16.5-7.5-23.2-5.6-7.4-12.9-10.8-24-11.2-5.6-.2-10.6.3-14.2,1.2-7.3,2.1-12.7,5.4-17.9,11-7,7.7-8.6,12.2-8.6,25,0,10,.2,11.5,2.8,16.7,3.6,7.3,11.9,14.9,19.5,17.9,4.6,1.9,7.7,2.3,16.2,2.3,9.8.1,11-.1,17-3,3.6-1.7,8.3-4.7,10.4-6.6l3.9-3.4-7.7-5.7-7.8-5.7ZM284.98,81.5c0-5.3,10.7-13.4,15.8-11.9.8.2,2.2.4,3.3.4h0c3.3,0,8.9,6,9.6,10.2l.6,3.8h-29.3v-2.5Z" style="fill: #0a66c2;"/>
    <polygon points="77.98 91.5 77.98 127 98.98 127 98.98 56 77.98 56 77.98 91.5" style="fill: #0a66c2;"/>
    <path d="M78.33,206.03q-2.09-.98-5.42,2.35c-3.72,3.72-6.73,4.9-12.41,4.9-6.86,0-12.35-3.85-14.76-10.26-2.22-5.88-3.72-5.42,17.7-5.42h19.08l-.46-3.46c-.72-5.29-1.5-7.71-3.79-11.5-2.35-3.85-6.86-7.45-10.84-8.56-3.4-.91-11.76-.72-14.7.33h0c-11.3,4.18-16.92,17.77-12.48,30.57,1.44,4.25,6.53,9.67,10.84,11.63,2.87,1.31,4.57,1.57,9.67,1.57,5.75,0,6.6-.2,10.58-2.16,4.12-2.03,9.02-6.53,9.02-8.3,0-.39-.91-1.18-2.03-1.7ZM44.82,191.2c2.42-10.98,14.44-16.46,23.65-10.78,3.4,2.09,6.53,6.53,7.12,10.19l.39,2.42h-31.55l.39-1.83Z" style="fill: #0a66c2;"/>
    <path d="M126.09,174.08v3.92c0,2.16-.13,3.92-.33,3.92s-1.31-1.05-2.42-2.29c-1.11-1.31-3.33-3.14-4.97-4.12-2.55-1.44-3.85-1.76-8.95-1.89-4.05-.13-6.73.13-8.62.85-3.72,1.37-9.08,6.27-10.98,10.06-4.38,8.69-3.01,20.45,3.27,27.31,4.7,5.23,14.05,7.97,20.91,6.08,3.72-.98,8.62-4.25,10.13-6.73l1.31-2.16v8.17h5.88v-43.12h-5.23ZM124.85,201.85c-1.44,4.77-6.4,9.67-11.3,11.11-12.67,3.66-23.78-9.15-19.86-22.87.91-2.94,1.89-4.51,4.51-7.12,1.89-1.89,4.44-3.72,5.68-4.18,3.27-1.05,9.67-.52,12.87,1.05h0c7.19,3.72,10.65,13.07,8.1,22.02Z" style="fill: #0a66c2;"/>
    <path d="M156.21,174.08c-2.81.65-5.23,2.48-6.93,5.1-.72,1.11-1.5,2.03-1.76,2.09-.33,0-.52-1.63-.52-3.59v-3.59h-5.23v43.12h5.88v-13.65c0-10.58.2-14.24.98-16.46,1.76-5.03,5.42-7.77,10.52-7.97q2.87-.13,2.87-2.48c0-1.96-.26-2.48-1.44-2.81-.85-.2-1.63-.33-1.83-.33-.2.07-1.31.33-2.55.59Z" style="fill: #0a66c2;"/>
    <path d="M182.4,174.67c-1.5.72-3.72,2.09-4.97,3.01-1.18.91-2.35,1.63-2.55,1.63-.26,0-.46-1.18-.46-2.61v-2.61h-5.23v43.12h5.23v-31.23l3.2-2.87c7.45-6.73,17.31-6.34,21.04.78,1.11,2.03,1.24,3.92,1.24,17.77v15.55h5.95l-.2-16.86c-.2-16.53-.2-16.86-1.83-19.73-.91-1.57-2.94-3.79-4.44-4.9-2.55-1.76-3.4-1.96-8.49-2.16-4.57-.13-6.21.07-8.49,1.11h0Z" style="fill: #0a66c2;"/>
    <path d="M250.22,175.13c-1.96.91-4.38,2.42-5.36,3.4l-1.83,1.7v-6.14h-5.88v43.12h5.88v-32.01l3.33-2.61c4.51-3.53,9.67-5.03,13.65-3.99,3.59.98,6.73,3.92,7.77,7.19.46,1.57.72,8.04.72,16.99v14.44h5.23v-33.19l-1.83-3.46c-1.44-2.81-2.48-3.85-5.29-5.29-4.77-2.48-11.17-2.55-16.4-.13Z" style="fill: #0a66c2;"/>
    <path d="M320.77,174.08v3.92c0,2.16-.13,3.92-.33,3.92s-1.44-1.24-2.81-2.74c-3.66-4.05-7.84-5.75-14.18-5.75-4.38,0-5.88.33-9.15,1.83-4.44,2.16-8.3,6.01-10.39,10.52-1.11,2.48-1.37,4.25-1.37,10.19,0,6.93.07,7.32,2.22,11.3,3.99,7.38,10.06,10.91,18.68,10.91,6.53,0,10.45-1.7,14.63-6.08l2.87-3.07-.39,5.36c-.46,6.27-1.89,9.6-5.42,12.48-5.42,4.44-17.12,4.51-25.74.13l-2.61-1.31v2.94c0,2.55.26,3.01,1.83,3.85,1.05.52,4.31,1.44,7.32,2.09,13.98,2.81,26.2-2.09,29.01-11.56.85-2.81,1.05-7.45,1.05-26.2v-22.74h-5.23ZM320.12,199.82c-2.29,11.24-13.92,16.99-23.45,11.76-13.52-7.32-11.5-28.16,3.2-32.99,2.61-.85,8.69-.2,11.5,1.24,6.73,3.46,10.45,11.89,8.75,19.99Z" style="fill: #0a66c2;"/>
    <polygon points="212.98 176.3 212.98 178.59 216.44 178.79 219.84 178.98 220.03 198.06 220.16 217.2 225.39 217.2 225.39 174.08 212.98 174.08 212.98 176.3" style="fill: #0a66c2;"/>
  </g>
</svg>