<?xml version="1.0" encoding="UTF-8"?>
<svg id="Layer_2" data-name="Layer 2" xmlns="http://www.w3.org/2000/svg" viewBox="0 0 185.99 275.34">
  <g id="Capa_1" data-name="Capa 1">
    <g>
      <path d="M37.92,248.46v-.38h0l-.02.38s.01,0,.02,0Z" style="fill: none;"/>
      <path d="M33.04,253.08c-4.01,2.5-4.78,7.69-3.86,12.36.83,4.25,4.33,6.92,8.37,6.92.58,0,1.17-.05,1.77-.17,5.84-1.1,7.39-6.98,6.5-12.92-.44-2.95-2.16-5.77-4.97-6.82-1.13-.43-2.28-.66-3.41-.66-1.5,0-2.98.4-4.4,1.28Z" style="fill: none;"/>
      <path d="M166.03,253.56c3.38-1.02,5.41-5.04,3.67-8.4-.6-1.15-2.34-2.57-4.08-2.59l-7.24-.09-.05,11.48c1.08.23,2.08.34,3.06.34,1.57,0,3.06-.27,4.64-.75Z" style="fill: none;"/>
      <path d="M166.77,258.56l-8.38-.26-.02,12.83c1.45.07,2.84.15,4.2.15,1.61,0,3.18-.11,4.79-.47,3.23-.73,4.89-3.76,4.72-6.66-.17-2.7-2.42-5.5-5.32-5.59Z" style="fill: none;"/>
      <path d="M106.95,252.24c-.87-.28-1.72-.43-2.54-.43-1.48,0-2.86.48-4.12,1.52-1.83,1.52-2.92,3.39-3.45,6.24l13.85.1c1.21-2.16-.94-6.54-3.74-7.43Z" style="fill: none;"/>
      <path d="M11.04,242.53H3.88s.03,14.73.03,14.73c1.23.1,2.42.16,3.56.16,4.52,0,8.16-1.04,9.58-5.4.75-2.3.54-4.43-.85-6.63-.86-1.37-3.07-2.86-5.16-2.86Z" style="fill: none;"/>
      <path d="M168.8,256.28l-2.42-.5,2.28-.93c4.75-1.94,6.77-6.37,5.04-11.02-.99-2.66-4.18-4.68-7.41-4.72l-11.37-.12c-.09,0-.28.06-.43.12l.11.81v.05s0,.05,0,.05v34.55s10.73.03,10.73.03c3.09,0,6.09-1.25,8.26-3.42,1.74-1.74,2.54-4.05,2.46-7.04-.16-5.57-4.62-7.31-7.26-7.85ZM157.58,253.96l.05-11.48v-.76s.76,0,.76,0l7.24.09c1.98.02,4,1.57,4.74,3,.88,1.71.95,3.73.18,5.54-.8,1.88-2.4,3.35-4.3,3.92-1.76.53-3.31.78-4.85.78-1.06,0-2.11-.12-3.22-.35l-.6-.13v-.61ZM167.54,271.54c-1.49.34-3.06.49-4.96.49-1.19,0-2.37-.06-3.62-.12l-.61-.03-.72-.03v-.72s.02-12.83.02-12.83v-.77s.77.02.77.02l8.38.26c3.39.1,5.86,3.34,6.04,6.29.19,3.06-1.57,6.6-5.3,7.44Z"/>
      <path d="M72.96,249.8c-.44-.1-.94-.16-1.44-.16-.54,0-1.07.06-1.56.18l-6.33,20.41-.75,2.43-.68-2.46-5.72-20.54-2.94.08,7.43,24.7c.59.07,1.21.11,1.84.11.49,0,.99-.02,1.5-.07l6.11-19.5.74-2.35.7,2.36,5.76,19.46,3.46-.03,7.37-24.72h-2.77l-5.54,20.27-.71,2.6-.74-2.59-5.73-20.2Z"/>
      <path d="M11.31,239.07H.01s0,35.43,0,35.43c.55.06,1.08.08,1.58.08s1.03-.03,1.53-.09l.03-12.95v-.72s.72-.02.72-.02l6.93-.23c4.81-.16,8.98-3.4,10.16-7.87.82-3.1.51-6.16-.92-9.08-2.11-2.88-5.3-4.53-8.75-4.53ZM17.76,252.26c-1.72,5.25-6.4,5.92-10.29,5.92-1.03,0-2.18-.05-3.62-.16l-.69-.05v-.69s-.03-14.74-.03-14.74v-.75s.75,0,.75,0h7.16c2.36.01,4.79,1.65,5.79,3.22,1.47,2.32,1.77,4.7.93,7.26Z"/>
      <path d="M110.92,250.77c-1.66-1.23-3.83-1.91-6.11-1.91-1.62,0-3.27.34-4.79.99-6.6,2.83-8.17,11.1-6.3,17.82,1.09,3.92,4.24,6.76,8.22,7.42.98.16,1.98.24,2.97.24,2.98,0,5.77-.72,8.09-2.09.14-.1.28-.39.34-.78.09-.54.02-1.14-.13-1.6-2.8,1.61-5.18,2.34-7.63,2.34-.52,0-1.06-.04-1.59-.11-4.98-.66-8.34-4.94-7.82-9.94l.07-.67h.68s17.9-.03,17.9-.03c.49-5.15-.95-9.48-3.91-11.68ZM111.34,260.04l-.22.39h-.44s-13.85-.1-13.85-.1h-.89s.16-.89.16-.89c.54-2.94,1.69-5,3.71-6.68,1.36-1.12,2.91-1.7,4.6-1.7.88,0,1.81.16,2.77.46,1.68.54,3.29,2.22,4.11,4.29.63,1.61.65,3.15.05,4.22Z"/>
      <path d="M37.88,248.84c-6.79.02-11.73,4.03-12.59,10.22-.59,4.24-.4,10.02,3.85,13.49,2.24,1.83,5.03,2.8,8.06,2.8,1.51,0,3.04-.24,4.54-.72,7.39-2.35,8.86-10.15,7.88-16.11-.98-5.97-5.47-9.68-11.71-9.68v-.37s-.01,0-.02,0l-.02.37ZM41.12,251.75c2.84,1.07,4.92,3.91,5.45,7.41.87,5.84-.54,12.52-7.11,13.76-.63.12-1.27.18-1.91.18-4.57,0-8.23-3.02-9.11-7.52-1.15-5.87.42-10.78,4.2-13.14,1.49-.93,3.1-1.4,4.79-1.4,1.2,0,2.43.24,3.68.7Z"/>
      <rect x="182.58" y="239" width="3.4" height="35.59"/>
      <path d="M132.91,248.87c-2.44,0-4.36,1.33-6.44,4.46l-1.26,1.89-.12-2.27-.17-3.24-2.87.02v24.77c.48.04.93.06,1.37.06.51,0,.98-.03,1.45-.09l.03-14.36c0-1.08.38-2.5,1.12-4.22,1.23-2.85,3.51-4.43,6.41-4.43.69,0,1.4.09,2.13.27l-.1-2.71c-.55-.11-1.07-.17-1.56-.17Z"/>
    </g>
    <g>
      <path d="M160.69,167.13c5.01,1.67,14.22-.35,14.23-7.55l.08-99.44c0-3.35-4.59-6.72-7.62-7.64L28.15,10.23c-3.26-.99-6.99.03-9.3,1.85s-3.82,5.36-3.81,8.93l.07,63.88c0,2.93-1.88,4.99-4.45,5.23-1.87.17-5.15-2.07-5.15-4.51l.13-66.47c.02-10.3,11.34-21.87,22.34-18.56l141.68,42.71c6.92,2.09,14.49,7.75,14.48,15.7l-.15,102.76c-.01,9.8-12.99,17.79-21.15,15.36l-18.74-5.57c-1.73-.51-3.51-3.72-3.21-5.33.36-1.89,3.96-4.36,5.96-3.7l13.85,4.62Z"/>
      <path d="M127.51,183.14c0,7.52-7.51,11.85-12.65,11.36-7.84-.75-10.93-6.57-10.93-13.9v-99.6c0-7.15,2.42-13.01,9.92-14.24,5.9-.97,13.68,3.65,13.67,11.21v105.16Z"/>
      <path d="M93,170.13c.02,7.29-5.71,11.45-11.42,11.75-5.33.27-12.31-3.55-12.32-10.29l-.13-79.68c-.01-6.57,4.77-11.24,10.71-12.03,5.11-.68,12.98,3.52,12.99,10.34l.16,79.92Z"/>
      <path d="M57.95,158.1c-.02,6.91-7.09,10.1-12.24,9.83-4.85-.26-11.08-4.17-11.07-10.51l.09-54.09c0-6.25,7.09-10.24,11.91-10.15,5.39.1,11.48,4.5,11.47,10.63l-.15,54.28Z"/>
      <path d="M23.77,145.14c0,6.68-5.87,11.11-11.21,11.47-5.66.38-12.34-4.43-12.34-10.73v-30.15c0-6.04,6.19-10.64,11.43-10.65,5.75,0,12.06,4.35,12.07,11l.04,29.06Z"/>
    </g>
    <g>
      <rect x="14.34" y="214" width="13.03" height="13.01" style="fill: #fdb508;"/>
      <rect x=".03" y="214" width="13.03" height="13.01" style="fill: #00a7ec;"/>
      <rect y="199.69" width="13.1" height="13.07" style="fill: #fc2d0d;"/>
      <rect x="14.26" y="199.66" width="13.17" height="13.15" style="fill: #4ac100;"/>
      <polygon points="50.29 221.44 50.22 209.01 45.22 221.45 43.24 221.44 38.18 209.01 38.12 221.46 35.46 221.45 35.49 205.25 39.53 205.26 44.3 217.27 49.21 205.25 53.11 205.22 53.09 221.44 50.29 221.44"/>
      <rect x="55.79" y="209.89" width="2.7" height="11.56"/>
      <path d="M124.76,218.23c0,.56.53,1.1.89,1.21.56.18,1.08.08,1.83-.23l.04,2.16c-.98.35-1.95.5-2.98.32-1.52-.26-2.49-1.51-2.5-3.1l-.04-6.53h-4.12s0,9.38,0,9.38h-2.77s0-9.36,0-9.36l-1.91-.02v-2.17s1.9,0,1.9,0l.02-1.78c.01-1.05.41-2.17,1.17-2.91,1.23-1.2,2.98-1.44,4.62-.95l.02,2.27-1.36-.27c-.85-.17-1.63.69-1.65,1.52l-.05,2.11h4.14s.02-2.67.02-2.67l2.72-.84.02,3.52h2.75s0,2.16,0,2.16l-2.76.02v6.15Z"/>
      <path d="M87.79,220.95c-2.09,1.16-4.63,1.09-6.63-.04-2.55-1.44-3.15-5.21-2-8.02.55-1.35,1.61-2.39,2.98-2.88,2.97-1.05,6.61-.38,7.88,2.67,1.18,2.81.57,6.71-2.24,8.27ZM87.27,218.05c.74-1.56.71-3.46-.09-4.9-.68-1.23-2.19-1.6-3.46-1.24-1.91.53-2.53,2.64-2.25,4.69.19,1.43,1.09,2.56,2.39,2.85s2.78-.06,3.41-1.39Z"/>
      <path d="M112.32,218.39c-1.34,3.3-5.51,4.17-8.49,2.73-2.08-1.01-2.96-3.12-2.93-5.37.03-2.05.67-4.06,2.47-5.19s4.26-1.28,6.29-.5c3.16,1.21,3.85,5.4,2.66,8.34ZM107.99,219.38c1.95-.6,2.22-2.82,1.97-4.85-.2-1.61-1.41-2.68-2.91-2.74s-2.79.82-3.15,2.33c-.23.95-.24,2.03-.04,2.99.4,1.88,2.24,2.85,4.13,2.28Z"/>
      <path d="M99.62,218.63c-.36,3.06-4.6,3.85-7.71,2.48v-2.59c1.32.82,2.66,1.34,4.21.98.5-.12.82-.64.8-1.13-.07-2.01-5.55-1.42-4.96-5.76.38-2.79,4.13-3.7,7.05-2.55v2.49c-1.55-1.06-4.01-1.19-4.3.11-.53,2.42,5.43,1.58,4.91,5.98Z"/>
      <path d="M66.43,219.53c1.14.08,2.07-.39,3.09-.95v2.43c-2.12,1.02-4.6,1.1-6.6-.15-3.35-2.09-3.17-7.54-.53-9.81,1.98-1.7,4.75-1.86,7.13-.91v2.58c-1.78-1.19-3.75-1.31-5.18.03-.82.77-1.09,1.85-1.12,2.99-.05,1.95,1.08,3.64,3.21,3.79Z"/>
      <path d="M74.36,221.45l-2.72-.03v-11.52s2.71,0,2.71,0l.08,1.81c.72-1.59,2.19-2.43,3.93-1.9v2.69c-1.04-.51-2.21-.65-3.05.24-.44.46-.93,1.38-.93,2.05l-.02,6.67Z"/>
      <path d="M57.64,207.94c-1.08.23-1.91-.25-2.11-1.18-.19-.84.37-1.68,1.34-1.86.82-.15,1.63.33,1.86,1.04.27.84-.12,1.79-1.08,1.99Z"/>
    </g>
  </g>
</svg>