<?xml version="1.0" encoding="UTF-8"?>
<svg id="Layer_2" data-name="Layer 2" xmlns="http://www.w3.org/2000/svg" viewBox="0 0 152.26 59.35">
  <g id="Capa_1" data-name="Capa 1">
    <g>
      <polygon points="51.38 3.95 52.25 3.95 52.25 10.52 54.73 10.52 54.73 11.29 51.38 11.29 51.38 3.95" style="fill: #fff;"/>
      <path d="M55.44,5.19c-.1-.09-.15-.22-.15-.38s.05-.28.16-.37c.11-.1.24-.14.41-.14.15,0,.28.05.38.14.1.1.16.22.16.37s-.05.28-.16.37c-.1.1-.23.15-.38.15-.17,0-.31-.05-.41-.14M55.42,6.24h.83v5.05h-.83v-5.05Z" style="fill: #fff;"/>
      <path d="M58.3,11.07c-.39-.23-.68-.55-.86-.96-.17-.39-.25-.84-.25-1.34s.08-.96.25-1.33c.19-.42.47-.75.86-.98.38-.23.85-.34,1.39-.34.71,0,1.29.2,1.72.58.19.17.33.38.44.61.11.24.16.5.17.78h-.89c-.03-.37-.16-.67-.4-.91-.12-.11-.27-.19-.45-.26-.18-.06-.37-.09-.59-.09-.34,0-.63.07-.87.22-.24.15-.42.36-.55.63-.12.27-.19.63-.19,1.07s.06.79.19,1.07c.12.26.31.47.55.62.24.15.53.22.87.22.22,0,.42-.03.6-.09.18-.06.32-.14.44-.26.12-.1.21-.23.28-.38.06-.15.1-.32.11-.5h.9c-.03.57-.23,1.04-.6,1.38-.21.19-.46.33-.75.43-.3.1-.62.15-.97.15-.53,0-.99-.11-1.38-.34" style="fill: #fff;"/>
      <path d="M66.76,9.98c.07-.14.11-.3.12-.46h.83c-.04.53-.24.96-.6,1.3-.22.19-.48.34-.79.44-.31.1-.65.15-1.02.15-.57,0-1.05-.11-1.46-.34-.4-.23-.69-.55-.87-.98-.17-.35-.26-.79-.26-1.32,0-.27.02-.51.06-.73.04-.22.11-.42.2-.6.19-.42.47-.74.86-.97.39-.23.86-.35,1.4-.35s1.01.11,1.4.34c.38.23.67.54.85.95.1.22.17.46.2.7.04.24.06.53.06.85h-4.19c.02.37.08.67.19.9.12.28.32.49.58.64.26.15.58.22.97.22.25,0,.48-.03.68-.09s.38-.16.51-.28c.11-.1.2-.23.27-.37M63.74,7.68c-.08.19-.14.41-.17.64h3.32c-.03-.26-.08-.49-.17-.69-.12-.27-.3-.47-.55-.61-.25-.14-.56-.21-.92-.21-.75,0-1.25.29-1.51.87" style="fill: #fff;"/>
      <path d="M72.63,6.65c.33.36.49.89.49,1.58v3.06h-.83v-2.9c0-.53-.11-.92-.32-1.18-.21-.25-.55-.37-.99-.37-.47,0-.83.13-1.09.41s-.38.66-.38,1.18v2.87h-.83v-5.05h.83v.69c.35-.54.9-.81,1.67-.81.63,0,1.11.18,1.44.53" style="fill: #fff;"/>
      <path d="M75.13,11.07c-.39-.23-.68-.55-.86-.96-.17-.39-.25-.84-.25-1.34s.08-.96.25-1.33c.19-.42.47-.75.86-.98.38-.23.85-.34,1.39-.34.71,0,1.29.2,1.72.58.19.17.33.38.44.61.11.24.16.5.17.78h-.89c-.03-.37-.16-.67-.4-.91-.12-.11-.27-.19-.45-.26-.18-.06-.37-.09-.59-.09-.34,0-.63.07-.87.22-.24.15-.42.36-.55.63-.12.27-.19.63-.19,1.07s.06.79.19,1.07c.12.26.31.47.55.62.24.15.53.22.87.22.22,0,.42-.03.6-.09.18-.06.32-.14.44-.26.12-.1.21-.23.28-.38.06-.15.1-.32.11-.5h.9c-.03.57-.23,1.04-.6,1.38-.21.19-.46.33-.75.43-.3.1-.62.15-.97.15-.53,0-.99-.11-1.38-.34" style="fill: #fff;"/>
      <path d="M79.81,5.19c-.1-.09-.15-.22-.15-.38s.05-.28.16-.37c.1-.1.24-.14.4-.14.15,0,.28.05.38.14.1.1.16.22.16.37s-.05.28-.16.37c-.1.1-.23.15-.38.15-.17,0-.31-.05-.41-.14M79.79,6.24h.83v5.05h-.83v-5.05Z" style="fill: #fff;"/>
      <path d="M86.17,8.3v2.99h-.83v-.72c-.37.56-.99.84-1.87.84-.43,0-.8-.07-1.1-.22-.3-.15-.52-.36-.64-.63-.08-.2-.12-.42-.12-.67s.04-.46.12-.64c.16-.35.44-.6.85-.73.4-.14.92-.2,1.55-.2h1.22v-.17c0-.15-.01-.29-.03-.41-.02-.12-.05-.23-.1-.34-.17-.4-.58-.59-1.23-.59s-1.08.19-1.26.56c-.06.15-.09.3-.09.45h-.84c.01-.31.07-.55.16-.74.14-.33.38-.57.73-.73.35-.16.78-.24,1.29-.24s.95.08,1.28.25c.33.16.57.41.71.75.14.3.21.69.21,1.18M84.62,10.52c.25-.13.44-.33.56-.6.11-.24.17-.55.17-.91v-.05h-1.15c-.44,0-.8.04-1.09.12-.29.08-.48.22-.57.42-.05.11-.07.22-.07.33,0,.12.02.25.07.37.08.18.21.31.42.39.2.08.44.12.73.12.37,0,.69-.07.94-.2" style="fill: #fff;"/>
      <path d="M92.04,3.95v7.34h-.82v-.77c-.19.29-.44.51-.75.66-.31.15-.67.22-1.06.22-.48,0-.9-.11-1.26-.33-.35-.22-.62-.52-.8-.92-.18-.4-.27-.87-.27-1.39s.09-.99.27-1.39c.18-.4.45-.71.8-.93.35-.22.77-.33,1.26-.33.39,0,.74.07,1.05.22.31.15.56.37.75.65v-3.04h.83ZM91.2,8.64c0-.38-.07-.71-.2-.98-.13-.27-.32-.47-.56-.61-.24-.14-.52-.21-.85-.21s-.64.07-.89.22c-.25.15-.44.36-.56.65-.13.28-.2.64-.2,1.06s.07.76.2,1.06c.12.28.31.49.56.64.25.15.55.22.89.22s.61-.07.85-.21c.24-.14.43-.34.56-.61.13-.27.2-.59.2-.98v-.25Z" style="fill: #fff;"/>
      <path d="M94.09,11.06c-.38-.24-.67-.56-.86-.98-.17-.37-.26-.81-.26-1.32s.09-.93.26-1.32c.19-.42.47-.74.86-.98.38-.24.85-.35,1.41-.35s1.02.12,1.41.35c.38.23.67.56.86.98.17.4.26.84.26,1.32s-.09.92-.26,1.32c-.19.42-.47.74-.86.98-.38.23-.85.35-1.41.35s-1.02-.12-1.41-.35M96.4,10.46c.24-.15.42-.36.55-.63.12-.28.19-.63.19-1.07s-.06-.8-.19-1.07c-.13-.27-.31-.48-.55-.63-.24-.15-.54-.22-.9-.22s-.66.07-.91.22c-.25.15-.43.36-.55.63-.12.27-.19.63-.19,1.07s.06.79.19,1.07c.12.27.31.48.55.63.24.15.54.22.9.22s.66-.07.9-.22" style="fill: #fff;"/>
      <path d="M99.53,11.18c-.33-.16-.56-.4-.7-.72-.11-.24-.17-.53-.17-.86h.82c0,.23.04.42.11.57.17.4.57.6,1.18.6.3,0,.55-.04.74-.12.2-.08.33-.21.4-.37.05-.12.07-.24.07-.33,0-.12-.02-.22-.06-.3-.06-.12-.14-.21-.26-.28-.12-.07-.26-.13-.43-.18-.16-.04-.39-.1-.69-.16-.41-.09-.75-.21-1.02-.35-.27-.14-.46-.34-.57-.59-.07-.16-.1-.34-.1-.54,0-.21.04-.4.13-.57.12-.27.33-.48.63-.63.3-.15.67-.22,1.11-.22s.83.08,1.13.22c.31.15.52.37.66.66.1.2.14.45.14.75h-.8c0-.17-.04-.34-.1-.49-.08-.17-.21-.3-.39-.39-.18-.09-.4-.13-.65-.13s-.47.04-.63.11c-.16.08-.27.18-.34.32-.04.09-.06.19-.06.3,0,.1.02.18.05.25.06.12.15.21.28.29.13.08.27.14.42.18.15.04.37.1.67.16.44.1.8.23,1.07.37.27.14.46.34.58.6.07.16.1.34.1.55,0,.23-.04.45-.12.63-.13.3-.37.52-.72.68-.35.16-.76.23-1.25.23s-.91-.08-1.24-.24" style="fill: #fff;"/>
      <path d="M110.6,8.77c0,.53-.09.99-.27,1.39-.18.4-.45.7-.8.92-.35.22-.77.33-1.26.33-.39,0-.74-.07-1.05-.22-.31-.15-.56-.36-.74-.64v2.85h-.83v-7.15h.81v.78c.19-.3.43-.52.74-.68.31-.15.66-.23,1.06-.23.49,0,.91.11,1.26.33.35.22.61.53.8.93.18.4.27.87.27,1.39M109.72,8.77c0-.42-.07-.77-.2-1.06-.13-.28-.31-.5-.56-.64-.24-.15-.54-.22-.88-.22s-.61.07-.85.21c-.24.14-.43.34-.56.61-.13.27-.2.6-.2.98v.25c0,.38.07.71.2.98.13.27.32.47.56.61.24.14.53.21.85.21s.63-.08.88-.23c.25-.15.43-.36.56-.64.13-.3.2-.65.2-1.06" style="fill: #fff;"/>
      <path d="M112.41,11.06c-.38-.24-.67-.56-.86-.98-.17-.37-.26-.81-.26-1.32s.09-.93.26-1.32c.19-.42.47-.74.86-.98.38-.24.85-.35,1.41-.35s1.02.12,1.41.35c.38.23.67.56.86.98.17.4.26.84.26,1.32s-.09.92-.26,1.32c-.19.42-.47.74-.86.98-.38.23-.85.35-1.41.35s-1.02-.12-1.41-.35M114.73,10.46c.24-.15.42-.36.55-.63.12-.28.19-.63.19-1.07s-.06-.8-.19-1.07c-.13-.27-.31-.48-.55-.63-.24-.15-.54-.22-.9-.22s-.66.07-.91.22c-.25.15-.43.36-.55.63-.12.27-.19.63-.19,1.07s.06.79.19,1.07c.12.27.31.48.55.63.24.15.55.22.91.22s.66-.07.9-.22" style="fill: #fff;"/>
      <path d="M120,6.24v.75c-.16-.03-.33-.05-.51-.05-.45,0-.79.13-1.02.4-.23.27-.34.65-.34,1.15v2.81h-.83v-5.05h.82v.66c.14-.23.32-.41.55-.53.23-.13.5-.19.82-.19.18,0,.35.02.51.06" style="fill: #fff;"/>
      <g>
        <path d="M19.4,42.53c-.63-.08-1.26-.15-1.88-.25-3.25-.52-6.18-1.8-8.82-3.74-4.51-3.31-7.26-7.75-8.4-13.19C0,23.91,0,22.45,0,20.98c-.02-4.21,1.17-8.06,3.52-11.52C6.86,4.56,11.42,1.43,17.31.35c11.15-2.05,21.96,5.06,24.49,16.08,2.57,11.22-3.99,22.32-15.06,25.42-1.03.29-2.12.4-3.18.59-.11.02-.23.06-.34.08h-3.83ZM41.56,21.29c0-11.31-9.18-20.51-20.45-20.51C9.96.78.74,10.03.73,21.24c-.02,11.38,9.1,20.58,20.4,20.59,11.35,0,20.43-9.13,20.44-20.53" style="fill: #fff;"/>
        <path d="M14.95,5.56c.92,2.7,1.85,5.4,2.77,8.1-.05.02-.1.05-.14.07-1.74-2.18-3.48-4.37-5.22-6.55-.02.02-.05.03-.07.05,1.42,2.41,2.84,4.81,4.25,7.22-.04.04-.08.08-.12.11-2.15-1.8-4.31-3.6-6.46-5.39-.02.02-.04.04-.06.06,1.88,2.08,3.76,4.16,5.64,6.23-.03.04-.07.09-.1.13-2.43-1.3-4.86-2.61-7.29-3.91-.02.03-.03.06-.05.08,2.2,1.62,4.41,3.24,6.61,4.86-.03.05-.05.1-.08.15-2.63-.78-5.26-1.57-7.89-2.35l-.04.09c2.49,1.14,4.97,2.29,7.46,3.43l-.03.17c-2.81-.25-5.62-.49-8.43-.74,0,.03-.01.06-.02.08,2.75.64,5.51,1.28,8.26,1.92,0,.05,0,.1,0,.16-2.87.33-5.73.66-8.6.99v.07c2.86.07,5.72.14,8.58.22,0,.05,0,.09,0,.14-.74.11-1.48.23-2.22.34-2.39.34-4.77.68-7.16,1.02-.69.1-1.38.2-2.06.31-.41.07-.55-.1-.57-.51-.22-5.75,1.63-10.69,5.82-14.69,2.76-2.64,5.98-4.47,9.73-5.32,3.87-.87,7.6-.32,11.17,1.32,4.51,2.08,8.02,5.23,10.08,9.82,1.4,3.12,1.94,6.4,1.58,9.82-.02.2-.03.41-.06.66-4.11-.89-8.2-1.78-12.28-2.67,0-.05.01-.1.02-.16h9.07s0-.08,0-.12c-3.01-.38-6.02-.77-9.03-1.15,0-.05,0-.1-.01-.15,2.81-.61,5.62-1.23,8.43-1.84,0-.02,0-.05-.01-.07l-8.57.64c-.01-.05-.03-.11-.04-.16,2.58-1.14,5.16-2.29,7.75-3.43,0-.02-.02-.05-.02-.08l-8.21,2.34s-.04-.1-.07-.15l6.84-4.88s-.03-.05-.04-.08c-2.49,1.3-4.98,2.59-7.46,3.89-.04-.04-.07-.08-.11-.13,1.89-2.03,3.78-4.07,5.67-6.1-.02-.02-.04-.05-.06-.07-2.15,1.75-4.3,3.5-6.45,5.25-.04-.03-.08-.07-.13-.11,1.42-2.34,2.84-4.69,4.27-7.03-.03-.02-.06-.04-.09-.06-1.74,2.12-3.47,4.25-5.21,6.37-.05-.03-.09-.06-.14-.09.95-2.65,1.9-5.31,2.84-7.96-.03-.01-.05-.02-.08-.03l-3.9,7.47-.16-.04c.4-2.83.8-5.66,1.2-8.48-.03,0-.05-.01-.08-.02-.78,2.73-1.57,5.46-2.35,8.19-.05,0-.11,0-.16,0-.19-2.93-.37-5.86-.56-8.79-.02,0-.03,0-.05,0-.22,2.92-.45,5.85-.67,8.77-.05,0-.11.02-.16.02-.74-2.72-1.49-5.44-2.23-8.16-.03,0-.06.01-.08.02.36,2.82.72,5.64,1.08,8.45-.05.02-.1.04-.15.05-1.29-2.56-2.58-5.12-3.87-7.68-.03.01-.05.02-.08.03" style="fill: #fff;"/>
        <path d="M18.59,39.95c-2.78.06-5.3-.79-7.64-2.23-4.3-2.64-7.22-6.33-8.49-11.25-.22-.85-.31-1.74-.46-2.61-.07-.4.17-.53.51-.57,1.28-.16,2.56-.32,3.83-.47,2.01-.25,4.02-.51,6.03-.75,1.91-.23,3.82-.46,5.73-.67,1.1-.12,2.21-.22,3.32-.26.52-.02,1.05.12,1.57.25.5.12.64.4.54.9-.17.88-.7,1.47-1.52,1.76-.95.33-1.93.56-2.87.9-.66.24-1.33.51-1.92.89-.8.5-.91,1.25-.28,1.96.5.56,1.09,1.04,1.68,1.51,1.56,1.23,3.15,2.41,4.7,3.65,1,.8,1.87,1.73,2.53,2.84.65,1.09.51,1.69-.54,2.38-1.74,1.15-3.68,1.65-5.74,1.78-.32.02-.65,0-.98,0" style="fill: #fff;"/>
        <path d="M30.47,38.15c-.05-.64-.06-1.26-.17-1.87-.24-1.3-.99-2.32-1.87-3.26-1.27-1.35-2.78-2.39-4.38-3.3-1.48-.84-2.98-1.64-4.47-2.46-.21-.12-.42-.26-.72-.44.58-.27,1.08-.5,1.57-.73.59-.28,1.18-.54,1.76-.83.88-.44,1.55-1.11,1.87-2.04.13-.37.16-.81.11-1.21-.07-.6-.02-.68.6-.66,2.23.07,4.4.56,6.56,1.04,2.83.62,5.63,1.34,8.45,1.99.42.1.47.3.41.65-.98,5.87-4.28,10.07-9.38,12.97-.11.06-.23.11-.36.16" style="fill: #fff;"/>
        <path d="M17.51,16.06c-.45.09-.95.13-1.44-.28.21-.09.37-.18.54-.23,1.24-.42,2.48-.87,3.74-1.25.34-.1.77-.1,1.11,0,1.34.4,2.67.87,3.99,1.31.17.06.33.13.59.24-.65.31-1.21.58-1.71.82,0,.57.01,1.1-.01,1.63,0,.09-.13.19-.23.25-1.81,1.05-3.67,1.26-5.56.21-.77-.42-1-1.17-.6-1.96-.11-.04-.21-.08-.35-.14-.02.08-.05.13-.05.18.06,1,.11,2.01.18,3.01.02.31-.06.52-.49.62-.07-.25-.21-.5-.2-.75.04-.92.1-1.83.2-2.74.03-.3.18-.59.29-.9" style="fill: #fff;"/>
      </g>
      <path d="M54.34,18.04s0,.05-.01.15c0,.09,0,.17,0,.24l.02.46c0,.06-.02.09-.05.09-.04,0-.06-.03-.07-.08-.03-.21-.12-.34-.26-.4-.14-.06-.4-.09-.77-.11-.22-.01-.43,0-.61.04-.01.13-.02.53-.02,1.2v1.16h.52c.32,0,.52-.01.6-.04.08-.02.14-.09.17-.19.02-.04.03-.08.03-.13.02-.06.04-.08.07-.08.03,0,.05.02.05.06,0,0,0,.08-.01.21,0,.13-.01.25-.01.34s0,.22,0,.39c0,.17,0,.26,0,.28,0,.04-.01.06-.05.06-.04,0-.06-.02-.06-.05,0-.2-.05-.33-.16-.39-.1-.06-.3-.09-.6-.09h-.57v1.03c.01.62.05,1.04.14,1.26.09.22.25.36.5.41.12.03.18.06.18.09,0,.04-.03.07-.07.07-.09,0-.31,0-.64-.03-.33-.01-.59-.02-.78-.02-.04,0-.18,0-.43.02-.25.01-.38.02-.39.02-.05,0-.08-.02-.08-.06,0-.03.03-.06.09-.08.22-.06.36-.18.4-.37.04-.18.06-.76.06-1.74v-2.71c0-.13,0-.25-.02-.37-.02-.12-.03-.2-.04-.24-.01-.04-.04-.08-.09-.12-.05-.04-.09-.06-.13-.06-.03,0-.1-.01-.19-.03-.06-.01-.09-.04-.09-.07,0-.04.04-.07.11-.07h1.09c.72,0,1.41-.01,2.05-.06h.08s.04,0,.04.03" style="fill: #fff;"/>
      <path d="M57.15,19.25c.06,0,.09.02.09.05s-.02.05-.08.06c-.2.02-.33.06-.4.11-.07.06-.12.17-.16.36-.04.19-.05.51-.05.96v1.3c.01.75.04,1.23.09,1.43.02.06.07.1.16.11.09.01.3.02.63.02.36,0,.61-.04.75-.1.14-.07.24-.19.32-.37.03-.06.06-.09.08-.09.04,0,.07.01.07.04,0,0-.01.04-.03.11l-.11.35s-.03.09-.04.15c-.02.06-.03.11-.04.14-.01.04-.01.07-.01.07-.02.04-.04.07-.07.07h-.16c-.63-.03-1.19-.04-1.68-.04-.08,0-.24,0-.46,0-.22,0-.43.01-.62.02-.19,0-.29,0-.29,0-.05,0-.08-.01-.08-.05,0-.04.03-.07.08-.08.11-.01.18-.02.22-.04.05-.02.09-.05.14-.09.04-.04.07-.12.08-.24.01-.12.02-.25.03-.4,0-.15,0-.37,0-.69v-1.93c0-.36-.01-.61-.03-.75-.02-.14-.06-.23-.11-.27-.05-.04-.15-.07-.29-.08-.05,0-.08-.03-.08-.07,0-.03.03-.05.09-.05h.09s.06,0,.09,0c.04,0,.09,0,.14,0h.53c.29,0,.54,0,.76-.01.22,0,.33,0,.34,0" style="fill: #fff;"/>
      <path d="M61.73,19.18c.79,0,1.42.22,1.91.65.48.43.72,1.01.72,1.74s-.22,1.35-.66,1.79c-.44.44-1.07.67-1.88.67-.34,0-.66-.05-.96-.14-.3-.09-.58-.22-.83-.41-.25-.19-.45-.44-.6-.77-.15-.33-.22-.71-.22-1.14,0-.74.22-1.32.67-1.75.45-.43,1.06-.64,1.86-.64M61.7,19.49c-.47,0-.83.17-1.09.52-.25.34-.38.81-.38,1.38,0,.76.16,1.34.47,1.74.32.4.74.6,1.25.6.38,0,.7-.18.95-.54.25-.36.38-.83.38-1.41,0-.72-.14-1.28-.42-1.69-.28-.41-.67-.61-1.17-.61" style="fill: #fff;"/>
      <path d="M67.24,19.23c.48,0,.87.11,1.17.31.3.21.44.49.44.85,0,.3-.07.54-.21.74-.14.2-.33.38-.58.55.16.12.46.45.88.97.72.89,1.2,1.34,1.46,1.34.01,0,.04,0,.06,0,.03,0,.04,0,.05,0,.04,0,.06.02.06.06,0,.08-.22.12-.68.12-.57,0-1.04-.23-1.41-.67-.13-.15-.35-.43-.65-.85-.31-.41-.51-.66-.6-.74-.1.01-.25.02-.46.02v.61c0,.41.02.69.05.85.03.16.08.27.16.34.08.07.21.11.42.15.05.01.08.04.08.07,0,.04-.03.07-.1.07,0,0-.14,0-.42-.01-.28,0-.54-.01-.8-.01-.07,0-.21,0-.43.01-.22,0-.33.01-.34.01-.05,0-.08-.02-.08-.07,0-.03.02-.05.08-.06.22-.04.35-.12.38-.23.04-.12.06-.49.06-1.12v-2.36c0-.32-.03-.53-.1-.62-.07-.09-.21-.16-.44-.19-.04,0-.07-.03-.07-.07s.03-.06.1-.06c.02,0,.07,0,.17,0,.1,0,.22,0,.34.01.13,0,.23.01.31.01.07,0,.24,0,.51-.02.27-.02.47-.02.59-.02M67.05,19.53c-.11,0-.2.01-.27.03-.01.16-.02.48-.02.96v1.04c.13.02.29.03.46.03.22,0,.38-.05.48-.15.17-.16.26-.42.26-.76,0-.37-.08-.66-.25-.85-.17-.2-.39-.3-.67-.3" style="fill: #fff;"/>
      <path d="M71,19.24s.13,0,.34.02c.2.01.33.02.39.02.07,0,.27,0,.57-.02.31-.01.49-.02.56-.02s.09.02.09.06c0,.04-.03.06-.08.07-.16.03-.27.06-.33.12-.06.05-.1.15-.12.28-.02.13-.03.38-.02.74v2c.01.57.04.92.08,1.06.05.14.18.23.41.27.07.02.11.05.11.08,0,.04-.03.06-.08.06-.14,0-.32,0-.55-.01-.22,0-.39,0-.49,0-.03,0-.18,0-.45.02-.28.01-.43.01-.47.01-.05,0-.08-.02-.08-.06,0-.03.03-.05.08-.07.16-.04.26-.1.32-.16.06-.06.1-.2.13-.42.03-.21.04-.58.04-1.11v-1.63c0-.51-.03-.83-.07-.96-.05-.13-.18-.2-.4-.23-.05-.01-.08-.04-.08-.07,0-.04.03-.06.09-.06" style="fill: #fff;"/>
      <path d="M76.42,19.21c.86,0,1.5.21,1.94.63.44.42.66.95.66,1.6,0,.75-.25,1.37-.76,1.85-.51.48-1.24.72-2.18.72-.19,0-.45,0-.79-.02-.34-.02-.54-.03-.62-.03-.09,0-.19,0-.31,0-.12,0-.22.01-.3.01-.09,0-.13,0-.14,0-.05,0-.08-.03-.08-.08,0-.04.03-.07.09-.08.23-.03.37-.15.41-.34.04-.2.07-.81.07-1.84v-1.6c0-.09,0-.18-.02-.28-.01-.09-.03-.15-.04-.19-.01-.03-.04-.06-.09-.1-.04-.03-.09-.05-.13-.06-.04,0-.11-.02-.2-.03-.05-.01-.08-.04-.08-.08,0-.05.03-.07.09-.07.01,0,.11,0,.28.01.18,0,.33,0,.45,0,.06,0,.34-.01.84-.03.5-.02.8-.04.9-.04M76.1,19.52c-.16,0-.38.02-.66.07-.04.25-.05.66-.05,1.24v1.72c0,.5.04.82.09.97.1.14.32.22.65.22.6,0,1.05-.18,1.35-.54.3-.35.45-.87.45-1.54s-.16-1.15-.47-1.54c-.31-.39-.76-.59-1.36-.59" style="fill: #fff;"/>
      <path d="M82.12,19.21s.08.04.12.1l.32.74,1.14,2.66c.18.43.33.72.45.87.11.15.25.24.43.27.09.01.13.04.13.08,0,.04-.02.07-.06.07-.01,0-.09,0-.22-.01-.14,0-.31-.01-.5-.01-.2,0-.37-.01-.52-.01-.07,0-.2,0-.4.01-.2,0-.33.01-.4.01-.04,0-.07-.02-.07-.07,0-.05.04-.07.11-.08.23-.04.35-.13.35-.26,0-.09-.04-.24-.12-.45l-.34-.84h-1.55s-.37.78-.37.78c-.09.19-.13.35-.13.46,0,.17.12.27.35.3.06,0,.09.03.09.07,0,.05-.03.07-.08.07-.03,0-.15,0-.35-.02-.2-.01-.34-.02-.41-.02-.08,0-.21,0-.39.02-.18.01-.28.02-.31.02-.04,0-.07-.02-.07-.06s.03-.06.08-.08c.15-.02.29-.11.4-.25.12-.14.29-.44.51-.88l1.3-2.56c.06-.12.2-.41.42-.87.04-.06.07-.09.09-.09M81.83,20.55l-.69,1.43,1.26-.02-.57-1.41Z" style="fill: #fff;"/>
      <path d="M90.39,18.01c1.02,0,1.79.26,2.3.78.51.52.77,1.19.77,2.01,0,.95-.3,1.72-.89,2.31-.59.6-1.45.9-2.58.9-.23,0-.55-.01-.95-.03-.41-.02-.65-.03-.73-.03-.11,0-.23,0-.38,0-.14,0-.26,0-.37.01-.1,0-.15.01-.16.01-.06,0-.09-.03-.09-.07s.04-.07.1-.08c.28-.03.44-.18.49-.43.05-.25.08-1.03.08-2.34v-1.48c0-.63-.03-1.01-.08-1.13-.05-.13-.22-.21-.5-.25-.06-.01-.09-.04-.09-.08s.04-.06.11-.06c.01,0,.12,0,.34,0,.21,0,.4,0,.55,0,.06,0,.4-.02,1.01-.04.61-.03.97-.04,1.08-.04M90.01,18.35c-.39,0-.7.03-.95.09-.04.28-.06.79-.06,1.53v2.2c.01.65.04,1.07.1,1.25.03.1.16.17.38.22.22.04.41.06.57.06.76,0,1.32-.23,1.7-.69.38-.46.57-1.11.57-1.96,0-.8-.2-1.45-.59-1.96-.39-.5-.96-.75-1.72-.75" style="fill: #fff;"/>
      <path d="M97.4,19.2s.04,0,.04.03c0,0,0,.05-.01.14,0,.09,0,.15,0,.17v.34c0,.06-.02.08-.05.08-.03,0-.05-.03-.07-.08-.05-.23-.33-.34-.82-.34-.21,0-.41,0-.59.02-.01.16-.02.48-.02.94v.88h.67c.26,0,.43-.02.51-.04.08-.03.14-.09.17-.18l.03-.1s.04-.07.07-.07c.03,0,.05.02.05.06,0,0,0,.04-.01.11,0,.07-.02.14-.02.23,0,.09,0,.17,0,.23,0,.06,0,.15,0,.28,0,.12,0,.19,0,.21,0,.03-.02.05-.05.05s-.06-.02-.06-.05c-.02-.19-.06-.31-.14-.35-.08-.04-.24-.07-.5-.08h-.71s.01.85.01.85c0,.32.01.59.05.81.03.2.26.3.68.3.27,0,.45-.02.55-.07.11-.04.2-.12.28-.23.03-.05.06-.08.08-.08.03,0,.05.01.05.04s0,.06-.02.09c-.03.07-.06.16-.08.25-.04.13-.07.22-.08.29-.02.04-.03.05-.05.05l-.28-.02s-.19,0-.53-.01c-.34,0-.67,0-1,0-.1,0-.24,0-.42,0-.17,0-.33,0-.47,0-.14,0-.21,0-.21,0-.04,0-.07-.02-.07-.07,0-.04.03-.06.09-.07.19-.03.3-.07.34-.12.08-.09.12-.4.13-.93v-2.31c0-.33-.02-.57-.04-.71-.03-.15-.06-.24-.12-.28-.05-.04-.15-.08-.28-.09-.05,0-.08-.03-.08-.08,0-.04.03-.06.08-.06h.08c.05,0,.12,0,.2,0,.08,0,.17,0,.26,0h.56c.75,0,1.29-.02,1.63-.04.04,0,.08-.01.11-.02.03,0,.05,0,.06,0,.01,0,.02,0,.02,0" style="fill: #fff;"/>
      <path d="M100.58,19.21c.5,0,.9.1,1.2.3.3.19.45.49.45.89,0,.45-.16.83-.48,1.11-.32.29-.7.43-1.14.43-.17,0-.29-.01-.36-.04-.04-.02-.06-.05-.06-.09,0-.03.01-.05.04-.05,0,0,.04,0,.1,0,.07,0,.12.01.17.01.24,0,.42-.1.56-.32.14-.21.2-.49.2-.84,0-.38-.09-.66-.28-.84-.18-.18-.43-.26-.75-.26-.04,0-.14,0-.29.02-.01.08-.02.41-.02.98v2.04c.01.26.01.46.02.58.01.12.02.24.03.36.01.12.04.2.09.24.04.04.1.07.16.1.06.03.15.05.26.06.07,0,.1.03.1.07,0,.04-.04.07-.13.07-.04,0-.18,0-.43-.02-.25-.01-.51-.02-.75-.02-.04,0-.17,0-.41.02-.23.01-.35.02-.37.02-.05,0-.08-.03-.08-.07,0-.03.02-.05.08-.06.24-.05.38-.14.43-.29.05-.15.07-.62.07-1.4v-1.71c0-.47-.03-.76-.07-.88-.05-.12-.17-.19-.37-.23-.06-.01-.09-.03-.09-.07,0-.05.04-.07.11-.07,0,0,.09,0,.26.01.17.01.33.01.49.01.08,0,.28,0,.63-.02.34-.01.56-.02.64-.02" style="fill: #fff;"/>
      <path d="M104.74,19.21s.08.04.12.1l.32.74,1.14,2.66c.18.43.33.72.45.87.11.15.25.24.43.27.09.01.13.04.13.08,0,.04-.02.07-.06.07-.01,0-.09,0-.22-.01-.14,0-.31-.01-.5-.01-.2,0-.37-.01-.52-.01-.07,0-.2,0-.4.01-.2,0-.33.01-.4.01-.04,0-.07-.02-.07-.07,0-.05.04-.07.11-.08.23-.04.35-.13.35-.26,0-.09-.04-.24-.12-.45l-.34-.84h-1.55s-.37.78-.37.78c-.09.19-.13.35-.13.46,0,.17.12.27.35.3.06,0,.09.03.09.07,0,.05-.03.07-.08.07-.03,0-.15,0-.35-.02-.2-.01-.34-.02-.41-.02-.08,0-.21,0-.39.02-.18.01-.28.02-.31.02-.04,0-.07-.02-.07-.06s.03-.06.08-.08c.15-.02.29-.11.4-.25.12-.14.29-.44.51-.88l1.3-2.56c.06-.12.2-.41.42-.87.04-.06.07-.09.09-.09M104.44,20.55l-.69,1.43,1.26-.02-.57-1.41Z" style="fill: #fff;"/>
      <path d="M109.8,19.23c.48,0,.87.11,1.17.31.3.21.44.49.44.85,0,.3-.07.54-.21.74-.14.2-.33.38-.57.55.16.12.46.45.88.97.72.89,1.2,1.34,1.46,1.34.01,0,.04,0,.06,0,.03,0,.04,0,.05,0,.04,0,.06.02.06.06,0,.08-.22.12-.68.12-.57,0-1.04-.23-1.41-.67-.13-.15-.35-.43-.65-.85-.31-.41-.51-.66-.6-.74-.1.01-.25.02-.46.02v.61c0,.41.02.69.05.85.03.16.08.27.16.34.08.07.21.11.42.15.05.01.08.04.08.07,0,.04-.03.07-.1.07,0,0-.14,0-.42-.01-.28,0-.54-.01-.8-.01-.07,0-.21,0-.43.01-.22,0-.33.01-.34.01-.05,0-.08-.02-.08-.07,0-.03.02-.05.08-.06.22-.04.35-.12.38-.23.04-.12.06-.49.06-1.12v-2.36c0-.32-.03-.53-.1-.62-.07-.09-.21-.16-.44-.19-.04,0-.07-.03-.07-.07s.03-.06.1-.06c.02,0,.07,0,.17,0,.1,0,.22,0,.34.01.13,0,.23.01.31.01.07,0,.24,0,.51-.02.27-.02.47-.02.59-.02M109.61,19.53c-.11,0-.2.01-.27.03-.01.16-.02.48-.02.96v1.04c.13.02.29.03.46.03.22,0,.38-.05.48-.15.17-.16.26-.42.26-.76,0-.37-.08-.66-.25-.85-.17-.2-.39-.3-.67-.3" style="fill: #fff;"/>
      <path d="M112.98,19.16s.06,0,.09.01c.48.07,1.28.1,2.4.1.67,0,1.25-.02,1.72-.06.02,0,.05,0,.09,0,.03,0,.04.01.04.03v.12c-.01.08-.01.15-.01.22,0,.03,0,.13-.01.29,0,.16,0,.26,0,.3,0,.05-.02.08-.06.08-.03,0-.05-.02-.06-.08-.03-.21-.11-.35-.23-.42-.13-.07-.33-.11-.61-.12-.36,0-.62,0-.77,0-.02.07-.02.16-.02.29l.02,2.84c0,.37.02.61.04.74.02.13.07.21.13.26.06.04.19.08.38.1.06.01.09.04.09.08,0,.05-.02.08-.05.08-.02,0-.11,0-.26,0-.15,0-.33-.01-.55-.01-.22,0-.41,0-.58,0-.03,0-.15,0-.35.01-.2,0-.32.01-.36.01-.05,0-.08-.03-.08-.08,0-.04.03-.06.07-.07.18-.03.3-.06.37-.1.07-.04.11-.14.15-.28.03-.15.05-.39.05-.73v-2.88c0-.11,0-.18-.02-.23-.14,0-.37,0-.68,0-.28.01-.5.06-.64.13-.15.08-.25.21-.3.4-.01.05-.04.07-.08.07-.03,0-.04-.02-.04-.07,0-.09.02-.28.07-.55.02-.16.03-.29.03-.4,0-.03.01-.04.04-.04" style="fill: #fff;"/>
      <path d="M118.72,19.2c.06,0,.1.03.14.1.46.88,1.14,2.01,2.02,3.39l1.87-3.43s.04-.06.07-.06c.06,0,.09.01.09.04.03.32.08.63.13.94l.42,2.58c.07.46.15.75.22.87.08.13.21.21.39.24.08.02.12.05.12.08,0,.04-.03.06-.09.06-.06,0-.2,0-.44-.01-.23,0-.42,0-.54,0-.11,0-.28,0-.51.01-.23.01-.38.02-.46.02-.05,0-.08-.02-.08-.07,0-.04.04-.06.11-.08.16-.03.26-.07.32-.12.06-.04.09-.11.09-.18,0-.14-.02-.33-.05-.58l-.27-1.96-1.62,2.97c-.03.06-.06.09-.08.09-.01,0-.04-.03-.08-.09-.39-.78-.94-1.74-1.63-2.89l-.21,1.55c-.03.28-.05.51-.05.69,0,.31.17.49.53.54.06,0,.08.03.08.07,0,.04-.02.06-.07.06-.02,0-.16,0-.41-.02-.25-.01-.41-.02-.49-.02-.09,0-.23,0-.41.01-.18,0-.27.01-.3.01-.05,0-.08-.01-.08-.05,0-.04.03-.07.08-.08.22-.02.37-.08.42-.19.06-.1.13-.41.2-.91l.36-2.45c.05-.38.1-.74.12-1.06,0-.04.02-.07.08-.07" style="fill: #fff;"/>
      <path d="M127.76,19.2s.04,0,.04.03c0,0,0,.05-.01.14,0,.09,0,.15,0,.17v.34c0,.06-.02.08-.05.08-.03,0-.05-.03-.07-.08-.05-.23-.33-.34-.82-.34-.21,0-.41,0-.59.02-.01.16-.02.48-.02.94v.88h.67c.26,0,.43-.02.51-.04.08-.03.14-.09.17-.18l.03-.1s.04-.07.07-.07c.03,0,.05.02.05.06,0,0,0,.04-.01.11,0,.07-.02.14-.02.23,0,.09,0,.17,0,.23,0,.06,0,.15,0,.28,0,.12,0,.19,0,.21,0,.03-.02.05-.05.05s-.06-.02-.06-.05c-.02-.19-.06-.31-.14-.35-.08-.04-.24-.07-.5-.08h-.71s.01.85.01.85c0,.32.01.59.05.81.03.2.26.3.68.3.27,0,.45-.02.55-.07.11-.04.2-.12.28-.23.03-.05.06-.08.08-.08.03,0,.05.01.05.04s0,.06-.02.09c-.03.07-.06.16-.08.25-.04.13-.07.22-.08.29-.02.04-.03.05-.05.05l-.28-.02s-.19,0-.53-.01c-.34,0-.67,0-1,0-.1,0-.24,0-.42,0-.17,0-.33,0-.47,0-.14,0-.21,0-.21,0-.04,0-.07-.02-.07-.07,0-.04.03-.06.09-.07.19-.03.3-.07.34-.12.08-.09.12-.4.13-.93v-2.31c0-.33-.02-.57-.04-.71-.03-.15-.06-.24-.12-.28-.05-.04-.15-.08-.28-.09-.05,0-.08-.03-.08-.08,0-.04.03-.06.08-.06h.08c.05,0,.12,0,.2,0,.08,0,.17,0,.26,0h.56c.75,0,1.29-.02,1.63-.04.04,0,.08-.01.11-.02.03,0,.05,0,.06,0,.01,0,.02,0,.02,0" style="fill: #fff;"/>
      <path d="M129.44,19.08s.07.03.12.08c.29.26.67.61,1.16,1.04.49.43,1.01.89,1.57,1.37.55.48.91.8,1.08.94v-2.01c.01-.39-.02-.66-.09-.82-.07-.16-.21-.26-.42-.3-.07-.02-.1-.04-.1-.08,0-.04.03-.06.08-.06.03,0,.15,0,.36.01.21,0,.34.01.39.01.08,0,.21,0,.38-.02.17-.01.28-.02.3-.02.05,0,.08.02.08.05,0,.04-.03.06-.08.07-.22.03-.36.11-.4.22-.05.12-.08.42-.09.92-.02,1.41-.03,2.26-.03,2.54v1.05c0,.05-.01.08-.04.08-.01,0-.02-.01-.04-.03-.02-.02-.05-.05-.11-.11-.05-.05-.11-.11-.18-.17-1.02-.95-2.23-2.02-3.64-3.23v2.09c0,.5.02.8.05.92.04.12.16.19.36.21.07,0,.1.03.1.07s-.03.06-.08.06c-.03,0-.14,0-.33,0-.18,0-.31-.01-.37-.01-.08,0-.21,0-.39.01-.17,0-.27.01-.29.01-.05,0-.08-.01-.08-.05,0-.02.03-.05.08-.06.21-.07.35-.16.4-.27.05-.11.09-.41.1-.89.05-1.47.07-2.3.07-2.5v-1.07s.03-.07.1-.07" style="fill: #fff;"/>
      <path d="M135.02,19.16s.06,0,.09.01c.48.07,1.28.1,2.4.1.67,0,1.25-.02,1.72-.06.02,0,.06,0,.09,0,.03,0,.04.01.04.03v.12c-.01.08-.01.15-.01.22,0,.03,0,.13-.01.29,0,.16,0,.26,0,.3,0,.05-.02.08-.06.08-.03,0-.05-.02-.06-.08-.03-.21-.11-.35-.23-.42-.13-.07-.33-.11-.61-.12-.36,0-.62,0-.77,0-.02.07-.02.16-.02.29l.02,2.84c0,.37.02.61.04.74.02.13.07.21.13.26.06.04.19.08.38.1.06.01.09.04.09.08,0,.05-.02.08-.05.08-.02,0-.11,0-.26,0-.15,0-.33-.01-.55-.01-.22,0-.41,0-.58,0-.03,0-.15,0-.35.01-.2,0-.32.01-.36.01-.05,0-.08-.03-.08-.08,0-.04.03-.06.07-.07.18-.03.3-.06.37-.1.07-.04.11-.14.15-.28.03-.15.05-.39.05-.73v-2.88c0-.11,0-.18-.02-.23-.14,0-.37,0-.68,0-.28.01-.5.06-.64.13-.15.08-.25.21-.3.4-.01.05-.04.07-.08.07-.03,0-.04-.02-.04-.07,0-.09.02-.28.07-.55.02-.16.03-.29.03-.4,0-.03.01-.04.04-.04" style="fill: #fff;"/>
      <path d="M144.68,19.18c.79,0,1.42.22,1.91.65.48.43.72,1.01.72,1.74s-.22,1.35-.66,1.79c-.44.44-1.07.67-1.88.67-.34,0-.66-.05-.96-.14-.3-.09-.58-.22-.83-.41-.25-.19-.45-.44-.6-.77-.15-.33-.22-.71-.22-1.14,0-.74.22-1.32.67-1.75.45-.43,1.06-.64,1.86-.64M144.65,19.49c-.47,0-.83.17-1.09.52-.25.34-.38.81-.38,1.38,0,.76.16,1.34.47,1.74.32.4.74.6,1.25.6.38,0,.7-.18.95-.54.25-.36.38-.83.38-1.41,0-.72-.14-1.28-.42-1.69-.28-.41-.67-.61-1.17-.61" style="fill: #fff;"/>
      <path d="M151.18,19.2s.03.01.03.03v.13c0,.08,0,.16,0,.21v.37c0,.05-.01.08-.05.08-.04,0-.05-.02-.06-.08-.02-.17-.09-.28-.21-.33-.12-.05-.33-.08-.63-.08-.22,0-.39.01-.52.03-.02.22-.02.54-.02.94v.92h.46c.27,0,.43,0,.5-.02.07-.01.11-.06.13-.13l.05-.15s.04-.07.06-.07c.04,0,.06.01.06.04,0,0,0,.07-.03.18-.01.11-.03.2-.03.28,0,.06,0,.15.01.29,0,.14,0,.21,0,.23,0,.04-.01.06-.04.06-.03,0-.05-.02-.06-.06-.03-.16-.08-.26-.15-.3-.07-.04-.23-.06-.47-.06h-.5v.81c0,.52.03.85.1,1.01.07.16.22.26.47.31.09.01.14.04.14.08,0,.04-.03.07-.09.07-.06,0-.23,0-.53-.02-.3-.01-.51-.02-.64-.02-.08,0-.24,0-.47,0l-.34.02c-.05,0-.08-.02-.08-.06,0-.04.03-.06.09-.08.19-.03.3-.12.34-.27.03-.15.05-.61.05-1.38v-1.71c0-.37-.01-.62-.03-.75-.02-.13-.05-.21-.09-.25-.04-.04-.14-.07-.28-.09-.05,0-.08-.03-.08-.07,0-.05.03-.07.09-.07h.9c1.08.01,1.69-.01,1.84-.05.02,0,.04,0,.07,0" style="fill: #fff;"/>
      <path d="M127.97,41.96v-.13c0-.2.03-.36.07-.49.04-.14.15-.43.49-.71.21-.19.43-.3.69-.33.22,0,.4.09.5.21.06.07.07.15.03.23-.03.05-.07.1-.12.14-.07.05-.12.05-.18-.01-.12-.12-.31-.24-.5-.24-.16,0-.25.08-.32.18-.07.11-.13.39-.12.9v.25h.73c.04.05,0,.21-.07.25h-.66v1.71c0,.45.05.47.53.52v.16h-1.5v-.16c.39-.04.44-.08.44-.47v-1.75h-.43l-.03-.07.17-.18h.29Z" style="fill: #fff;"/>
      <path d="M129.72,44.59v-.16c.38-.05.44-.08.44-.49v-2.83c0-.41-.04-.42-.42-.46v-.15c.33-.04.72-.14.95-.21v3.65c0,.41.05.45.45.49v.16h-1.42Z" style="fill: #fff;"/>
      <path d="M134.76,44.44c-.13.02-.61.1-1,.23v-.39l-.36.21c-.25.14-.41.17-.47.17-.51,0-1.17-.44-1.17-1.28s.75-1.49,1.6-1.49c.09,0,.25.02.4.07v-.85c0-.39-.04-.41-.47-.44v-.16c.34-.04.76-.13,1.01-.21v3.58c0,.33.05.36.29.38h.17v.17ZM133.76,42.43c-.15-.21-.39-.31-.62-.31-.26,0-.77.22-.77,1.09,0,.72.46,1.05.84,1.05.2,0,.41-.09.56-.19v-1.64Z" style="fill: #fff;"/>
      <path d="M136.74,41.89c.79,0,1.36.61,1.36,1.34,0,.98-.74,1.44-1.37,1.44-.88,0-1.39-.66-1.39-1.33,0-.99.81-1.45,1.39-1.45h0ZM136.66,42.09c-.36,0-.69.36-.69,1.04,0,.76.33,1.32.83,1.32.36,0,.67-.24.67-1.09,0-.72-.29-1.28-.81-1.28h0Z" style="fill: #fff;"/>
      <path d="M141.15,44.06c-.4.5-.84.6-1.04.6-.76,0-1.2-.6-1.2-1.28,0-.4.15-.76.39-1.03.26-.29.6-.46.92-.46h0c.52,0,.94.45.94.93,0,.11-.03.17-.14.19-.11.02-.88.08-1.59.11.01.78.47,1.11.9,1.11.25,0,.49-.09.71-.3l.11.13ZM140.08,42.12c-.26,0-.53.24-.62.74.33,0,.65,0,.99-.01.11,0,.15-.04.15-.12,0-.31-.2-.61-.52-.61h0Z" style="fill: #fff;"/>
      <path d="M142.29,44.66c-.2,0-.36-.14-.36-.37,0-.2.15-.36.36-.36s.36.16.36.36c0,.23-.15.37-.36.37h0Z" style="fill: #fff;"/>
      <path d="M144.93,41.89c.79,0,1.36.61,1.36,1.34,0,.98-.74,1.44-1.37,1.44-.88,0-1.39-.66-1.39-1.33,0-.99.81-1.45,1.39-1.45h0ZM144.85,42.09c-.36,0-.69.36-.69,1.04,0,.76.33,1.32.83,1.32.36,0,.67-.24.67-1.09,0-.72-.29-1.28-.81-1.28h0Z" style="fill: #fff;"/>
      <path d="M147.91,42.54c.2-.33.45-.65.74-.65.22,0,.37.16.37.31,0,.14-.08.26-.22.33-.07.03-.13.01-.16-.02-.1-.09-.17-.12-.27-.12-.16,0-.34.18-.48.5v1.08c0,.4.03.43.51.47v.16h-1.47v-.16c.37-.04.42-.08.42-.47v-1.25c0-.38-.03-.41-.38-.46v-.13c.31-.05.6-.12.91-.25v.67h.01Z" style="fill: #fff;"/>
      <path d="M152.26,42.01c-.05.09-.17.26-.28.31l-.35-.02c.11.13.17.32.17.53,0,.65-.56.96-1.1.96-.12,0-.22-.02-.32-.03-.08.05-.16.15-.16.22,0,.12.11.23.39.23.21,0,.42-.01.64-.01.37,0,.9.12.9.72s-.74,1.21-1.56,1.21c-.7,0-1.07-.4-1.08-.74,0-.14.06-.26.16-.35.13-.13.35-.29.5-.4-.23-.07-.38-.2-.46-.33-.06-.09-.08-.2-.07-.27.25-.09.45-.25.54-.36-.29-.12-.54-.41-.54-.81,0-.7.63-1,1.12-1h0c.2,0,.4.06.59.15.32-.02.63-.06.86-.08l.03.05ZM150.82,44.68c-.28,0-.42.04-.53.12-.15.13-.26.29-.26.45,0,.32.34.58.81.58.55,0,.86-.29.86-.66,0-.21-.11-.36-.29-.43-.16-.06-.33-.07-.59-.07h0ZM150.71,42.08c-.25,0-.49.24-.49.72s.22.8.55.8c.26,0,.49-.24.49-.71s-.21-.8-.55-.8h0Z" style="fill: #fff;"/>
      <path d="M57,26.48c.05,0,.08.02.08.07,0,.01,0,.11-.01.3-.01.19-.02.31-.02.37l-.02.83c0,.11-.03.16-.1.16-.08,0-.12-.05-.13-.15-.08-.55-.73-.83-1.95-.83-.45,0-.88.02-1.3.05-.02.25-.03,1.04-.03,2.36v2.15h1.48c.59,0,.98-.04,1.19-.12.21-.08.35-.22.44-.44.01-.02.03-.11.07-.24.02-.09.06-.13.1-.13.08,0,.12.03.12.1l-.05.52c-.03.36-.05.65-.05.86,0,.15,0,.38,0,.67,0,.3,0,.47,0,.51,0,.08-.03.11-.1.11-.08,0-.11-.04-.11-.11,0-.47-.1-.75-.29-.86-.19-.11-.6-.17-1.22-.18l-1.58-.03.02,2.1c0,.83.04,1.52.13,2.06.04.27.19.45.43.54.25.09.6.14,1.06.14.63,0,1.08-.05,1.36-.14.28-.1.49-.28.63-.55.04-.09.09-.13.13-.13.09,0,.13.03.13.08,0,.04-.02.1-.05.18l-.19.52c-.03.13-.07.25-.1.36-.03.11-.06.19-.08.24-.02.06-.02.09-.02.1-.03.09-.07.13-.12.13l-.63-.03c-.68-.03-1.77-.05-3.25-.05-.24,0-.56,0-.97,0-.41,0-.77.01-1.08.02-.32.01-.48.02-.49.02-.11,0-.16-.04-.16-.13,0-.05.07-.1.2-.13.42-.1.68-.22.78-.37.18-.24.29-.94.31-2.1v-5.73c0-1.29-.04-2.05-.11-2.27-.07-.23-.32-.37-.75-.44-.12-.02-.18-.07-.18-.13,0-.08.07-.12.21-.12h.6c.17,0,.36,0,.56.01.2,0,.41,0,.63,0h.57c1.47,0,2.63-.03,3.48-.1.11-.01.2-.02.26-.03.07-.01.11-.02.13-.02.02,0,.04,0,.05,0" style="fill: #fff;"/>
      <path d="M65,26.5c1.97,0,3.45.5,4.44,1.51.99,1,1.48,2.3,1.48,3.89,0,1.82-.57,3.31-1.72,4.47-1.15,1.16-2.81,1.74-4.97,1.74-.45,0-1.06-.02-1.84-.06-.78-.04-1.25-.06-1.41-.06-.21,0-.45,0-.72,0-.28,0-.51.01-.71.02-.2.01-.3.02-.31.02-.12,0-.18-.04-.18-.13s.07-.13.2-.15c.53-.06.84-.34.94-.83.1-.49.15-2,.15-4.52v-2.85c0-1.21-.05-1.94-.15-2.19-.1-.24-.42-.4-.96-.48-.12-.02-.18-.08-.18-.16,0-.08.07-.12.21-.12.02,0,.24,0,.65.02.41.01.76.02,1.06.02.13,0,.78-.03,1.95-.08,1.17-.06,1.87-.08,2.08-.08M64.26,27.17c-.75,0-1.36.06-1.84.18-.08.53-.11,1.52-.11,2.96v4.25c.01,1.26.08,2.07.19,2.42.07.2.31.33.73.41.42.08.79.12,1.1.12,1.46,0,2.56-.44,3.29-1.33.72-.88,1.09-2.15,1.09-3.78,0-1.55-.38-2.81-1.14-3.78-.76-.97-1.86-1.45-3.31-1.45" style="fill: #fff;"/>
      <path d="M84.13,26.56c.14,0,.21.04.21.12,0,.09-.07.14-.19.16-.26.04-.46.09-.59.15-.13.06-.24.2-.32.42-.08.22-.13.47-.14.77-.02.3-.03.76-.03,1.39v4.13c0,1.49-.32,2.55-.96,3.19-.84.85-2.03,1.27-3.56,1.27-.85,0-1.61-.1-2.26-.3-.65-.2-1.15-.46-1.5-.79-.43-.39-.74-.83-.91-1.3-.17-.47-.26-1.21-.26-2.21v-3.98c0-.89-.02-1.5-.07-1.82-.04-.33-.12-.55-.23-.67-.11-.12-.33-.2-.65-.24-.11-.01-.16-.06-.16-.16,0-.08.07-.12.21-.12l.29.02c.2.01.43.03.72.04.29.02.53.03.74.03.55,0,1.08-.02,1.58-.05l.73-.03c.14,0,.21.04.21.12,0,.1-.06.16-.18.18-.38.05-.65.14-.8.25-.15.11-.26.34-.34.71-.08.37-.11.98-.1,1.82l.02,4.41c0,1.06.22,1.88.68,2.45.46.58,1.26.86,2.42.86s2.04-.28,2.65-.85c.6-.57.9-1.39.9-2.46v-4.41c.01-.75-.03-1.31-.11-1.69-.08-.38-.21-.64-.38-.78-.17-.14-.43-.24-.78-.29-.11-.02-.16-.08-.16-.16,0-.08.07-.12.21-.12l.31.02c.21.01.46.02.76.03.3,0,.55,0,.76,0,.26,0,.53-.01.81-.04.28-.03.43-.04.46-.04" style="fill: #fff;"/>
      <path d="M91.97,26.46c.49,0,1.13.08,1.93.23.87.16,1.39.25,1.58.25.11,0,.2-.03.29-.08.09-.05.14-.07.15-.07.08,0,.11.03.11.08,0,.01-.01.1-.03.26-.02.16-.03.28-.03.34-.02.54-.03,1.06-.03,1.56,0,.11-.03.16-.1.16s-.11-.06-.14-.18c-.08-.39-.36-.74-.86-1.06-.5-.32-1.03-.55-1.58-.7-.55-.14-1.03-.22-1.43-.22-1.31,0-2.3.42-2.96,1.25-.66.84-.99,1.98-.99,3.43,0,1.77.45,3.18,1.35,4.24.9,1.06,1.97,1.59,3.21,1.59.97,0,1.75-.17,2.33-.52.57-.35.93-.8,1.05-1.37.03-.11.08-.16.15-.16.08,0,.11.03.11.1,0,.02-.01.13-.03.32-.02.19-.05.41-.1.66s-.08.43-.11.55c-.09.27-.14.43-.17.48-.03.06-.08.09-.17.12-.39.11-.79.19-1.19.26-.7.12-1.42.18-2.18.18-.84,0-1.63-.11-2.36-.31-.72-.21-1.4-.53-2.01-.98-.61-.44-1.09-1.06-1.45-1.86-.35-.8-.53-1.74-.53-2.82,0-1.77.55-3.17,1.66-4.2,1.11-1.03,2.62-1.55,4.54-1.55" style="fill: #fff;"/>
      <path d="M102.97,26.49c.1,0,.18.08.26.25l3.43,8.23c.42,1.09.76,1.81,1.03,2.17.26.36.6.59,1.01.67.17.03.26.09.26.16s-.04.11-.11.11c-.03,0-.2,0-.51-.02-.31-.02-.67-.03-1.08-.04-.41-.01-.76-.02-1.06-.02-.15,0-.46.01-.93.03s-.78.03-.92.03c-.1,0-.14-.04-.14-.13s.04-.13.13-.13c.58-.05.88-.25.88-.58,0-.27-.1-.68-.31-1.22l-.78-2.05h-3.56l-.81,1.92c-.21.5-.31.9-.31,1.19,0,.24.06.41.18.53.12.11.32.18.6.2.14.01.21.05.21.11,0,.09-.05.13-.16.13-.08,0-.35-.01-.81-.03-.47-.02-.77-.03-.93-.03-.18,0-.48.01-.89.03-.41.02-.66.03-.73.03-.09,0-.13-.04-.13-.11,0-.07.06-.11.18-.13.36-.04.69-.26.98-.65.29-.39.67-1.1,1.12-2.15l2.68-6.05c.15-.33.3-.66.44-.97.14-.31.27-.58.38-.81.11-.23.19-.39.22-.46.08-.14.14-.21.21-.21M102.36,29.65l-1.48,3.55,2.88-.05-1.4-3.5Z" style="fill: #fff;"/>
      <path d="M108.38,26.38s.1.01.21.03c.03,0,.1.01.2.03.1.02.17.04.21.04.04,0,.12.01.22.03.11.01.21.02.29.03.09.01.21.02.38.03.16.01.32.02.49.02.16,0,.37.01.61.02.24,0,.5.01.78.02.28,0,.6,0,.97,0h1.2c1.4,0,2.72-.04,3.97-.13l.23-.03c.06,0,.08.03.08.08,0,.01,0,.11-.02.3-.01.19-.02.36-.02.51,0,.09,0,.27-.01.57-.01.29-.02.48-.02.55,0,.1-.04.14-.11.14-.07,0-.11-.05-.12-.14-.02-.21-.08-.38-.16-.51-.09-.13-.16-.23-.24-.3-.07-.07-.22-.12-.44-.15-.22-.04-.38-.07-.49-.08-.1-.01-.33-.02-.67-.03-.79,0-1.39,0-1.79.02-.03.13-.05.36-.05.7l.03,6.93c0,.48,0,.84,0,1.09,0,.25.03.49.07.72.04.23.08.38.11.46.03.08.11.16.24.24.13.08.24.12.33.14.09.01.26.04.51.06.15.02.23.08.23.18,0,.09-.05.13-.15.13h-.05s-.08,0-.16,0c-.07,0-.15-.01-.25-.02-.1,0-.23-.01-.39-.02-.16,0-.34-.01-.54-.02-.2,0-.43,0-.72,0h-.89c-.07,0-.33.01-.8.03-.46.02-.74.03-.83.03-.12,0-.18-.04-.18-.13,0-.11.06-.17.18-.18.32-.05.54-.11.67-.16.13-.05.26-.17.38-.37.12-.2.19-.46.21-.78.02-.32.03-.8.03-1.45v-6.8c0-.43-.01-.69-.05-.78-.33-.01-.85-.02-1.58-.02-.38.01-.66.03-.85.05-.19.02-.4.07-.62.14-.22.07-.39.18-.5.32-.11.14-.19.32-.24.55-.02.11-.07.16-.15.16-.07,0-.1-.04-.1-.13,0-.18.05-.54.15-1.06.06-.56.1-.9.1-.99,0-.05.03-.08.08-.08" style="fill: #fff;"/>
      <path d="M119.68,26.56s.29.01.73.04c.45.03.77.04.98.04.28,0,.74-.01,1.37-.04.63-.03.97-.04,1.01-.04.14,0,.21.04.21.12,0,.09-.06.13-.18.14-.24.04-.41.09-.51.13-.1.04-.2.11-.3.19-.1.09-.16.24-.18.47-.03.23-.05.48-.07.76-.02.27-.03.7-.03,1.26v4.85c.01,1.37.08,2.23.19,2.59.12.36.45.59.99.7.16.03.24.09.24.16s-.05.11-.16.11c-.39,0-.86,0-1.42-.02-.55-.01-.99-.01-1.31-.01-.07,0-.33.01-.8.03-.47.02-.74.03-.83.03-.12,0-.18-.03-.18-.1,0-.06.06-.1.18-.13.36-.09.6-.21.73-.37.13-.16.23-.51.29-1.04.07-.53.1-1.44.1-2.74v-3.93c0-1.28-.06-2.07-.16-2.38-.11-.3-.42-.49-.93-.57-.12-.02-.18-.07-.18-.14s.07-.12.21-.12" style="fill: #fff;"/>
      <path d="M131.72,26.43c1.82,0,3.29.53,4.41,1.57,1.12,1.05,1.68,2.45,1.68,4.2s-.51,3.25-1.52,4.33c-1.01,1.08-2.47,1.61-4.37,1.61-.79,0-1.53-.11-2.23-.33-.69-.22-1.33-.55-1.92-.99-.59-.44-1.05-1.06-1.39-1.86-.34-.79-.51-1.71-.51-2.76,0-1.78.52-3.18,1.55-4.22,1.03-1.04,2.47-1.55,4.31-1.55M131.64,26.97c-1.19,0-2.11.43-2.73,1.3-.63.87-.94,2.03-.94,3.48,0,1.92.39,3.37,1.17,4.37.78.99,1.82,1.49,3.1,1.49.99,0,1.8-.45,2.44-1.34.64-.89.96-2.08.96-3.55,0-1.8-.35-3.21-1.06-4.22-.71-1.01-1.69-1.52-2.95-1.52" style="fill: #fff;"/>
      <path d="M140.84,26.22c.08,0,.14.03.19.08,1.12,1.12,2.61,2.56,4.48,4.33,1.87,1.77,3.37,3.17,4.5,4.21l.02-5.21c0-.96-.09-1.65-.25-2.05-.17-.4-.49-.64-.97-.71-.14-.07-.22-.12-.23-.16,0-.07.06-.1.18-.1.08,0,.36,0,.84.03.48.01.78.02.9.02.2,0,.49-.01.9-.03.4-.02.63-.03.68-.03.12,0,.18.04.18.12,0,.09-.06.13-.18.14-.51.08-.82.26-.93.55-.11.29-.18,1.03-.21,2.23-.04,3.42-.07,5.46-.07,6.13l.02,2.55c0,.12-.04.18-.12.18-.02,0-.05-.02-.09-.05-.04-.03-.08-.08-.13-.13-.05-.06-.08-.09-.11-.11-4.29-4.26-7.26-7.13-8.89-8.6v5.42c0,1.18.04,1.92.13,2.22.09.3.37.49.85.56.15.03.23.08.23.13,0,.09-.06.14-.18.14-.08,0-.33,0-.77-.02-.44-.02-.72-.03-.84-.03-.2,0-.49.01-.9.03-.4.02-.63.03-.69.03-.12,0-.18-.04-.18-.11,0-.07.06-.11.18-.14.22-.05.38-.11.49-.16.11-.05.21-.13.31-.23.1-.1.17-.26.21-.48.04-.22.06-.47.09-.75.02-.28.04-.68.05-1.21.11-3.54.16-5.55.16-6.03v-2.59c0-.11.05-.16.15-.16" style="fill: #fff;"/>
      <rect x="50.96" y="43.05" width="74.93" height=".28" style="fill: #fff;"/>
      <text transform="translate(50.96 56.52)" style="fill: #fff; font-family: FuturaBT-Heavy, &apos;Futura Hv BT&apos;; font-size: 12px; font-weight: 800;"><tspan x="0" y="0">N° </tspan><tspan x="17.64" y="0" style="letter-spacing: -.13em;">1</tspan><tspan x="23.44" y="0">3572</tspan></text>
    </g>
  </g>
</svg>